<svg width="476" height="430" viewBox="0 0 476 430" fill="none" xmlns="http://www.w3.org/2000/svg">
<path d="M91.2874 213V184.469H13.6567V154.611L83.1041 55.9693H129.771V152.842H147.686V184.469H129.771V213H91.2874ZM53.4673 152.842H91.2874V101.53L53.4673 152.842ZM240.118 216.539C225.963 216.539 213.725 213.295 203.403 206.807C193.229 200.172 185.341 190.736 179.738 178.497C174.283 166.259 171.555 151.662 171.555 134.706C171.555 117.749 174.283 103.152 179.738 90.9142C185.341 78.5286 193.229 69.0183 203.403 62.3832C213.725 55.7481 225.963 52.4306 240.118 52.4306C254.272 52.4306 266.437 55.7481 276.611 62.3832C286.784 69.0183 294.599 78.5286 300.055 90.9142C305.658 103.152 308.459 117.749 308.459 134.706C308.459 151.515 305.658 166.038 300.055 178.276C294.599 190.514 286.784 199.951 276.611 206.586C266.437 213.221 254.272 216.539 240.118 216.539ZM240.118 185.133C249.407 185.133 256.484 181.004 261.35 172.747C266.363 164.343 268.87 151.662 268.87 134.706C268.87 123.352 267.764 113.916 265.552 106.396C263.34 98.8763 260.097 93.2733 255.821 89.5871C251.692 85.7535 246.458 83.8367 240.118 83.8367C233.777 83.8367 228.469 85.7535 224.193 89.5871C219.917 93.2733 216.673 98.8763 214.462 106.396C212.25 113.916 211.144 123.352 211.144 134.706C211.144 151.662 213.577 164.343 218.443 172.747C223.456 181.004 230.681 185.133 240.118 185.133ZM405.539 213V184.469H327.908V154.611L397.356 55.9693H444.022V152.842H461.937V184.469H444.022V213H405.539ZM367.719 152.842H405.539V101.53L367.719 152.842Z" fill="#E2EEFF"/>
<path d="M87.2874 213V184.469H9.65669V154.611L79.1041 55.9693H125.771V152.842H143.686V184.469H125.771V213H87.2874ZM49.4673 152.842H87.2874V101.53L49.4673 152.842ZM236.118 216.539C221.963 216.539 209.725 213.295 199.403 206.807C189.229 200.172 181.341 190.736 175.738 178.497C170.283 166.259 167.555 151.662 167.555 134.706C167.555 117.749 170.283 103.152 175.738 90.9142C181.341 78.5286 189.229 69.0183 199.403 62.3832C209.725 55.7481 221.963 52.4306 236.118 52.4306C250.272 52.4306 262.437 55.7481 272.611 62.3832C282.784 69.0183 290.599 78.5286 296.055 90.9142C301.658 103.152 304.459 117.749 304.459 134.706C304.459 151.515 301.658 166.038 296.055 178.276C290.599 190.514 282.784 199.951 272.611 206.586C262.437 213.221 250.272 216.539 236.118 216.539ZM236.118 185.133C245.407 185.133 252.484 181.004 257.35 172.747C262.363 164.343 264.87 151.662 264.87 134.706C264.87 123.352 263.764 113.916 261.552 106.396C259.34 98.8763 256.097 93.2733 251.821 89.5871C247.692 85.7535 242.458 83.8367 236.118 83.8367C229.777 83.8367 224.469 85.7535 220.193 89.5871C215.917 93.2733 212.673 98.8763 210.462 106.396C208.25 113.916 207.144 123.352 207.144 134.706C207.144 151.662 209.577 164.343 214.443 172.747C219.456 181.004 226.681 185.133 236.118 185.133ZM401.539 213V184.469H323.908V154.611L393.356 55.9693H440.022V152.842H457.937V184.469H440.022V213H401.539ZM363.719 152.842H401.539V101.53L363.719 152.842Z" fill="#388BFF"/>
<g clip-path="url(#clip0_821_2385)">
<path d="M270.92 256.6V427.31H374.12V256.6H270.92ZM364.75 364.31H280.29V319.87H364.75V364.31ZM364.75 309.31H280.29V264.85H364.75V309.31Z" fill="#DBDBDB"/>
<path d="M420.78 256.6H374.12V427.3H420.78V256.6Z" fill="#EBEBEB"/>
<path d="M300.36 264.85H280.29V309.29H300.36V264.85Z" fill="#EBEBEB"/>
<path d="M364.75 374.23H280.82V416.6H364.75V374.23Z" stroke="#EBEBEB" stroke-width="0.5" stroke-miterlimit="10"/>
<path d="M331.12 386.14H314.45V392.23H331.12V386.14Z" fill="#EBEBEB"/>
<path d="M300.36 319.88H280.29V364.32H300.36V319.88Z" fill="#EBEBEB"/>
<path d="M353.19 364.31V323.34H339.07V364.31H353.19Z" fill="#A6A6A6"/>
<path d="M353.2 357.74V348.9H339.08V357.74H353.2Z" fill="#DBDBDB"/>
<path d="M353.19 341.77V336.53H339.07V341.77H353.19Z" fill="#DBDBDB"/>
<path d="M381.77 222.27H346.09V256.56H381.77V222.27Z" fill="#EBEBEB"/>
<path d="M395.33 222.27H381.77V256.56H395.33V222.27Z" fill="#C7C7C7"/>
<path d="M346.09 239.41H381.77L353.91 240.3L346.09 239.41Z" fill="#C7C7C7"/>
<path d="M381.77 252.42H346.09L373.96 253.3L381.77 252.42Z" fill="#C7C7C7"/>
<path d="M346.09 229.83H368.69L348.6 230.55L346.09 229.83Z" fill="#C7C7C7"/>
<path d="M381.77 247.37H359.17L379.26 248.09L381.77 247.37Z" fill="#C7C7C7"/>
<path d="M354.65 226.01H380.14L375.89 226.45L354.65 226.01Z" fill="#C7C7C7"/>
<path d="M349.56 243.09H375.05L370.8 243.52L349.56 243.09Z" fill="#C7C7C7"/>
<path d="M365.24 233.1H381.77L384.73 234.25L365.24 233.1Z" fill="#EBEBEB"/>
<path d="M341.54 233.1H358.07L361.03 234.25L341.54 233.1Z" fill="#EBEBEB"/>
<path d="M362.75 248.51H346.22L343.26 249.66L362.75 248.51Z" fill="#EBEBEB"/>
<path d="M381.77 244.59H395.05L398.01 245.75L381.77 244.59Z" fill="#C7C7C7"/>
<path d="M386.41 239.41H396.71L395.33 238.47L386.41 239.41Z" fill="#C7C7C7"/>
<path d="M340.6 275H304.92V309.29H340.6V275Z" fill="#EBEBEB"/>
<path d="M354.16 275H340.6V309.29H354.16V275Z" fill="#C7C7C7"/>
<path d="M304.92 292.15H340.6L312.73 293.03L304.92 292.15Z" fill="#C7C7C7"/>
<path d="M340.6 305.15H304.92L332.79 306.03L340.6 305.15Z" fill="#C7C7C7"/>
<path d="M304.92 282.56H327.52L307.43 283.28L304.92 282.56Z" fill="#C7C7C7"/>
<path d="M340.6 300.1H318L338.09 300.82L340.6 300.1Z" fill="#C7C7C7"/>
<path d="M313.48 278.75H338.97L334.72 279.18L313.48 278.75Z" fill="#C7C7C7"/>
<path d="M308.39 295.82H333.88L329.63 296.25L308.39 295.82Z" fill="#C7C7C7"/>
<path d="M324.06 285.83H340.6L343.56 286.98L324.06 285.83Z" fill="#EBEBEB"/>
<path d="M300.36 285.83H316.9L319.85 286.98L300.36 285.83Z" fill="#EBEBEB"/>
<path d="M321.58 301.24H305.04L302.09 302.39L321.58 301.24Z" fill="#EBEBEB"/>
<path d="M340.6 297.32H353.88L356.83 298.48L340.6 297.32Z" fill="#C7C7C7"/>
<path d="M345.24 292.15H355.53L354.16 291.2L345.24 292.15Z" fill="#C7C7C7"/>
<path d="M364.75 320.6H353.2V364.31H364.75V320.6Z" fill="#EBEBEB"/>
<path d="M359 329.22C358.523 329.22 358.057 329.078 357.66 328.813C357.264 328.548 356.955 328.171 356.773 327.73C356.59 327.289 356.543 326.804 356.637 326.336C356.731 325.868 356.961 325.439 357.3 325.102C357.638 324.766 358.068 324.537 358.536 324.445C359.004 324.353 359.489 324.402 359.929 324.586C360.369 324.77 360.745 325.081 361.009 325.478C361.272 325.876 361.412 326.343 361.41 326.82C361.411 327.136 361.35 327.45 361.229 327.742C361.108 328.035 360.931 328.3 360.707 328.523C360.482 328.747 360.216 328.923 359.923 329.043C359.63 329.162 359.316 329.223 359 329.22Z" fill="white"/>
<path d="M359 328.2C358.727 328.2 358.46 328.119 358.233 327.967C358.006 327.816 357.83 327.6 357.725 327.348C357.621 327.096 357.593 326.818 357.647 326.551C357.7 326.283 357.831 326.037 358.024 325.844C358.217 325.651 358.463 325.52 358.731 325.466C358.999 325.413 359.276 325.441 359.528 325.545C359.78 325.649 359.996 325.826 360.148 326.053C360.299 326.28 360.38 326.547 360.38 326.82C360.381 327.002 360.347 327.182 360.278 327.35C360.209 327.518 360.107 327.67 359.979 327.799C359.85 327.927 359.698 328.029 359.53 328.098C359.362 328.166 359.182 328.201 359 328.2Z" fill="#A6A6A6"/>
<path d="M364.75 357.42V346.79H353.2V357.42H364.75Z" fill="white"/>
<path d="M339.08 355.29H295.37V364.38H339.08V355.29Z" fill="#C7C7C7"/>
<path d="M330.45 359.83C330.45 359.353 330.592 358.887 330.856 358.491C331.121 358.095 331.498 357.786 331.938 357.603C332.378 357.421 332.863 357.373 333.33 357.466C333.798 357.559 334.227 357.789 334.564 358.126C334.901 358.463 335.131 358.892 335.224 359.36C335.317 359.827 335.269 360.312 335.087 360.752C334.904 361.193 334.595 361.569 334.199 361.834C333.803 362.099 333.337 362.24 332.86 362.24C332.543 362.241 332.229 362.18 331.936 362.059C331.643 361.939 331.377 361.761 331.153 361.537C330.929 361.313 330.752 361.047 330.631 360.754C330.51 360.461 330.449 360.147 330.45 359.83Z" fill="white"/>
<path d="M331.48 359.83C331.48 359.557 331.561 359.29 331.713 359.063C331.864 358.836 332.08 358.659 332.332 358.555C332.584 358.451 332.862 358.423 333.129 358.476C333.397 358.53 333.643 358.661 333.836 358.854C334.029 359.047 334.16 359.293 334.214 359.561C334.267 359.828 334.24 360.106 334.135 360.358C334.031 360.61 333.854 360.826 333.627 360.977C333.4 361.129 333.133 361.21 332.86 361.21C332.679 361.211 332.499 361.177 332.331 361.108C332.163 361.039 332.01 360.937 331.881 360.809C331.753 360.68 331.651 360.528 331.583 360.36C331.514 360.192 331.479 360.012 331.48 359.83Z" fill="#A6A6A6"/>
<path d="M302.26 364.37H312.89V355.28H302.26V364.37Z" fill="white"/>
<path d="M239.28 428.54C236.59 429.38 157.92 427.68 155.04 425.77C154.67 425.53 155.69 417.11 155.33 405.97C154.85 391.4 170.93 350.51 170.93 350.51L220.17 351.51L204.9 401.34C204.9 401.34 233.9 415.09 236.9 417.53C239.9 419.97 242 427.71 239.28 428.54Z" fill="#CC8F83"/>
<path d="M239.28 428.54C236.59 429.38 157.91 427.68 155.04 425.76C154.7 425.55 154.78 418.18 155.04 408.12C169.31 410.51 221.04 418.34 225.04 416.01C227.8 414.38 225.36 411.84 223.09 410.13C229.59 413.37 235.66 416.49 236.91 417.54C239.79 420 242 427.71 239.28 428.54Z" fill="#242447"/>
<path d="M209 397.28L151.37 396.87C151.37 396.87 180.78 306.87 178.14 299.87C175.5 292.87 133.44 278.26 120.39 266.87C99.7501 248.87 118.12 216.98 118.12 216.98H164.88C164.88 216.98 161.69 231.36 167.88 241.48C167.88 241.48 219.95 260.9 229.02 278.62C238.79 297.57 209 397.28 209 397.28Z" fill="#242447"/>
<path d="M158.87 385.25C160.385 385.057 161.914 384.993 163.44 385.06C165 385.06 166.57 385.06 168.13 385.11C171.32 385.11 174.51 385.19 177.7 385.25C184.07 385.36 190.44 385.51 196.81 385.79C200.4 385.95 203.98 386.25 207.56 386.53C207.582 386.537 207.602 386.551 207.616 386.57C207.63 386.589 207.637 386.612 207.637 386.635C207.637 386.658 207.63 386.681 207.616 386.7C207.602 386.719 207.582 386.733 207.56 386.74C194.8 387.08 182.07 386.64 169.31 386.15C167.57 386.09 165.84 386.01 164.1 385.94C162.347 385.937 160.597 385.783 158.87 385.48C158.74 385.45 158.76 385.27 158.87 385.25Z" fill="#313361"/>
<path d="M227.52 321.72L178.25 300.27C178.238 300.15 178.208 300.031 178.16 299.92C175.47 292.79 133.47 278.31 120.42 266.92C99.7801 248.92 118.15 217.04 118.15 217.04H164.91C164.91 217.04 161.72 231.42 167.91 241.55C167.91 241.55 219.97 260.96 229.05 278.69C232.57 285.41 231 302.53 227.52 321.72Z" fill="#313361"/>
<path d="M166.46 380C173.9 356.54 181.71 333 185.98 308.7C186.43 304.85 187.36 300.44 185.92 296.78C184.934 295.05 183.591 293.55 181.98 292.38C166.98 281.58 148.81 276.21 133.31 265.92C129.91 263.59 126.52 261.08 124.04 257.67C117.45 246.9 118.75 233.08 123.22 221.77C122.468 223.685 121.85 225.65 121.37 227.65C118.98 237.4 119.05 248.65 124.56 257.31C126.97 260.57 130.35 263.01 133.73 265.31C147.6 274.17 163.31 279.73 177.47 288.11C181.15 290.49 185.3 292.91 187.11 297.16C187.569 298.965 187.721 300.834 187.56 302.69C186.79 313 184 323 181.39 332.93C177 348.8 171.91 364.46 166.46 380Z" fill="#313361"/>
<path d="M158.92 280.16L161.04 296.1L187.13 427.27H194.59L174 296.1L172.32 280.16H158.92Z" fill="#3A65AA"/>
<path opacity="0.3" d="M158.92 280.16L161.04 296.1L187.13 427.27H194.59L174 296.1L172.32 280.16H158.92Z" fill="black"/>
<path d="M88.27 427.27H95.75L121.84 296.1L123.95 280.16H110.55L108.88 296.1L88.27 427.27Z" fill="#3A65AA"/>
<path opacity="0.3" d="M88.27 427.27H95.75L121.84 296.1L123.95 280.16H110.55L108.88 296.1L88.27 427.27Z" fill="black"/>
<path d="M100.42 389.59H183.68V385.85H100.42V389.59Z" fill="#3A65AA"/>
<path opacity="0.3" d="M100.42 389.59H183.68V385.85H100.42V389.59Z" fill="black"/>
<path opacity="0.3" d="M174 295.54H161.04L158.92 280.16H172.32L174 295.54Z" fill="black"/>
<path opacity="0.3" d="M108.88 295.54H121.84L123.95 280.16H110.55L108.88 295.54Z" fill="black"/>
<path d="M101.82 284.99H181.04V269.59H101.82V284.99Z" fill="#3A65AA"/>
<path opacity="0.3" d="M101.82 284.99H181.04V269.59H101.82V284.99Z" fill="black"/>
<path d="M360.6 428.2C357.93 429.08 279.4 428.64 276.5 426.77C276.14 426.55 276.71 418.52 276.45 407.77C276.37 404.27 255.9 352 255.9 352L305.05 352.16L325.86 401.61C325.86 401.61 355 414.87 358 417.26C361 419.65 363.28 427.33 360.6 428.2Z" fill="#CC8F83"/>
<path d="M360.6 428.2C357.93 429.08 279.4 428.64 276.5 426.77C276.15 426.56 276.12 419.21 276.23 409.17C290.5 411.33 342.23 418.31 346.15 415.92C348.88 414.26 346.4 411.76 344.15 410.09C350.69 413.22 356.79 416.23 358.06 417.26C361 419.64 363.28 427.33 360.6 428.2Z" fill="#242447"/>
<path d="M327.52 392.24L267.88 393.06C267.88 393.06 218.7 303.63 215 299.87C206.49 291.36 132.78 280.17 114.42 261.87C94.9701 242.56 112.42 216.95 112.42 216.95H166.32C166.32 216.95 165.74 228.7 168.44 229.54C197.74 238.64 246.76 259.72 259.44 270.92C282.14 291.06 327.52 392.24 327.52 392.24Z" fill="#242447"/>
<path d="M269.52 380.83C270.99 380.584 272.479 380.466 273.97 380.48L278.55 380.35L287.87 380.15C294.09 380.03 300.3 379.96 306.51 380.01C310.01 380.01 313.51 380.2 317.01 380.35C317.039 380.35 317.067 380.362 317.088 380.382C317.108 380.403 317.12 380.431 317.12 380.46C317.12 380.489 317.108 380.517 317.088 380.538C317.067 380.558 317.039 380.57 317.01 380.57C304.59 381.36 292.17 381.38 279.72 381.36C278.02 381.36 276.33 381.36 274.64 381.36C272.932 381.426 271.222 381.335 269.53 381.09C269.4 381 269.42 380.86 269.52 380.83Z" fill="#313361"/>
<path d="M117.67 219.58C112.14 230.44 110 245.02 118.14 255.13C127.44 264.92 152.54 272.13 165.83 276.47C175.44 279.42 185.14 282.13 194.83 284.78C200.83 286.62 212.83 289.29 218.46 291.78C219.904 293.088 221.168 294.581 222.22 296.22C225.14 300.35 227.83 304.61 230.5 308.88C233.17 313.15 235.77 317.46 238.35 321.79C248.65 339.1 258.61 356.6 268.41 374.2C258.3 356.78 248.11 339.41 237.69 322.2C232.42 313.63 227.25 304.97 221.48 296.76C220.475 295.231 219.293 293.824 217.96 292.57C212.55 290.22 200.39 287.47 194.56 285.72C184.86 283.04 175.16 280.31 165.56 277.32C152.06 272.85 127.18 265.6 117.72 255.47C109.54 245.17 111.91 230.47 117.72 219.56L117.67 219.58Z" fill="#313361"/>
<path d="M176.14 162.51C189.77 162.23 215.74 167.59 227.45 172.73C235.45 176.23 237.59 181.63 237 184.88C235.36 193.88 201.33 187.75 201 186.41C200.74 185.41 187.14 182.04 172.43 173.84C165.37 169.91 170.29 162.63 176.14 162.51Z" fill="#68B4ED"/>
<path d="M191.75 182.68C185.099 180.21 178.639 177.256 172.42 173.84C165.42 169.91 170.29 162.62 176.15 162.51C177.07 162.51 178.05 162.51 179.07 162.51L191.75 182.68Z" fill="#313361"/>
<path d="M236.33 185.39C233.88 191.33 224.83 194.09 201.47 204.28C198.24 205.69 183.07 189.28 185.4 186.28C188.21 182.7 206.73 174.39 208.03 174.02C219.06 170.88 238 181.36 236.33 185.39Z" fill="#CC8F83"/>
<path d="M188 184.28C188 184.28 179.06 190.19 175.32 194.74C171.583 199.587 169.072 205.264 168 211.29C166.81 217.8 168.41 234.35 173.26 234.72C177.65 235.06 175.16 218.22 175.16 218.22C175.16 218.22 174.87 235.81 180.23 235.22C185.59 234.63 181.58 215.22 181.58 215.22C181.58 215.22 181.69 233.3 187.12 231.84C191.23 230.74 188.59 212.97 188.59 212.97C188.59 212.97 188.79 228.52 193.06 227.56C197.78 226.51 196.37 209.96 196.37 209.96C206.82 205.7 210.06 199.4 211.83 194.65C212.22 193.56 188 184.28 188 184.28Z" fill="#CC8F83"/>
<path d="M174.84 212.12C174.73 214.19 174.6 216.28 174.68 218.35C174.76 220.42 174.9 222.48 175.17 224.53C175.467 227.22 176.071 229.867 176.97 232.42C175.71 227.77 175.32 220.42 175.25 218.31C175.18 216.2 174.99 214.18 174.91 212.12C174.91 212.07 174.84 212.08 174.84 212.12Z" fill="#242447"/>
<path d="M182.3 211.72C182.3 214.36 182.15 216.98 182.24 219.63C182.33 222.28 182.65 224.75 182.93 227.37C182.93 227.57 183.05 227.49 183.04 227.29C182.87 224.66 182.92 222.22 182.78 219.59C182.64 216.96 182.4 214.33 182.36 211.71C182.36 211.67 182.3 211.68 182.3 211.72Z" fill="#242447"/>
<path d="M188.64 210.21C188.504 214.265 188.786 218.323 189.48 222.32C189.48 222.52 189.63 222.4 189.61 222.2C189.26 218.2 188.95 215.03 188.78 210.2C188.78 210.15 188.64 210.13 188.64 210.21Z" fill="#242447"/>
<path d="M188 182.16L214.68 201.24C214.68 201.24 234.91 191.62 236.87 185.37C238.16 181.25 218.87 169.92 206.98 174.37L188 182.16Z" fill="#68B4ED"/>
<path d="M222.5 175C217.587 172.892 212.07 172.665 207 174.36C206.989 174.365 206.98 174.372 206.974 174.382C206.967 174.392 206.964 174.403 206.964 174.415C206.964 174.427 206.967 174.438 206.974 174.448C206.98 174.458 206.989 174.465 207 174.47C212.33 173.12 220.2 174.32 222.5 175.1C222.54 175.12 222.56 175 222.5 175Z" fill="#242447"/>
<path d="M219.64 196C216.82 193.75 213.88 191.65 210.94 189.55C208 187.45 205.05 185.35 202.05 183.33C200.36 182.19 198.67 181.04 196.94 179.95C196.89 179.95 196.83 179.95 196.88 180.03C199.69 182.28 202.62 184.4 205.55 186.51C208.48 188.62 211.44 190.71 214.41 192.77C216.09 193.93 217.797 195.057 219.53 196.15C219.61 196.15 219.73 196 219.64 196Z" fill="#242447"/>
<path d="M187.89 181.86C189.118 181.173 190.391 180.568 191.7 180.05C193 179.5 194.3 178.97 195.61 178.45C198.21 177.45 203.61 174.94 208.61 173.85C208.61 173.85 208.44 174.17 208.38 174.18C205.99 174.58 189.74 181.73 188.38 182.13L188.59 182.38C188.59 182.45 188.59 182.55 188.5 182.52C188.41 182.49 188.14 182.32 187.95 182.23C187.913 182.218 187.88 182.197 187.855 182.167C187.829 182.138 187.812 182.102 187.806 182.064C187.8 182.025 187.804 181.986 187.819 181.95C187.834 181.914 187.859 181.883 187.89 181.86Z" fill="#242447"/>
<path d="M198.43 178C198.861 178.386 199.366 178.68 199.915 178.864C200.463 179.048 201.043 179.118 201.62 179.07C201.98 179 202.32 178.87 202.68 178.81C203.228 178.743 203.784 178.847 204.27 179.11C204.825 179.381 205.404 179.599 206 179.76C207.84 180.21 210 180.05 211.24 178.46C212.337 179.315 213.693 179.771 215.084 179.751C216.475 179.731 217.818 179.237 218.89 178.35C219.173 178.11 219.428 177.838 219.65 177.54C219.96 177.13 220.18 176.54 220.65 176.29C221.181 176.11 221.739 176.019 222.3 176.02C222.732 175.969 223.158 175.871 223.57 175.73C224.125 175.565 224.599 175.201 224.903 174.709C225.207 174.217 225.32 173.63 225.22 173.06C225.981 173.054 226.723 172.825 227.356 172.402C227.988 171.979 228.483 171.381 228.78 170.68C229.213 169.815 229.454 168.867 229.486 167.901C229.519 166.934 229.343 165.972 228.97 165.08C230.051 164.522 230.869 163.56 231.243 162.402C231.618 161.244 231.52 159.986 230.97 158.9C231.435 158.548 231.82 158.1 232.098 157.587C232.376 157.074 232.542 156.507 232.583 155.925C232.625 155.343 232.542 154.758 232.34 154.211C232.137 153.663 231.82 153.165 231.41 152.75C231.877 151.873 232.122 150.894 232.122 149.9C232.122 148.906 231.877 147.927 231.41 147.05C231.219 146.707 231.112 146.323 231.1 145.93C231.473 145.364 231.716 144.723 231.811 144.052C231.906 143.381 231.851 142.697 231.65 142.05C231.414 141.361 230.968 140.765 230.374 140.345C229.779 139.924 229.068 139.702 228.34 139.71C228.158 138.619 227.712 137.589 227.04 136.71C226.58 136.04 225.951 135.502 225.218 135.151C224.484 134.8 223.671 134.648 222.86 134.71C222.616 133.808 222.183 132.967 221.59 132.245C220.997 131.522 220.257 130.934 219.419 130.519C218.581 130.104 217.665 129.872 216.731 129.837C215.797 129.803 214.866 129.968 214 130.32C213.798 129.407 213.33 128.574 212.656 127.927C211.981 127.279 211.13 126.845 210.21 126.68C208 126.19 205.78 127.09 203.87 128.17C203.585 127.433 203.047 126.822 202.353 126.447C201.658 126.071 200.852 125.955 200.08 126.12C199.486 126.271 198.939 126.567 198.488 126.983C198.037 127.398 197.698 127.92 197.5 128.5C196.836 128.375 196.154 128.383 195.493 128.524C194.832 128.664 194.205 128.935 193.65 129.32C193.183 129.676 192.828 130.158 192.626 130.709C192.424 131.26 192.384 131.857 192.51 132.43C191.747 132.417 190.992 132.595 190.316 132.95C189.639 133.304 189.062 133.822 188.638 134.457C188.214 135.092 187.957 135.824 187.889 136.584C187.821 137.345 187.945 138.11 188.25 138.81C187.223 138.564 186.146 138.622 185.152 138.979C184.157 139.335 183.289 139.974 182.652 140.817C182.015 141.659 181.638 142.67 181.566 143.723C181.495 144.777 181.733 145.829 182.25 146.75C181.322 146.913 180.461 147.343 179.773 147.987C179.086 148.632 178.602 149.464 178.38 150.38C178.166 151.473 178.209 152.601 178.508 153.674C178.807 154.747 179.352 155.735 180.1 156.56C179.365 157.169 178.825 157.982 178.547 158.896C178.27 159.809 178.267 160.785 178.54 161.7C178.814 162.515 179.252 163.266 179.829 163.904C180.405 164.542 181.107 165.055 181.89 165.41C180.984 165.373 180.109 165.068 179.375 164.534C178.642 164 178.083 163.261 177.77 162.41C177.43 161.32 177.466 160.148 177.87 159.081C178.274 158.013 179.024 157.112 180 156.52C178.894 157.034 178.014 157.935 177.526 159.053C177.038 160.171 176.975 161.429 177.35 162.59C177.758 163.669 178.513 164.581 179.495 165.184C180.478 165.787 181.634 166.046 182.78 165.92C182.202 166.831 181.895 167.888 181.897 168.966C181.898 170.045 182.207 171.101 182.788 172.011C183.369 172.92 184.197 173.645 185.175 174.1C186.153 174.555 187.24 174.721 188.31 174.58C189.09 179.37 195 182.12 198.43 178ZM231.1 145.25C231.1 145.19 231.1 145.15 231.1 145.09C231.15 144.678 231.15 144.262 231.1 143.85C231.018 143.161 230.788 142.497 230.426 141.905C230.063 141.313 229.577 140.806 229 140.42C228.79 140.29 228.34 140.07 228.34 140.07C228.34 140.07 228.34 140 228.34 139.88C229.082 140.005 229.768 140.355 230.305 140.882C230.841 141.41 231.203 142.09 231.34 142.83C231.484 143.643 231.401 144.481 231.1 145.25ZM198 128.55C198.149 128.032 198.432 127.563 198.82 127.189C199.208 126.815 199.687 126.55 200.21 126.42C201.91 126.02 202.98 126.98 203.76 128.27L203.66 128.33C203.188 127.785 202.56 127.397 201.861 127.218C201.163 127.04 200.426 127.079 199.75 127.33C199.065 127.568 198.46 127.99 198 128.55ZM189.49 176.44C190.481 177.764 191.949 178.65 193.582 178.911C195.215 179.172 196.885 178.788 198.24 177.84C194.93 181 191.43 179.52 189.45 176.44H189.49Z" fill="#242447"/>
<path d="M176.92 162.46C175.92 163.24 171.45 171.85 174.1 176.7C174.97 178.28 183.79 173.93 183.79 173.93L184.51 173.76L194.65 171.34L196.29 157.25L196.44 155.25C196.44 155.25 193.71 156.1 190.32 157.18L189.84 157.33L189.29 157.5L187.75 157.99C187.36 158.12 186.98 158.24 186.57 158.39L185.35 158.82C182.459 159.837 179.643 161.053 176.92 162.46Z" fill="#CC8F83"/>
<path d="M190.32 157.18C188.207 159.357 186.593 161.967 185.589 164.83C184.586 167.693 184.218 170.74 184.51 173.76L194.65 171.34L196.29 157.25L196.44 155.25C196.44 155.25 193.71 156.1 190.32 157.18Z" fill="#242447"/>
<path d="M214.37 179.48C198.49 188.55 191.26 180.06 189.31 176.63C187.53 173.52 181.89 162.71 196.74 152.04C211.59 141.37 220.83 145.9 225.26 152.8C229.69 159.7 230.24 170.41 214.37 179.48Z" fill="#CC8F83"/>
<path d="M195.17 153.94C196.195 154.724 197.405 155.228 198.683 155.403C199.961 155.578 201.262 155.419 202.46 154.94C205.117 157.14 208.308 158.599 211.71 159.17C211.32 159.23 208.52 159.65 207.09 159.82C214.09 169.11 223.57 168.36 223.57 168.36C222.748 171.221 221.292 173.86 219.31 176.08C219.31 176.08 225.63 173.01 228.23 167.67C229.172 165.889 229.621 163.889 229.531 161.876C229.441 159.863 228.816 157.91 227.72 156.22C227.071 153.377 225.666 150.761 223.654 148.649C221.643 146.537 219.098 145.007 216.29 144.22C205.7 141.24 195.17 153.94 195.17 153.94Z" fill="#242447"/>
<path d="M212.69 166.78C210.963 165.587 209.426 164.141 208.13 162.49C210.356 164.981 213.235 166.799 216.44 167.74C217.807 168.137 219.218 168.362 220.64 168.41C222.195 168.513 223.754 168.31 225.23 167.81C225.253 167.801 225.278 167.801 225.3 167.81C225.323 167.82 225.341 167.837 225.35 167.86C225.359 167.883 225.359 167.908 225.35 167.93C225.341 167.953 225.323 167.971 225.3 167.98C223.895 168.63 222.391 169.039 220.85 169.19C219.317 169.273 217.782 169.077 216.32 168.61C215.023 168.184 213.794 167.575 212.67 166.8" fill="#242447"/>
<path d="M197 155.26C197 155.26 200.51 149.26 198.13 147.49C195.75 145.72 189.5 151.93 189.75 155.17C189.752 155.588 189.839 156 190.005 156.383C190.172 156.766 190.415 157.111 190.719 157.397C191.023 157.683 191.382 157.905 191.774 158.048C192.166 158.191 192.583 158.253 193 158.23L197 155.26Z" fill="#CC8F83"/>
<path d="M196.34 149.31H196.26C196.37 151.61 195.05 153.46 193.52 155.03C193.662 154.828 193.759 154.598 193.803 154.356C193.847 154.113 193.838 153.863 193.776 153.625C193.714 153.386 193.601 153.163 193.445 152.973C193.288 152.782 193.092 152.627 192.87 152.52C192.81 152.52 192.75 152.52 192.79 152.62C193.054 152.911 193.222 153.277 193.27 153.667C193.318 154.058 193.245 154.453 193.06 154.8C192.763 155.381 192.408 155.93 192 156.44C191.87 156.61 192.1 156.88 192.27 156.72C194.75 155.59 197.32 152.08 196.34 149.31Z" fill="#242447"/>
<path d="M215.12 175.88C215.123 175.459 215.097 175.038 215.04 174.62C215.081 174.169 214.968 173.718 214.72 173.34C214.62 173.235 214.489 173.166 214.346 173.144C214.202 173.123 214.056 173.149 213.93 173.22C213.7 173.397 213.522 173.632 213.415 173.901C213.307 174.17 213.275 174.464 213.32 174.75C213.319 175.342 213.54 175.913 213.94 176.35C214.035 176.446 214.157 176.512 214.289 176.54C214.422 176.568 214.56 176.556 214.685 176.505C214.811 176.455 214.92 176.369 214.997 176.258C215.074 176.147 215.117 176.015 215.12 175.88Z" fill="#242447"/>
<path d="M207.92 164.13C208.284 164.349 208.634 164.59 208.97 164.85C209.37 165.13 209.72 165.31 209.9 165.78C209.938 165.92 209.929 166.069 209.873 166.204C209.817 166.338 209.717 166.449 209.59 166.52C209.321 166.626 209.029 166.658 208.744 166.612C208.459 166.566 208.192 166.445 207.97 166.26C207.458 165.961 207.079 165.478 206.91 164.91C206.879 164.779 206.886 164.642 206.931 164.515C206.976 164.388 207.056 164.276 207.163 164.194C207.27 164.111 207.398 164.062 207.532 164.05C207.666 164.039 207.801 164.067 207.92 164.13Z" fill="#242447"/>
<path d="M195.56 171.3C195.317 171.669 195.211 172.111 195.26 172.55C195.433 172.983 195.7 173.372 196.04 173.69C196.04 173.69 196.04 173.78 196.04 173.77C195.745 173.693 195.476 173.537 195.263 173.318C195.05 173.1 194.9 172.827 194.83 172.53C194.798 172.268 194.845 172.003 194.964 171.768C195.084 171.533 195.27 171.339 195.5 171.21C195.52 171.17 195.58 171.25 195.56 171.3Z" fill="#242447"/>
<path d="M199 172.57C200.054 173.761 200.85 175.157 201.34 176.67C201.43 176.78 201.68 177.01 201.81 176.96L204.05 175.59C204.05 175.97 204.25 177.9 204.67 177.59C208.314 175.377 211.725 172.801 214.85 169.9C214.95 169.81 214.85 169.64 214.71 169.72C211.33 171.72 208.33 174.35 204.96 176.43C204.905 175.745 204.75 175.071 204.5 174.43C204.4 174.34 202.21 176.01 201.82 176.18C201.392 174.61 200.435 173.236 199.11 172.29C198.62 171.94 198.46 172 199 172.57Z" fill="#242447"/>
<path d="M198.59 175.37C199 175.83 201.49 175.74 201.23 174.78C200.955 174.035 200.498 173.37 199.901 172.846C199.303 172.322 198.585 171.956 197.81 171.78C196.33 171.62 198.35 173.92 198.36 174.43C198.37 174.94 198.29 175 198.59 175.37Z" fill="#242447"/>
<path d="M198.36 174.41C198.355 174.49 198.355 174.57 198.36 174.65C198.577 174.555 198.773 174.415 198.933 174.24C199.093 174.065 199.215 173.858 199.29 173.633C199.365 173.407 199.393 173.169 199.37 172.933C199.348 172.696 199.276 172.467 199.16 172.26C198.753 171.995 198.292 171.824 197.81 171.76C196.34 171.6 198.35 173.9 198.36 174.41Z" fill="#FF9ABB"/>
<path d="M206.28 168.21C206.28 168.21 206.17 168.21 206.13 168.21C205.13 168.96 203.83 169.65 202.84 168.95C202.84 168.95 202.76 168.95 202.79 168.95C203.74 170 205.44 169.08 206.28 168.21Z" fill="#242447"/>
<path d="M205.3 165.84C205.095 165.959 204.901 166.097 204.72 166.25C204.538 166.279 204.352 166.279 204.17 166.25C203.987 166.241 203.811 166.183 203.659 166.08C203.507 165.978 203.387 165.836 203.31 165.67C203.04 164.95 203.58 164.3 204.24 163.9C204.24 163.9 204.34 163.9 204.32 163.9C204.11 164.37 203.92 164.9 204.19 165.24C204.46 165.58 204.92 165.61 205.27 165.76L205.3 165.84Z" fill="#242447"/>
<path d="M205.17 169C204.858 169.145 204.513 169.204 204.17 169.17C203.982 169.143 203.801 169.078 203.64 168.978C203.478 168.878 203.338 168.746 203.23 168.59C203.124 168.426 203.058 168.239 203.035 168.045C203.013 167.851 203.035 167.654 203.1 167.47C203.225 167.154 203.42 166.87 203.67 166.64C203.821 166.506 203.982 166.382 204.15 166.27C204.496 166.029 204.893 165.871 205.31 165.81C205.049 165.968 204.804 166.152 204.58 166.36C204.378 166.545 204.191 166.746 204.02 166.96C203.67 167.4 203.48 167.96 203.74 168.25C203.891 168.434 204.098 168.563 204.329 168.617C204.561 168.672 204.803 168.648 205.02 168.55C205.576 168.373 206.115 168.145 206.63 167.87C206.238 168.355 205.738 168.742 205.17 169Z" fill="#242447"/>
<path d="M210.27 174.61C210.27 174.61 210.27 174.73 210.27 174.76C209.18 175.38 208.03 176.29 208.27 177.47C208.27 177.47 208.27 177.54 208.21 177.47C207.6 176.22 209.14 175 210.27 174.61Z" fill="#242447"/>
<path d="M212.05 176.46C211.858 176.599 211.654 176.719 211.44 176.82C211.335 176.975 211.251 177.143 211.19 177.32C211.131 177.489 211.118 177.671 211.153 177.847C211.188 178.023 211.27 178.187 211.39 178.32C211.688 178.534 212.052 178.636 212.417 178.609C212.783 178.582 213.127 178.426 213.39 178.17C213.44 178.17 213.44 178.09 213.39 178.09C212.88 178.09 212.33 178.09 212.11 177.67C211.89 177.25 212.11 176.86 212.11 176.47L212.05 176.46Z" fill="#242447"/>
<path d="M209.09 175.3C208.829 175.527 208.635 175.821 208.53 176.15C208.479 176.335 208.467 176.528 208.494 176.717C208.522 176.906 208.589 177.088 208.69 177.25C208.799 177.417 208.947 177.555 209.121 177.653C209.296 177.75 209.491 177.804 209.69 177.81C210.034 177.827 210.377 177.762 210.69 177.62C210.874 177.537 211.051 177.44 211.22 177.33C211.579 177.111 211.881 176.809 212.1 176.45C211.853 176.627 211.588 176.778 211.31 176.9C211.057 177.008 210.796 177.098 210.53 177.17C209.99 177.32 209.45 177.29 209.24 176.91C209.132 176.701 209.097 176.461 209.14 176.229C209.184 175.997 209.303 175.786 209.48 175.63C209.859 175.182 210.284 174.777 210.75 174.42C210.133 174.574 209.563 174.876 209.09 175.3Z" fill="#242447"/>
<path d="M204.87 184.84C205.349 184.195 206.064 183.768 206.858 183.65C207.652 183.533 208.46 183.736 209.105 184.215C209.749 184.694 210.177 185.409 210.295 186.203C210.412 186.997 210.209 187.805 209.73 188.45C210.099 188.98 210.307 189.605 210.33 190.25C210.354 191.025 210.115 191.784 209.652 192.406C209.188 193.027 208.528 193.473 207.779 193.671C207.03 193.87 206.236 193.808 205.526 193.498C204.816 193.187 204.232 192.645 203.87 191.96H203.74C203.346 192.016 202.945 191.995 202.559 191.896C202.174 191.798 201.811 191.624 201.493 191.385C201.174 191.147 200.906 190.848 200.703 190.505C200.5 190.163 200.366 189.784 200.31 189.39C200.253 188.996 200.275 188.595 200.374 188.209C200.472 187.824 200.646 187.461 200.885 187.143C201.123 186.824 201.422 186.556 201.765 186.353C202.107 186.15 202.486 186.016 202.88 185.96" fill="white"/>
<path d="M204.87 184.84C207.37 180.98 212.77 185.08 209.87 188.59V188.32C210.161 188.729 210.365 189.193 210.468 189.685C210.572 190.176 210.572 190.683 210.47 191.174C210.368 191.666 210.165 192.131 209.875 192.54C209.584 192.949 209.212 193.294 208.782 193.553C208.352 193.812 207.873 193.978 207.375 194.043C206.877 194.108 206.372 194.069 205.89 193.929C205.408 193.788 204.96 193.55 204.574 193.228C204.189 192.907 203.874 192.509 203.65 192.06L203.88 192.17C199.48 193.04 198.32 186.48 202.88 185.98C198.72 186.62 199.88 192.75 203.98 191.71C204.167 192.122 204.439 192.49 204.778 192.79C205.117 193.089 205.515 193.314 205.947 193.449C206.379 193.583 206.835 193.625 207.284 193.572C207.733 193.518 208.166 193.37 208.554 193.137C208.942 192.905 209.277 192.593 209.536 192.222C209.795 191.851 209.972 191.429 210.057 190.984C210.141 190.54 210.131 190.083 210.026 189.642C209.922 189.202 209.725 188.789 209.45 188.43C212.34 185.24 207.36 181.38 204.87 184.84Z" fill="#242447"/>
<path d="M201.23 184.62C200.509 182.886 199.94 181.093 199.53 179.26C200.26 180.991 200.829 182.785 201.23 184.62Z" fill="#242447"/>
<path d="M203.87 183C202.848 181.604 201.961 180.114 201.22 178.55C202.246 179.944 203.133 181.434 203.87 183Z" fill="#242447"/>
<path d="M203 184.86C202.058 183.213 201.262 181.486 200.62 179.7C201.566 181.345 202.363 183.072 203 184.86Z" fill="#242447"/>
<path d="M171.7 230.16L175.85 208.81C175.85 208.81 183.99 206.27 186.09 199.18C187.72 193.68 187.25 176.05 185.76 171.09C183.23 162.66 179.67 160.67 174.54 160.77C151.75 161.25 120.74 194.77 104.2 220.59L171.7 230.16Z" fill="#68B4ED"/>
<path d="M185.4 173.93C187.78 187.41 188.4 203.36 190.31 221.78C192.47 242.32 192.96 262.78 193.31 267.24C193.79 272.93 164.4 262.82 164.65 258.9C164.81 256.4 165.52 237.22 166.22 219.72C166.92 202.22 171.16 184.14 173.57 172.46C176.39 159 183.65 164 185.4 173.93Z" fill="#CC8F83"/>
<path d="M192.87 258.1C192.87 258.1 193.16 260.1 193.76 269.98C194.17 276.8 190.82 293.69 173.38 301.76C166.7 304.85 161.61 301.52 167.98 297.07C172.47 293.94 175.85 292.16 176.98 290.72C176.98 290.72 168.62 290.2 166.07 286.07C163.837 282.464 161.862 278.705 160.16 274.82C160.799 274.346 161.467 273.912 162.16 273.52C162.16 273.52 160.54 264.42 164.63 258.9L192.87 258.1Z" fill="#CC8F83"/>
<path d="M193.11 276.55C190.92 279.39 186.18 285.33 180.62 288.83C174.43 292.73 161.47 298.56 158.62 293.97C156.54 290.6 161.29 287.97 161.29 287.97C161.29 287.97 155.43 289.25 154.22 285.8C153.12 282.65 156.92 280.8 156.92 280.8C156.92 280.8 153.23 280.97 152.75 277.74C152.18 273.84 160.01 274.13 162.84 269.69C163.5 268.67 193.11 276.55 193.11 276.55Z" fill="#CC8F83"/>
<path d="M177.59 281.61C172.989 285.333 167.362 287.566 161.46 288.01C161.31 288.01 161.22 287.91 161.36 287.87C166.992 286.431 172.429 284.312 177.55 281.56C177.55 281.56 177.62 281.59 177.59 281.61Z" fill="#242447"/>
<path d="M173.48 275.49C171.12 277.28 163.7 280.91 156.99 280.91C156.84 280.91 156.76 280.8 156.9 280.77C162.597 279.621 168.146 277.829 173.44 275.43L173.48 275.49Z" fill="#242447"/>
<path d="M195.09 258L161.84 256.67C161.84 256.67 163.21 225.03 164 214.23C164.79 203.43 171.11 178.32 173.87 169.34C176.63 160.36 182.94 162.48 185.52 172.34C188.1 182.2 190.22 215.69 190.52 216.72C190.82 217.75 195.09 258 195.09 258Z" fill="#68B4ED"/>
<path d="M178.36 251C180.56 251.08 182.77 251.1 184.97 251.12C186.03 251.12 187.09 251.12 188.15 251.12C189.21 251.12 190.46 251.12 191.59 251.05C191.606 251.05 191.621 251.044 191.632 251.032C191.644 251.021 191.65 251.006 191.65 250.99C191.65 250.974 191.644 250.959 191.632 250.948C191.621 250.936 191.606 250.93 191.59 250.93C190.47 250.75 189.3 250.75 188.17 250.65C187.04 250.55 186.05 250.51 185 250.46C182.8 250.34 180.6 250.23 178.39 250.16C173.98 250.03 169.58 250.03 165.17 250.08C165.06 250.08 165.05 250.24 165.17 250.24C169.56 250.56 174 250.83 178.36 251Z" fill="#242447"/>
<path d="M162.9 233.88C163.22 224.88 163.1 215.88 164.39 207C166.014 198.171 168.124 189.437 170.71 180.84C169.13 188.62 166.71 199.45 165.37 207.16C164 216 164 225 162.9 233.88Z" fill="#242447"/>
<path d="M168 191.38C167.736 189.178 167.814 186.948 168.23 184.77C168.499 186.972 168.421 189.202 168 191.38Z" fill="#242447"/>
<path d="M102.76 333.55C102.15 332.99 105.01 324.32 107.35 322.82C109.69 321.32 124.12 321.6 125.73 324.41C127.34 327.22 124.82 335.99 123.73 336.12C122.64 336.25 119.93 335.93 119.41 335.31C118.89 334.69 120.63 329.19 119.85 328.17C118.85 326.84 110.65 326.73 109.85 327.56C109.05 328.39 108.04 333.28 107.85 333.56C107.66 333.84 103.76 334.44 102.76 333.55Z" fill="#3A65AA"/>
<path d="M142.74 413.12C139.52 419.12 128.64 426.77 122.25 427.76C115.86 428.75 73.56 433.6 67 424.6C61 416.41 74 358.86 86.41 340.75C87.3479 339.315 88.471 338.011 89.75 336.87L90.01 336.65C101.6 327.48 124.24 332.92 127.09 333.77C131.51 335.11 137.69 339.08 140.72 347.63C143.75 356.18 146 407.15 142.74 413.12Z" fill="#68B4ED"/>
<path d="M118.82 408.92C118.08 413.16 111.2 423.04 103.26 425.4C95.3201 427.76 67.0001 424.6 60.6901 418.91C59.826 417.855 59.3215 416.552 59.2501 415.19C57.3901 402.38 66.1001 363.84 75.3601 352.27C76.1688 351.164 77.1884 350.23 78.3601 349.52C79.6981 348.8 81.1009 348.207 82.5501 347.75C90.6187 345.37 99.171 345.153 107.35 347.12C112.28 348.39 116.29 350.57 118.08 353.68C122.68 361.56 119.56 404.7 118.82 408.92Z" fill="#3A65AA"/>
<path opacity="0.1" d="M118.82 408.92C118.08 413.16 111.2 423.04 103.26 425.4C95.32 427.76 67 424.6 60.69 418.91C59.826 417.855 59.3214 416.552 59.25 415.19C64.2681 418.24 69.9134 420.11 75.76 420.66C79.9949 421.115 84.2624 421.185 88.51 420.87C92.72 420.57 97.04 419.76 100.51 417.19C107.13 412.33 109.57 402.89 110.62 394.97C111.75 386.33 111.35 377.42 110.78 368.75C110.404 361.439 109.254 354.189 107.35 347.12C112.28 348.39 116.29 350.57 118.08 353.68C122.68 361.56 119.56 404.7 118.82 408.92Z" fill="black"/>
<path d="M113.82 391.79L111.89 391.65C112.55 382.71 113.31 358.5 108.98 353.73C104.65 348.96 87.9001 348.06 80.8701 350.13C78.9731 350.677 77.1291 351.393 75.3601 352.27C76.1714 351.166 77.1905 350.232 78.3601 349.52C79.6981 348.8 81.101 348.207 82.5501 347.75C91.0701 346.22 106 347.59 110.39 352.43C116.19 358.8 113.92 390.45 113.82 391.79Z" fill="#242447"/>
<path d="M136.77 384.55H134.84C134.2 348.55 132.53 347.22 125.47 341.55L125.23 341.35C118.35 335.82 101.88 336.23 95.4102 337.27C92.2048 337.8 89.142 338.981 86.4102 340.74C87.3481 339.305 88.4711 338.001 89.7502 336.86C91.4912 336.168 93.3016 335.665 95.1502 335.36C99.6802 334.63 118.3 333.25 126.48 339.85L126.73 340.04C134.13 346 136.13 347.66 136.77 384.55Z" fill="#242447"/>
<path d="M147.93 412.14C146.79 416.81 135.67 426 130.24 427.9C129.14 428.3 119.98 430.01 119.62 426.32C119.62 426.08 119.6 425.83 119.56 425.57C118.94 415.93 123.27 395.11 124.28 392.32C125.47 389.02 135.9 382.91 142.07 381.72C143.159 381.441 144.301 381.441 145.39 381.72C149.88 383.33 148.64 409.17 147.93 412.14Z" fill="#313361"/>
</g>
<path d="M207.811 38.384C206.083 38.384 204.595 38.024 203.347 37.304C202.115 36.584 201.163 35.56 200.491 34.232C199.835 32.904 199.507 31.328 199.507 29.504C199.507 27.68 199.835 26.104 200.491 24.776C201.163 23.432 202.115 22.4 203.347 21.68C204.595 20.944 206.083 20.576 207.811 20.576C209.539 20.576 211.019 20.944 212.251 21.68C213.499 22.4 214.451 23.432 215.107 24.776C215.779 26.104 216.115 27.68 216.115 29.504C216.115 31.328 215.779 32.904 215.107 34.232C214.451 35.56 213.499 36.584 212.251 37.304C211.019 38.024 209.539 38.384 207.811 38.384ZM207.787 35.312C208.747 35.312 209.563 35.088 210.235 34.64C210.923 34.176 211.443 33.512 211.795 32.648C212.163 31.784 212.347 30.736 212.347 29.504C212.347 28.272 212.163 27.224 211.795 26.36C211.443 25.48 210.923 24.808 210.235 24.344C209.563 23.88 208.747 23.648 207.787 23.648C206.843 23.648 206.035 23.88 205.363 24.344C204.691 24.808 204.171 25.48 203.803 26.36C203.451 27.224 203.275 28.272 203.275 29.504C203.275 30.736 203.451 31.784 203.803 32.648C204.171 33.512 204.691 34.176 205.363 34.64C206.051 35.088 206.859 35.312 207.787 35.312ZM226.924 38.384C225.196 38.384 223.708 38.024 222.46 37.304C221.228 36.584 220.276 35.56 219.604 34.232C218.948 32.904 218.62 31.328 218.62 29.504C218.62 27.68 218.948 26.104 219.604 24.776C220.276 23.432 221.228 22.4 222.46 21.68C223.708 20.944 225.196 20.576 226.924 20.576C228.652 20.576 230.132 20.944 231.364 21.68C232.612 22.4 233.564 23.432 234.22 24.776C234.892 26.104 235.228 27.68 235.228 29.504C235.228 31.328 234.892 32.904 234.22 34.232C233.564 35.56 232.612 36.584 231.364 37.304C230.132 38.024 228.652 38.384 226.924 38.384ZM226.9 35.312C227.86 35.312 228.676 35.088 229.348 34.64C230.036 34.176 230.556 33.512 230.908 32.648C231.276 31.784 231.46 30.736 231.46 29.504C231.46 28.272 231.276 27.224 230.908 26.36C230.556 25.48 230.036 24.808 229.348 24.344C228.676 23.88 227.86 23.648 226.9 23.648C225.956 23.648 225.148 23.88 224.476 24.344C223.804 24.808 223.284 25.48 222.916 26.36C222.564 27.224 222.388 28.272 222.388 29.504C222.388 30.736 222.564 31.784 222.916 32.648C223.284 33.512 223.804 34.176 224.476 34.64C225.164 35.088 225.972 35.312 226.9 35.312ZM238.126 38V20.96H244.942C246.99 20.96 248.59 21.456 249.742 22.448C250.91 23.44 251.494 24.8 251.494 26.528C251.494 27.664 251.23 28.656 250.702 29.504C250.19 30.336 249.438 30.984 248.446 31.448C247.47 31.896 246.302 32.12 244.942 32.12H241.774V38H238.126ZM241.774 29.048H244.726C245.686 29.048 246.43 28.84 246.958 28.424C247.486 27.992 247.75 27.36 247.75 26.528C247.75 25.712 247.486 25.096 246.958 24.68C246.446 24.248 245.702 24.032 244.726 24.032H241.774V29.048ZM261.1 38.384C259.628 38.384 258.364 38.136 257.308 37.64C256.252 37.144 255.428 36.448 254.836 35.552C254.244 34.656 253.908 33.6 253.828 32.384L257.5 32.216C257.596 32.888 257.788 33.464 258.076 33.944C258.38 34.408 258.78 34.76 259.276 35C259.788 35.24 260.412 35.36 261.148 35.36C261.756 35.36 262.268 35.288 262.684 35.144C263.116 35 263.444 34.784 263.668 34.496C263.892 34.192 264.004 33.824 264.004 33.392C264.004 32.992 263.908 32.648 263.716 32.36C263.524 32.056 263.156 31.784 262.612 31.544C262.068 31.288 261.268 31.04 260.212 30.8C258.756 30.464 257.58 30.088 256.684 29.672C255.804 29.256 255.164 28.736 254.764 28.112C254.364 27.472 254.164 26.672 254.164 25.712C254.164 24.688 254.412 23.792 254.908 23.024C255.42 22.256 256.156 21.656 257.116 21.224C258.076 20.792 259.22 20.576 260.548 20.576C261.956 20.576 263.148 20.824 264.124 21.32C265.1 21.816 265.86 22.496 266.404 23.36C266.964 24.224 267.3 25.216 267.412 26.336L263.764 26.528C263.716 25.936 263.556 25.424 263.284 24.992C263.012 24.544 262.644 24.2 262.18 23.96C261.716 23.72 261.156 23.6 260.5 23.6C259.668 23.6 259.012 23.784 258.532 24.152C258.068 24.52 257.836 25 257.836 25.592C257.836 26.008 257.94 26.36 258.148 26.648C258.372 26.92 258.732 27.16 259.228 27.368C259.74 27.576 260.46 27.776 261.388 27.968C262.972 28.288 264.22 28.696 265.132 29.192C266.06 29.672 266.716 30.248 267.1 30.92C267.484 31.592 267.676 32.36 267.676 33.224C267.676 34.28 267.404 35.2 266.86 35.984C266.332 36.752 265.572 37.344 264.58 37.76C263.604 38.176 262.444 38.384 261.1 38.384ZM277.257 32.552C277.177 32.008 277.089 31.352 276.993 30.584C276.897 29.816 276.817 29.04 276.753 28.256C276.689 27.456 276.657 26.736 276.657 26.096V20.96H280.281V26.096C280.281 26.736 280.249 27.456 280.185 28.256C280.121 29.04 280.041 29.816 279.945 30.584C279.865 31.352 279.785 32.008 279.705 32.552H277.257ZM276.465 38V34.328H280.377V38H276.465Z" fill="white"/>
<defs>
<clipPath id="clip0_821_2385">
<rect width="361.78" height="342.95" fill="white" transform="translate(59 87)"/>
</clipPath>
</defs>
</svg>
