<svg width="502" height="357" viewBox="0 0 502 357" fill="none" xmlns="http://www.w3.org/2000/svg">
<path d="M365.463 84.7897C368.11 81.7827 370.392 78.4737 372.263 74.9314C374.14 71.3865 375.598 67.6351 376.606 63.753L366.305 60.1137C367.115 56.6074 367.45 53.0084 367.304 49.4129L378.057 47.7366C377.531 39.7223 375.133 31.9431 371.056 25.0235L361.207 29.7137C359.307 26.6598 357.005 23.8756 354.362 21.4363L360.79 12.6464C354.747 7.33634 347.536 3.52722 339.744 1.52868L336.105 11.7691C332.598 10.9618 328.999 10.6288 325.404 10.7789L323.728 0C315.703 0.534243 307.916 2.94077 300.989 7.02672L305.688 16.8763C302.632 18.7735 299.848 21.0759 297.41 23.7206L288.594 17.2932C285.952 20.307 283.67 23.6183 281.793 27.1602C279.911 30.7026 278.454 34.4547 277.451 38.3386L287.717 41.9779C286.906 45.4809 286.573 49.0776 286.727 52.67L276 54.3464C276.526 62.3712 278.93 70.1602 283.018 77.0855L292.868 72.3952C294.767 75.4489 297.07 78.233 299.712 80.6727L293.285 89.4713C296.3 92.1045 299.611 94.378 303.151 96.2461C306.694 98.1282 310.446 99.5858 314.33 100.589L317.969 90.3225C321.475 91.1329 325.075 91.466 328.67 91.3127L330.346 102.092C338.37 101.56 346.158 99.1568 353.085 95.0736L348.395 85.224C351.447 83.3213 354.228 81.0163 356.664 78.371L365.463 84.7897ZM315.103 73.6633C310.634 71.3044 306.965 67.6733 304.559 63.2293C302.154 58.7853 301.12 53.7279 301.588 48.6963C302.057 43.6648 304.007 38.8851 307.191 34.9616C310.376 31.038 314.652 28.1468 319.48 26.6533C324.307 25.1599 329.469 25.1313 334.313 26.5713C339.157 28.0112 343.465 30.855 346.693 34.743C349.921 38.6311 351.923 43.3889 352.447 48.415C352.971 53.441 351.993 58.5096 349.637 62.9799C348.073 65.9505 345.938 68.5836 343.355 70.7286C340.772 72.8735 337.792 74.4883 334.585 75.4805C331.377 76.4727 328.006 76.823 324.663 76.5111C321.32 76.1993 318.072 75.2316 315.103 73.6633ZM318.577 67.123C315.403 65.4453 312.798 62.8642 311.091 59.7061C309.384 56.548 308.652 52.9547 308.987 49.3805C309.322 45.8062 310.709 42.4115 312.973 39.6256C315.237 36.8396 318.277 34.7875 321.707 33.7287C325.137 32.6699 328.804 32.6519 332.245 33.677C335.685 34.7021 338.744 36.7243 341.036 39.4879C343.327 42.2515 344.747 45.6325 345.117 49.2033C345.487 52.7741 344.79 56.3744 343.114 59.5491C341.999 61.658 340.478 63.5264 338.64 65.0473C336.802 66.5682 334.682 67.7119 332.402 68.4129C330.121 69.1139 327.725 69.3585 325.35 69.1327C322.975 68.9069 320.667 68.2151 318.56 67.097L318.577 67.123Z" fill="#E4E9F9" fill-opacity="0.34"/>
<path d="M170.022 110.714C171.468 108.698 172.669 106.517 173.601 104.217C174.534 101.919 175.196 99.5204 175.572 97.069L169.023 95.4534C169.306 93.2464 169.288 91.0112 168.971 88.8089L175.512 87.0718C174.686 82.1611 172.723 77.5119 169.779 73.496L164.003 76.9703C162.644 75.203 161.052 73.6281 159.269 72.2887L162.691 66.478C160.674 65.0583 158.5 63.8751 156.212 62.9516C153.907 62.0109 151.499 61.3462 149.038 60.9713L147.431 67.5203C145.221 67.2376 142.983 67.2552 140.777 67.5724L139.084 61.0321C134.172 61.8516 129.521 63.8154 125.508 66.7646L128.982 72.5406C127.222 73.9014 125.651 75.4903 124.309 77.2656L118.49 73.8521C115.595 77.902 113.693 82.5764 112.94 87.4973L119.498 89.1129C119.212 91.3225 119.227 93.5605 119.541 95.7661L113.009 97.5033C113.828 102.414 115.788 107.065 118.733 111.079L124.509 107.605C125.886 109.35 127.493 110.902 129.286 112.217L125.812 118.045C129.859 120.952 134.539 122.854 139.466 123.595L141.073 117.046C143.283 117.329 145.521 117.311 147.726 116.994L149.463 123.534C154.376 122.712 159.028 120.752 163.048 117.81L159.573 112.026C161.338 110.67 162.91 109.08 164.246 107.301L170.022 110.714ZM138.302 106.953C135.403 105.773 132.918 103.76 131.163 101.168C129.408 98.5763 128.461 95.522 128.442 92.3917C128.423 89.2615 129.332 86.1959 131.056 83.5827C132.779 80.9695 135.239 78.926 138.123 77.7109C141.008 76.4957 144.189 76.1633 147.262 76.7559C150.336 77.3484 153.165 78.8392 155.391 81.0397C157.618 83.2402 159.142 86.0515 159.77 89.1181C160.398 92.1847 160.103 95.3688 158.922 98.2676C157.338 102.153 154.277 105.251 150.41 106.879C146.543 108.508 142.188 108.535 138.302 106.953ZM140.039 102.706C137.981 101.867 136.218 100.437 134.972 98.5966C133.726 96.7559 133.054 94.5872 133.041 92.3647C133.028 90.1422 133.674 87.9656 134.897 86.1102C136.121 84.2548 137.867 82.8037 139.915 81.9406C141.963 81.0774 144.221 80.8408 146.404 81.2607C148.586 81.6807 150.595 82.7382 152.177 84.2998C153.758 85.8613 154.841 87.8567 155.289 90.0337C155.737 92.2107 155.529 94.4716 154.692 96.5305C154.136 97.8995 153.315 99.1454 152.277 100.197C151.239 101.248 150.004 102.085 148.642 102.659C147.28 103.232 145.819 103.532 144.341 103.54C142.863 103.548 141.399 103.265 140.03 102.706H140.039Z" fill="#E4E9F9" fill-opacity="0.37"/>
<path d="M196.027 50.479C197.172 49.1742 198.16 47.74 198.972 46.2056C199.786 44.6709 200.413 43.0437 200.839 41.359L196.392 39.7869C196.744 38.2674 196.887 36.7069 196.818 35.1487L201.491 34.4191C201.263 30.9403 200.222 27.5636 198.451 24.5609L194.177 26.602C193.357 25.2773 192.361 24.0704 191.215 23.0148L193.995 19.2018C192.692 18.0519 191.258 17.0606 189.721 16.2487C188.184 15.4382 186.557 14.8087 184.875 14.3726L183.303 18.8196C181.783 18.4717 180.223 18.3285 178.665 18.394L177.926 13.7211C174.448 13.9527 171.072 14.9937 168.068 16.7611L170.109 21.0171C168.787 21.8444 167.581 22.8433 166.522 23.9876L162.709 21.1995C160.408 23.8175 158.759 26.9425 157.897 30.3195L162.344 31.9003C161.991 33.4197 161.848 34.9802 161.919 36.5384L157.246 37.2594C157.472 40.7384 158.513 44.1154 160.286 47.1176L164.559 45.0852C165.372 46.4147 166.363 47.6273 167.503 48.6897L164.715 52.5027C167.336 54.802 170.46 56.4533 173.835 57.3233L175.416 52.8675C176.933 53.2183 178.49 53.3643 180.046 53.3018L180.775 57.966C184.266 57.7333 187.653 56.6799 190.659 54.8913L188.627 50.6266C189.948 49.7989 191.155 48.8 192.214 47.6561L196.027 50.479ZM175.642 42.8964C174.248 42.1593 173.104 41.0255 172.354 39.6383C171.605 38.2511 171.283 36.6728 171.431 35.103C171.578 33.5332 172.187 32.0422 173.182 30.8187C174.176 29.5951 175.511 28.6939 177.018 28.2289C178.525 27.764 180.135 27.7561 181.646 28.2064C183.157 28.6567 184.501 29.5448 185.507 30.7586C186.514 31.9724 187.138 33.4573 187.3 35.0257C187.463 36.594 187.157 38.1753 186.421 39.5697C185.432 41.4392 183.741 42.8395 181.72 43.4633C179.699 44.087 177.513 43.8831 175.642 42.8964Z" fill="#E4E9F9" fill-opacity="0.65"/>
<path d="M324.41 41.6283H171.968C167.492 41.6283 163.864 45.2565 163.864 49.732V336.768C163.864 341.244 167.492 344.872 171.968 344.872H324.41C328.886 344.872 332.514 341.244 332.514 336.768V49.732C332.514 45.2565 328.886 41.6283 324.41 41.6283Z" fill="#7AB4FF"/>
<path d="M324.41 42.0625C326.443 42.0671 328.391 42.8766 329.829 44.3139C331.266 45.7513 332.075 47.6993 332.08 49.732V336.768C332.078 338.801 331.269 340.751 329.831 342.189C328.393 343.626 326.444 344.435 324.41 344.437H171.968C169.935 344.435 167.985 343.626 166.547 342.189C165.11 340.751 164.301 338.801 164.299 336.768V49.732C164.301 47.6986 165.11 45.7492 166.547 44.3114C167.985 42.8736 169.935 42.0648 171.968 42.0625H324.41ZM324.41 41.194H171.968C169.704 41.194 167.532 42.0935 165.931 43.6947C164.329 45.2959 163.43 47.4676 163.43 49.732V336.768C163.43 339.032 164.329 341.204 165.931 342.805C167.532 344.406 169.704 345.306 171.968 345.306H324.41C326.675 345.306 328.847 344.406 330.448 342.805C332.049 341.204 332.949 339.032 332.949 336.768V49.732C332.949 47.4676 332.049 45.2959 330.448 43.6947C328.847 42.0935 326.675 41.194 324.41 41.194Z" fill="#849CF4"/>
<path d="M255.933 331.357C255.934 332.889 255.481 334.388 254.631 335.663C253.781 336.939 252.571 337.933 251.156 338.521C249.74 339.109 248.182 339.263 246.679 338.965C245.175 338.667 243.794 337.93 242.71 336.847C241.625 335.764 240.886 334.383 240.587 332.88C240.287 331.377 240.44 329.819 241.026 328.403C241.612 326.986 242.605 325.776 243.88 324.924C245.154 324.072 246.652 323.618 248.185 323.618C250.238 323.618 252.208 324.433 253.66 325.884C255.113 327.335 255.93 329.303 255.933 331.357Z" stroke="#388BFF" stroke-width="1.01018" stroke-miterlimit="10"/>
<mask id="mask0_428_1579" style="mask-type:luminance" maskUnits="userSpaceOnUse" x="163" y="41" width="170" height="305">
<path d="M324.41 41.194H171.968C167.253 41.194 163.43 45.0166 163.43 49.732V336.768C163.43 341.483 167.253 345.306 171.968 345.306H324.41C329.126 345.306 332.949 341.483 332.949 336.768V49.732C332.949 45.0166 329.126 41.194 324.41 41.194Z" fill="white"/>
</mask>
<g mask="url(#mask0_428_1579)">
<path d="M288.339 8.24908L161.484 352.975H198.364L325.21 8.24908H288.339Z" fill="url(#paint0_linear_428_1579)"/>
<path d="M336.614 8.24908L209.759 352.975H225.394L352.248 8.24908H336.614Z" fill="url(#paint1_linear_428_1579)"/>
</g>
<path d="M331.593 69.5181H164.785V316.982H331.593V69.5181Z" fill="#38414A"/>
<path d="M238.657 53.8143H262.108C262.357 53.8143 262.595 53.9131 262.771 54.089C262.947 54.2649 263.046 54.5035 263.046 54.7523C263.049 54.991 262.961 55.2218 262.799 55.3977C262.638 55.5736 262.415 55.6814 262.177 55.6991H238.726C238.475 55.6991 238.234 55.5993 238.057 55.4218C237.879 55.2442 237.779 55.0034 237.779 54.7523C237.779 54.5137 237.869 54.2839 238.032 54.1096C238.195 53.9353 238.418 53.8297 238.657 53.8143Z" stroke="#388BFF" stroke-width="1.01018" stroke-miterlimit="10"/>
<path d="M233.393 55.7251C233.93 55.7251 234.366 55.2896 234.366 54.7523C234.366 54.2151 233.93 53.7795 233.393 53.7795C232.856 53.7795 232.42 54.2151 232.42 54.7523C232.42 55.2896 232.856 55.7251 233.393 55.7251Z" stroke="#388BFF" stroke-width="1.01018" stroke-miterlimit="10"/>
<path d="M248.185 165.356H176.18V238.125H248.185V165.356Z" fill="#388BFF"/>
<path d="M227.642 193.111C228.959 184.962 223.42 177.288 215.271 175.971C207.122 174.653 199.448 180.192 198.131 188.341C196.814 196.491 202.352 204.165 210.501 205.482C218.651 206.799 226.325 201.26 227.642 193.111Z" stroke="white" stroke-width="1.01306" stroke-miterlimit="10"/>
<path d="M212.183 206.187C217.853 206.187 222.449 199.514 222.449 191.283C222.449 183.051 217.853 176.378 212.183 176.378C206.512 176.378 201.916 183.051 201.916 191.283C201.916 199.514 206.512 206.187 212.183 206.187Z" stroke="white" stroke-width="1.01018" stroke-miterlimit="10"/>
<path d="M212.182 206.187C214.394 206.187 216.186 199.514 216.186 191.283C216.186 183.051 214.394 176.378 212.182 176.378C209.971 176.378 208.178 183.051 208.178 191.283C208.178 199.514 209.971 206.187 212.182 206.187Z" stroke="white" stroke-width="1.01018" stroke-miterlimit="10"/>
<path d="M197.278 191.283H227.096" stroke="white" stroke-width="1.01018" stroke-miterlimit="10"/>
<path d="M198.841 197.927C201.69 196.972 206.598 196.346 212.183 196.346C217.767 196.346 222.675 196.972 225.532 197.927" stroke="white" stroke-width="1.01018" stroke-miterlimit="10"/>
<path d="M203.167 203.147C208.968 201.101 215.292 201.086 221.102 203.104" stroke="white" stroke-width="1.01018" stroke-miterlimit="10"/>
<path d="M198.841 184.716C201.69 185.663 206.598 186.297 212.183 186.297C217.767 186.297 222.675 185.663 225.532 184.716" stroke="white" stroke-width="1.01018" stroke-miterlimit="10"/>
<path d="M203.167 179.488C208.968 181.534 215.292 181.549 221.102 179.531" stroke="white" stroke-width="1.01018" stroke-miterlimit="10"/>
<path d="M182.304 225.105H242.061V221.257H182.304V225.105Z" fill="#E3EAFC"/>
<path d="M206.346 217.948H242.061V214.1H206.346V217.948Z" fill="#E3EAFC"/>
<path d="M202.289 214.109H182.304V217.956H202.289V214.109Z" fill="#E3EAFC"/>
<path d="M182.304 232.271H242.061V228.423H182.304V232.271Z" fill="#E3EAFC"/>
<path d="M320.12 165.356H248.115V238.125H320.12V165.356Z" fill="#F0F1FF" fill-opacity="0.24"/>
<path d="M254.239 182.171H313.996V178.324H254.239V182.171Z" fill="white" fill-opacity="0.58"/>
<path d="M254.239 189.328H313.996V185.481H254.239V189.328Z" fill="white" fill-opacity="0.58"/>
<path d="M254.239 196.485H272.844V192.638H254.239V196.485Z" fill="white" fill-opacity="0.58"/>
<path d="M277.829 196.485H313.918V192.638H277.829V196.485Z" fill="white" fill-opacity="0.58"/>
<path d="M254.239 203.642H313.996V199.795H254.239V203.642Z" fill="white" fill-opacity="0.58"/>
<path d="M254.239 210.791H313.996V206.943H254.239V210.791Z" fill="white" fill-opacity="0.58"/>
<path d="M254.239 217.948H313.996V214.1H254.239V217.948Z" fill="white" fill-opacity="0.58"/>
<path d="M296.738 225.105H313.996V221.257H296.738V225.105Z" fill="white" fill-opacity="0.58"/>
<path d="M254.239 225.105H292.621V221.257H254.239V225.105Z" fill="white" fill-opacity="0.58"/>
<path d="M254.239 232.271H313.996V228.423H254.239V232.271Z" fill="white" fill-opacity="0.58"/>
<path d="M298.171 175.015H313.996V171.167H298.171V175.015Z" fill="white" fill-opacity="0.58"/>
<path d="M286.876 151H247V154.848H286.876V151Z" fill="white" fill-opacity="0.58"/>
<path d="M248.185 238.116H176.18V310.885H248.185V238.116Z" fill="#F0F1FF" fill-opacity="0.24"/>
<path d="M242.061 294.043H182.304V297.891H242.061V294.043Z" fill="white" fill-opacity="0.58"/>
<path d="M242.061 286.886H182.304V290.734H242.061V286.886Z" fill="white" fill-opacity="0.58"/>
<path d="M242.061 279.729H226.696V283.577H242.061V279.729Z" fill="white" fill-opacity="0.58"/>
<path d="M221.719 279.729H182.39V283.577H221.719V279.729Z" fill="white" fill-opacity="0.58"/>
<path d="M242.061 272.581H182.304V276.428H242.061V272.581Z" fill="white" fill-opacity="0.58"/>
<path d="M242.061 265.424H182.304V269.272H242.061V265.424Z" fill="white" fill-opacity="0.58"/>
<path d="M242.061 258.267H182.304V262.114H242.061V258.267Z" fill="white" fill-opacity="0.58"/>
<path d="M210.072 251.11H182.304V254.957H210.072V251.11Z" fill="white" fill-opacity="0.58"/>
<path d="M242.061 251.11H214.189V254.957H242.061V251.11Z" fill="white" fill-opacity="0.58"/>
<path d="M242.061 243.953H182.304V247.8H242.061V243.953Z" fill="white" fill-opacity="0.58"/>
<path d="M210.15 301.2H182.304V305.048H210.15V301.2Z" fill="white" fill-opacity="0.58"/>
<path d="M214.215 305.057H242.061V301.209H214.215V305.057Z" fill="white" fill-opacity="0.58"/>
<path d="M320.12 238.116H248.115V310.885H320.12V238.116Z" fill="#388BFF"/>
<path d="M298.761 288.198L269.881 287.859L266.642 267.1L301.549 267.039L298.761 288.198Z" fill="#C2CFEF"/>
<path d="M301.549 267.039L266.642 267.1L284.074 252.717L301.549 267.039Z" fill="#C2CFEF"/>
<path d="M295.745 264.995L271.92 265.037L271.955 285.162L295.78 285.12L295.745 264.995Z" fill="white"/>
<path d="M266.642 267.1L266.685 289.796L284.117 279.217L266.642 267.1Z" fill="#E3EAFC"/>
<path d="M301.55 267.039L301.593 289.735L284.118 279.217L301.55 267.039Z" fill="#E3EAFC"/>
<path d="M301.593 289.735L266.685 289.796L284.109 275.412L301.593 289.735Z" fill="#E3EAFC"/>
<path d="M266.685 289.796L284.109 275.412L301.593 289.735" stroke="#D3DBF4" stroke-width="1.01018" stroke-miterlimit="10"/>
<path d="M286.619 277.471L301.549 267.039" stroke="#D3DBF4" stroke-width="1.01018" stroke-miterlimit="10"/>
<path d="M281.616 277.479L266.642 267.1" stroke="#D3DBF4" stroke-width="1.01018" stroke-miterlimit="10"/>
<path d="M270.194 302.321H298.041V298.473H270.194V302.321Z" fill="#E3EAFC"/>
<path d="M320.198 86.2988H176.18V158.902H320.198V86.2988Z" fill="#D3DBF4" fill-opacity="0.37"/>
<path d="M246.165 101.759L314 101.759V96.7389L246.165 96.7389V101.759Z" fill="white" fill-opacity="0.58"/>
<path d="M246.165 111.105L314 111.105V106.085L246.165 106.085V111.105Z" fill="white" fill-opacity="0.58"/>
<path d="M246.165 120.442L314 120.442V115.422L246.165 115.422V120.442Z" fill="white" fill-opacity="0.58"/>
<path d="M246.165 129.779H314V124.759L246.165 124.759V129.779Z" fill="white" fill-opacity="0.58"/>
<path d="M246.165 147H314V141.98H246.165V147Z" fill="white" fill-opacity="0.58"/>
<path d="M272.455 138H313V132.98H272.455V138Z" fill="white" fill-opacity="0.58"/>
<path d="M269.687 133H247V138.02H269.687V133Z" fill="white" fill-opacity="0.58"/>
<path d="M235.747 96.9388H184.432V148.254H235.747V96.9388Z" fill="#388BFF"/>
<path d="M214.849 112.981L230.466 139.69H199.232L214.849 112.981Z" fill="white"/>
<path d="M199.024 121.762L202.359 128.181L196.383 139.69H189.721L199.024 121.762Z" fill="white"/>
<path d="M191.033 111.435C191.033 112.007 191.202 112.566 191.52 113.042C191.838 113.518 192.29 113.888 192.818 114.107C193.347 114.326 193.928 114.384 194.489 114.272C195.05 114.16 195.566 113.885 195.97 113.48C196.375 113.076 196.65 112.561 196.762 111.999C196.873 111.438 196.816 110.857 196.597 110.328C196.378 109.8 196.008 109.348 195.532 109.03C195.056 108.712 194.497 108.543 193.925 108.543C193.158 108.543 192.422 108.848 191.88 109.39C191.337 109.932 191.033 110.668 191.033 111.435Z" fill="white"/>
<path d="M207.57 80.3578H288.808C289.42 80.3555 290.006 80.1113 290.439 79.6786C290.872 79.2458 291.116 78.6594 291.118 78.0474C291.116 77.4353 290.872 76.849 290.439 76.4162C290.006 75.9834 289.42 75.7393 288.808 75.737H207.57C207.267 75.737 206.967 75.7968 206.686 75.9129C206.406 76.029 206.151 76.1992 205.937 76.4137C205.722 76.6282 205.552 76.8829 205.436 77.1632C205.32 77.4436 205.26 77.744 205.26 78.0474C205.26 78.3508 205.32 78.6512 205.436 78.9315C205.552 79.2119 205.722 79.4665 205.937 79.6811C206.151 79.8956 206.406 80.0658 206.686 80.1819C206.967 80.298 207.267 80.3578 207.57 80.3578Z" fill="#D3DBF4" fill-opacity="0.5"/>
<path d="M248.185 165.356V310.885" stroke="#2C2A2A" stroke-width="1.01018" stroke-miterlimit="10"/>
<path d="M176.18 238.116H320.198" stroke="#2C2A2A" stroke-width="1.01018" stroke-miterlimit="10"/>
<path d="M433.377 319.965L434.88 344.754L434.072 352.571L404.541 352.415C404.363 352.414 404.187 352.377 404.023 352.308C403.859 352.239 403.71 352.138 403.585 352.012C403.46 351.885 403.361 351.735 403.294 351.57C403.227 351.405 403.193 351.229 403.194 351.051C403.195 350.779 403.278 350.513 403.433 350.29C403.588 350.067 403.808 349.896 404.063 349.8L417.248 343.72L414.277 317.924" fill="#FFCBBD"/>
<path d="M401.796 352.067C402.108 351.086 402.664 349.991 403.255 349.739L417.239 343.72C424.943 346.838 434.914 344.45 434.914 344.45L435.679 354.977C435.68 355.06 435.664 355.143 435.633 355.22C435.601 355.297 435.554 355.366 435.495 355.425C435.436 355.483 435.365 355.529 435.288 355.56C435.211 355.59 435.128 355.605 435.045 355.602L402.039 355.429C401.344 355.429 401.787 352.093 401.796 352.067Z" fill="#4A82BD"/>
<path d="M414.217 344.32C414.997 345.344 415.659 346.455 416.188 347.629" stroke="#38628E" stroke-width="1.01018" stroke-miterlimit="10"/>
<path d="M412.453 345.371C413.095 346.245 413.637 347.189 414.068 348.185" stroke="#38628E" stroke-width="1.01018" stroke-miterlimit="10"/>
<path d="M410.968 346.144C411.534 346.976 412.042 347.847 412.488 348.749" stroke="#38628E" stroke-width="1.01018" stroke-miterlimit="10"/>
<path d="M435.505 353.335L401.648 353.153" stroke="#38628E" stroke-width="1.01018" stroke-miterlimit="10"/>
<path d="M435.201 348.298C435.201 348.298 427.384 348.35 426.654 353.292" stroke="#38628E" stroke-width="1.01018" stroke-miterlimit="10"/>
<path d="M406.121 348.506C407.181 349.973 408.089 351.545 408.831 353.196" stroke="#38628E" stroke-width="1.01018" stroke-miterlimit="10"/>
<path d="M410.108 224.7C410.108 224.7 405.861 259.582 407.503 284.918C409.144 310.254 411.472 339.638 411.472 339.638H437.164C437.164 339.638 433.838 296.131 434.202 275.763C434.611 253.181 441.507 224.683 441.507 224.683" fill="#145ABB"/>
<path d="M431.935 339.655C431.935 339.655 428.609 296.149 428.974 275.781C429.382 253.198 436.278 224.7 436.278 224.7" stroke="#121649" stroke-width="0.757636" stroke-miterlimit="10"/>
<path d="M467.086 286.76L490.911 294.429L498.103 297.556L489.009 325.68C488.955 325.853 488.867 326.014 488.749 326.152C488.632 326.29 488.488 326.403 488.325 326.485C488.163 326.566 487.986 326.613 487.805 326.624C487.624 326.635 487.443 326.61 487.272 326.549C487.012 326.464 486.784 326.303 486.618 326.086C486.452 325.868 486.356 325.606 486.342 325.333L484.623 310.932L459.877 302.898" fill="#FFCBBD"/>
<path d="M487.888 328.138C487.02 327.539 486.151 326.662 486.151 326.036L484.623 310.888C489.93 304.487 490.703 294.264 490.703 294.264L500.969 296.713C501.048 296.739 501.122 296.78 501.185 296.834C501.248 296.888 501.299 296.954 501.337 297.029C501.374 297.103 501.396 297.184 501.401 297.267C501.407 297.35 501.396 297.434 501.369 297.512L491.215 328.929C490.954 329.58 487.914 328.19 487.888 328.138Z" fill="#4A82BD"/>
<path d="M484.258 313.954C485.472 313.523 486.73 313.232 488.01 313.086" stroke="#38628E" stroke-width="1.01018" stroke-miterlimit="10"/>
<path d="M484.727 315.952C485.757 315.602 486.823 315.369 487.906 315.257" stroke="#38628E" stroke-width="1.01018" stroke-miterlimit="10"/>
<path d="M485.013 317.602C485.969 317.31 486.944 317.086 487.932 316.934" stroke="#38628E" stroke-width="1.01018" stroke-miterlimit="10"/>
<path d="M499.292 296.392L488.878 328.598" stroke="#38628E" stroke-width="1.01018" stroke-miterlimit="10"/>
<path d="M494.403 295.185C494.403 295.185 492.084 302.672 496.574 304.834" stroke="#38628E" stroke-width="1.01018" stroke-miterlimit="10"/>
<path d="M485.803 322.927C485.803 322.927 489.547 321.745 491.093 321.772" stroke="#38628E" stroke-width="1.01018" stroke-miterlimit="10"/>
<path d="M451.938 225.821C451.938 225.821 454.223 235.74 454.223 239.996C454.223 243.123 452.981 245.207 452.32 247.535C452.042 248.511 451.879 249.517 451.834 250.532C451.634 255.092 451.365 267.903 454.223 273.983C457.74 281.461 486.959 291.354 486.959 291.354L479.55 313.668C479.55 313.668 434.819 302.429 429.243 288.74C421.425 269.631 423.684 225.795 423.684 225.795" fill="#145ABB"/>
<path d="M434.654 295.185C432.048 293.144 430.155 290.998 429.26 288.792C421.443 269.683 423.701 225.847 423.701 225.847" stroke="#121649" stroke-width="0.757636" stroke-miterlimit="10"/>
<path d="M448.143 224.996C448.143 224.996 450.748 237.477 450.748 241.733C450.748 244.912 449.463 247.161 448.811 249.402C448.553 250.306 448.392 251.235 448.334 252.173C448.056 256.681 447.561 269.744 450.748 275.72C455.178 284.006 485.786 294.915 485.786 294.915" stroke="#121649" stroke-width="0.757636" stroke-miterlimit="10"/>
<path d="M420.053 228.305C420.053 228.305 419.662 237.312 420.922 238.389C421.7 239.057 422.531 239.661 423.406 240.196" stroke="#121649" stroke-width="0.757636" stroke-miterlimit="10"/>
<path d="M483.294 290.069L475.138 312.495" stroke="#121649" stroke-width="0.757636" stroke-miterlimit="10"/>
<path d="M411.107 335.234H436.825" stroke="#121649" stroke-width="0.757636" stroke-miterlimit="10"/>
<path d="M441.098 226.516C441.098 226.516 442.697 232.257 449.836 233.951" stroke="#121649" stroke-width="0.757636" stroke-miterlimit="10"/>
<path d="M409.283 232.952C409.283 232.952 415.728 231.067 417.708 226.516" stroke="#121649" stroke-width="0.757636" stroke-miterlimit="10"/>
<path d="M424.83 156.935L423.675 165.012C423.675 165.012 423.571 167.253 427.931 168.817C429.396 169.366 430.995 169.452 432.511 169.064C434.027 168.676 435.387 167.831 436.408 166.645L436.061 158.463" fill="#FFCBBB"/>
<path d="M424.188 146.216C424.188 146.216 418.585 155.579 422.45 159.323C425.977 162.719 433.742 160.591 434.437 159.401C435.132 158.211 439.561 147.754 437.147 146.312C432.873 143.75 426.585 142.186 424.188 146.216Z" fill="#FFCBBB"/>
<path d="M424.24 161.069C426.644 161.759 429.208 161.65 431.544 160.756" stroke="#EF977F" stroke-width="1.01018" stroke-miterlimit="10"/>
<path d="M423.249 140.128C423.988 134.595 430.684 138.738 433.411 141.266C434.28 142.021 439.014 143.428 439.795 144.227C440.603 145.007 441.165 146.007 441.411 147.102C441.546 148.076 441.475 149.067 441.203 150.012C440.746 151.708 440.165 153.369 439.465 154.98C438.736 156.717 437.424 160.278 434.897 159.905C434.398 159.891 433.921 159.7 433.55 159.367C433.414 159.163 433.32 158.935 433.272 158.695C433.224 158.455 433.225 158.208 433.272 157.968C433.363 157.176 433.598 156.408 433.967 155.701C433.446 155.84 432.908 156.153 432.404 155.953C432.239 155.892 432.161 155.727 432.065 155.58C431.726 155.041 432.135 151.463 433.802 150.055C431.396 148.918 429.512 148.813 427.062 147.78C425.631 147.225 424.4 146.254 423.527 144.992C422.494 143.637 423.023 141.804 423.249 140.128Z" fill="#191C4B"/>
<path d="M433.377 155.345C433.993 154.476 434.932 153.495 435.835 154.39C436.135 154.78 436.292 155.261 436.278 155.753C436.391 157.438 434.68 159.592 433.194 159.002C432.465 158.715 432.265 157.725 432.135 156.917" fill="#FFCBBB"/>
<path d="M425.421 150.351C425.421 150.351 422.998 152.722 422.998 153.538C422.998 154.355 424.813 154.85 424.813 154.85" stroke="#F7A794" stroke-width="0.505091" stroke-miterlimit="10"/>
<path d="M422.086 155.137L426.428 156.761C426.298 157.102 426.097 157.411 425.839 157.669C425.581 157.927 425.272 158.128 424.931 158.259C424.59 158.391 424.226 158.449 423.862 158.43C423.497 158.411 423.141 158.316 422.815 158.15C420.956 157.308 422.086 155.137 422.086 155.137Z" fill="white"/>
<path d="M423.579 149.022C423.543 149.065 423.511 149.111 423.484 149.161C423.484 149.204 423.423 149.256 423.388 149.309C423.325 149.404 423.267 149.502 423.214 149.604C423.184 149.691 423.184 149.786 423.214 149.873C423.241 149.956 423.296 150.027 423.371 150.073C423.409 150.096 423.452 150.112 423.497 150.118C423.542 150.125 423.587 150.122 423.631 150.111C423.675 150.099 423.716 150.079 423.752 150.052C423.787 150.025 423.817 149.99 423.84 149.951C423.901 149.852 423.953 149.747 423.996 149.639C424.057 149.508 424.109 149.378 424.161 149.248C424.191 149.175 424.191 149.094 424.161 149.022C424.125 148.968 424.074 148.925 424.014 148.9C423.983 148.887 423.951 148.881 423.918 148.881C423.885 148.881 423.853 148.887 423.822 148.9H423.753C423.703 148.924 423.663 148.964 423.64 149.013L423.579 149.022Z" fill="#212237"/>
<path d="M425.447 148.197C425.372 148.031 425.265 147.882 425.131 147.759C424.998 147.636 424.84 147.541 424.669 147.481C424.497 147.421 424.315 147.396 424.134 147.409C423.952 147.422 423.776 147.471 423.614 147.554" stroke="#212237" stroke-width="0.505091" stroke-linecap="round" stroke-linejoin="round"/>
<path d="M429.034 151.628L428.947 151.775C428.915 151.825 428.886 151.878 428.86 151.932L428.782 152.079C428.782 152.157 428.704 152.236 428.669 152.314C428.661 152.36 428.661 152.407 428.669 152.453C428.661 152.493 428.661 152.534 428.669 152.574C428.709 152.639 428.766 152.69 428.834 152.722C428.908 152.744 428.987 152.744 429.06 152.722C429.148 152.696 429.223 152.637 429.269 152.557C429.329 152.435 429.382 152.296 429.434 152.166C429.486 152.036 429.512 151.949 429.547 151.836C429.577 151.763 429.576 151.682 429.546 151.609C429.516 151.537 429.459 151.479 429.386 151.45C429.313 151.42 429.232 151.42 429.159 151.45C429.087 151.48 429.029 151.538 428.999 151.61L429.034 151.628Z" fill="#212237"/>
<path d="M429.182 149.63C429.182 149.63 430.502 149.482 431.457 151.219" stroke="#212237" stroke-width="0.505091" stroke-linecap="round" stroke-linejoin="round"/>
<path d="M406.043 121.54C405.687 116.841 406.321 103.544 405.496 103.196C404.671 102.849 404.332 107.348 403.707 106.94C403.081 106.531 403.142 99.5569 402.221 99.4266C400.979 99.2529 401.353 106.375 401.353 106.375C401.353 106.375 400.606 98.558 399.477 98.7317C398.686 98.8446 398.981 104.812 398.808 107.122C398.677 104.603 397.939 99.9217 397.123 100.061C396.306 100.2 396.463 104.899 396.384 108.025C396.254 106.071 395.863 101.798 395.099 101.885C394.335 101.971 394.1 113.08 394.083 122.444" fill="#FFCBBD"/>
<path d="M404.862 168.582C401.474 161.207 398.731 153.552 396.662 145.704C393.509 133.396 394.057 117.38 394.057 117.38L405.904 119.378C406.984 135.123 411.792 150.387 419.931 163.909" fill="#FFCBBD"/>
<path d="M396.506 108.573C397.479 110.049 398.773 111.795 398.712 114.705" stroke="#F7A794" stroke-width="1.01018" stroke-miterlimit="10"/>
<path d="M403.611 108.008C402.473 109.024 401.24 111.76 401.83 113.167" stroke="#F7A794" stroke-width="1.01018" stroke-miterlimit="10"/>
<path d="M444.173 119.273C445.943 117.201 447.462 114.927 448.699 112.499C449.936 110.07 450.887 107.504 451.53 104.855L444.512 102.475C445.027 100.086 445.217 97.6373 445.077 95.1967L452.39 93.946C451.955 88.4949 450.244 83.2226 447.396 78.5549L440.742 81.8381C439.412 79.7879 437.811 77.9268 435.983 76.3053L440.326 70.2253C436.168 66.668 431.227 64.1468 425.907 62.8686L423.527 69.8866C421.137 69.3726 418.69 69.1799 416.249 69.3133L414.998 62C409.548 62.4389 404.276 64.1494 399.607 66.9943L402.855 73.6996C400.797 75.023 398.928 76.6182 397.297 78.442L391.217 74.1513C387.666 78.2985 385.148 83.2274 383.869 88.5348L390.887 90.906C390.373 93.2989 390.18 95.7495 390.313 98.1933L383 99.4353C383.439 104.888 385.149 110.162 387.994 114.835L394.647 111.543C395.975 113.613 397.58 115.492 399.416 117.128L395.125 123.208C399.29 126.759 404.232 129.28 409.552 130.565L411.923 123.538C414.315 124.06 416.767 124.253 419.211 124.111L420.453 131.425C425.906 130.99 431.182 129.279 435.852 126.43L432.569 119.734C434.625 118.411 436.494 116.819 438.128 115L444.173 119.273ZM411.663 108.581C409.31 107.382 407.366 105.513 406.076 103.209C404.786 100.905 404.208 98.2697 404.416 95.6373C404.623 93.0048 405.607 90.4931 407.242 88.4197C408.877 86.3464 411.091 84.8045 413.602 83.9892C416.114 83.1739 418.811 83.1217 421.352 83.8393C423.893 84.5569 426.165 86.012 427.879 88.0205C429.593 90.0291 430.673 92.5009 430.982 95.1234C431.291 97.7458 430.816 100.401 429.616 102.753C428.008 105.906 425.213 108.292 421.846 109.384C418.479 110.477 414.817 110.188 411.663 108.581Z" fill="#ADBBF9"/>
<path d="M423.823 163.874C420.296 163.874 414.798 152.583 414.798 152.583L400.658 163.162C400.658 163.162 405.183 177.233 412.818 186.162" fill="#6B9BFB"/>
<path d="M415.997 154.85L401.57 165.681" stroke="#375370" stroke-width="1.01018" stroke-miterlimit="10"/>
<path d="M460.459 115.79C459.703 110.579 457.732 98.4191 456.863 98.2454C455.994 98.0717 455.63 100.947 455.994 102.128C455.439 99.913 453.91 95.0751 452.989 95.1098C451.73 95.1098 453.302 102.119 453.302 102.119C453.302 102.119 451.2 94.5713 450.123 94.9274C449.359 95.1793 450.705 101.007 450.939 103.3C450.366 100.851 448.82 96.3519 448.038 96.6472C447.257 96.9425 448.238 101.529 448.707 104.621C448.229 102.718 447.1 98.5407 446.362 98.8013C445.624 99.0618 447.543 108.573 448.681 118.101" fill="#FFCBBD"/>
<path d="M458.01 164.387C460.065 156.538 461.44 148.526 462.118 140.44C463.091 127.759 459.773 112.09 459.773 112.09L448.482 116.112C450.15 131.807 448.066 147.674 442.402 162.407" fill="#FFCBBD"/>
<path d="M423.822 163.874C423.822 163.874 424.509 165.855 428.417 166.054C431.201 166.3 433.979 165.525 436.234 163.874C436.234 163.874 451.252 165.863 452.485 182.271C453.884 201.136 454.222 227.636 454.222 227.636H407.485C407.485 227.636 407.797 197.366 408.779 182.931C409.726 169.068 423.822 163.874 423.822 163.874Z" fill="#6B9BFB"/>
<path d="M452.433 184.312C455.715 175.93 458.272 167.282 460.077 158.463L445.059 151.193C445.059 151.193 441.489 161.156 436.26 163.874" fill="#6B9BFB"/>
<path d="M443.852 154.068L459.425 161.529" stroke="#375370" stroke-width="1.01018" stroke-miterlimit="10"/>
<path d="M407.485 225.022H454.196" stroke="#375370" stroke-width="1.01018" stroke-miterlimit="10"/>
<path d="M452.842 183.235C452.842 183.235 450.939 187.308 450.731 189.315" stroke="#375370" stroke-width="1.01018" stroke-miterlimit="10"/>
<path d="M412.253 172.465C410.458 175.693 409.279 179.227 408.779 182.887" stroke="#375370" stroke-width="1.01018" stroke-miterlimit="10"/>
<path d="M422.085 163.162C422.373 164.754 423.231 166.186 424.499 167.19C425.767 168.194 427.358 168.702 428.973 168.617C436.434 168.617 437.911 163.162 437.911 163.162" stroke="#375370" stroke-width="1.01018" stroke-miterlimit="10"/>
<path d="M455.96 102.128C455.96 102.076 456.029 102.215 456.047 102.267L456.159 102.475L456.351 102.901C456.474 103.184 456.582 103.474 456.672 103.769C456.857 104.361 456.985 104.969 457.054 105.585C456.867 105.332 456.709 105.058 456.585 104.768C456.333 104.213 456.147 103.63 456.029 103.031L455.96 102.571V102.336V102.215C455.96 102.215 455.96 102.032 455.96 102.128Z" fill="#EF977F"/>
<path d="M375.691 319.805L376.507 345.532L375.638 353.618L344.961 353.462C344.777 353.461 344.595 353.423 344.426 353.352C344.257 353.281 344.103 353.177 343.974 353.046C343.845 352.916 343.743 352.761 343.674 352.591C343.605 352.421 343.57 352.238 343.571 352.055C343.57 351.775 343.652 351.501 343.806 351.267C343.961 351.034 344.181 350.851 344.439 350.743L358.119 344.455L356.052 317.686" fill="#FFCBBD"/>
<path d="M342.216 353.106C342.537 352.09 343.137 350.943 343.736 350.682L358.241 344.437C366.24 347.677 376.594 345.202 376.594 345.202L377.384 356.128C377.384 356.214 377.367 356.299 377.334 356.378C377.3 356.458 377.251 356.529 377.19 356.589C377.128 356.649 377.055 356.696 376.975 356.727C376.895 356.759 376.81 356.773 376.724 356.771L342.459 356.597C341.747 356.589 342.207 353.132 342.216 353.106Z" fill="#3A4FC7"/>
<path d="M355.114 345.063C355.926 346.123 356.611 347.274 357.155 348.494" stroke="#121649" stroke-width="0.757636" stroke-miterlimit="10"/>
<path d="M353.273 346.157C353.943 347.063 354.509 348.042 354.958 349.076" stroke="#121649" stroke-width="0.757636" stroke-miterlimit="10"/>
<path d="M351.735 346.956C352.326 347.807 352.852 348.701 353.307 349.631" stroke="#121649" stroke-width="0.757636" stroke-miterlimit="10"/>
<path d="M377.193 354.417L342.068 354.235" stroke="#121649" stroke-width="0.757636" stroke-miterlimit="10"/>
<path d="M376.881 349.189C376.881 349.189 368.742 349.249 368.012 354.4" stroke="#121649" stroke-width="0.757636" stroke-miterlimit="10"/>
<path d="M346.707 349.406C346.707 349.406 349.052 352.732 349.512 354.27" stroke="#121649" stroke-width="0.757636" stroke-miterlimit="10"/>
<path d="M372.138 218.703C372.138 218.703 375.864 224.983 376.941 229.673C377.937 234.65 377.937 239.775 376.941 244.752L376.828 334.683H354.098C354.098 334.683 349.034 231.046 351.292 217.644" fill="#145ABB"/>
<path d="M357.572 334.683C357.572 334.683 352.508 231.046 354.767 217.644" stroke="#121649" stroke-width="0.757636" stroke-miterlimit="10"/>
<path d="M350.546 309.66L360.89 333.224L363.131 341.041L334.607 352.333C334.437 352.402 334.255 352.436 334.071 352.434C333.887 352.432 333.705 352.394 333.536 352.321C333.368 352.248 333.215 352.143 333.087 352.011C332.959 351.878 332.859 351.722 332.792 351.551C332.686 351.287 332.662 350.997 332.725 350.72C332.787 350.442 332.931 350.19 333.139 349.996L343.493 339.061L331.602 314.993" fill="#FFCBBD"/>
<path d="M331.897 353.045C331.819 351.985 331.95 350.7 332.41 350.24L343.545 339.035C352.17 339.035 360.847 332.903 360.847 332.903L365.659 342.744C365.693 342.825 365.71 342.911 365.71 342.999C365.71 343.087 365.693 343.174 365.659 343.255C365.625 343.335 365.575 343.409 365.512 343.47C365.45 343.532 365.375 343.58 365.294 343.612L333.4 356.198C332.766 356.458 331.897 353.08 331.897 353.045Z" fill="#427ED2"/>
<path d="M340.861 340.789C342.011 341.471 343.078 342.284 344.04 343.213" stroke="#121649" stroke-width="0.757636" stroke-miterlimit="10"/>
<path d="M339.575 342.483C340.531 343.077 341.419 343.773 342.225 344.559" stroke="#121649" stroke-width="0.757636" stroke-miterlimit="10"/>
<path d="M338.438 343.795C339.303 344.367 340.125 345.003 340.896 345.697" stroke="#121649" stroke-width="0.757636" stroke-miterlimit="10"/>
<path d="M364.851 341.232L332.184 354.157" stroke="#121649" stroke-width="0.757636" stroke-miterlimit="10"/>
<path d="M362.61 336.499C362.61 336.499 355.079 339.582 356.313 344.611" stroke="#121649" stroke-width="0.757636" stroke-miterlimit="10"/>
<path d="M334.685 347.946C334.685 347.946 338.107 350.161 339.106 351.421" stroke="#121649" stroke-width="0.757636" stroke-miterlimit="10"/>
<path d="M332.879 233.356C321.179 262.115 320.971 265.155 319.042 279.191C317.062 293.591 338.698 335.986 338.698 335.986L359.457 326.814C359.457 326.814 345.69 288.024 346.576 281.353C348.218 269.089 362.384 248.148 362.384 248.148C362.384 248.148 369.107 242.824 370.566 235.753C372.025 228.683 368.829 221.274 368.829 221.274" fill="#145ABB"/>
<path d="M354.246 236.744L363.539 233.816" stroke="#121649" stroke-width="0.757636" stroke-miterlimit="10"/>
<path d="M374.101 231.176L377.063 230.229" stroke="#121649" stroke-width="0.757636" stroke-miterlimit="10"/>
<path d="M339.827 232.488C339.827 232.488 325.357 263.921 323.385 278.322C321.414 292.723 342.45 333.91 342.45 333.91" stroke="#121649" stroke-width="0.757636" stroke-miterlimit="10"/>
<path d="M351.397 267.534C354.569 260.807 358.242 254.326 362.384 248.148C362.384 248.148 369.107 242.824 370.566 235.753" stroke="#121649" stroke-width="0.757636" stroke-miterlimit="10"/>
<path d="M330.907 162.194L336.874 172.556C336.874 172.556 333.313 180.278 323.663 176.613L321.197 171.141L330.907 162.194Z" fill="#FFCBBD"/>
<path d="M315.09 155.185C315.09 155.185 312.163 168.969 317.262 171.427C319.92 172.704 327.337 171.914 329.083 169.082C330.386 166.98 329.873 157.052 328.284 155.845C322.204 151.242 315.09 155.185 315.09 155.185Z" fill="#FFCBBD"/>
<path d="M328.006 151.111C325.783 147.212 321.24 147.993 313.857 152.188C312.876 152.753 310.722 152.953 310.696 154.091C310.696 155.585 311.738 158.043 313.467 158.538C314.427 158.823 315.451 158.808 316.402 158.494C317.94 158.129 319.99 158.755 319.963 160.561C319.963 161.03 319.816 161.899 320.259 162.064C320.605 162.103 320.955 162.103 321.301 162.064C321.996 162.064 322.369 162.933 322.283 163.628C322.196 164.322 322.63 164.809 322.543 165.495C322.335 167.119 324.411 168.9 326.017 169.03C327.468 169.143 331.68 168.439 333.678 165.721C335.415 163.367 335.189 159.389 332.297 153.474C331.211 151.224 328.779 150.538 328.006 151.111Z" fill="#212237"/>
<path d="M319.833 162.681C320.302 160.475 321.439 160.231 322.438 160.831C323.75 161.63 323.463 164.774 322.977 165.53C321.995 167.05 320.814 167.519 320.145 166.442" fill="#FFCBBD"/>
<path d="M321.648 172.001C323.168 170.732 322.934 168.326 322.934 168.326" stroke="#E88872" stroke-width="0.505091" stroke-linejoin="round"/>
<path d="M315.542 161.769C315.325 162.246 315.255 162.959 315.655 163.254C315.708 163.292 315.772 163.313 315.837 163.313C315.903 163.313 315.967 163.292 316.02 163.254C316.784 162.794 316.028 160.779 315.542 161.769Z" fill="#28364C"/>
<path d="M314.917 160.249C315.694 160.134 316.487 160.304 317.149 160.726" stroke="#28364C" stroke-width="0.757636" stroke-miterlimit="10"/>
<path d="M317.453 166.841L315.23 166.772C315.23 166.772 315.143 169.508 316.185 169.56C317.227 169.612 317.453 166.841 317.453 166.841Z" fill="white"/>
<path d="M335.484 170.159C335.484 170.159 340.696 168.83 348.009 170.976C354.202 172.773 362.08 177.412 367.986 183.717C378.253 194.644 373.519 221.778 373.519 221.778L360.169 221.274C360.169 221.274 362.262 203.834 355.27 196.842C348.278 189.85 338.411 188.208 338.411 188.208" fill="#97C4FF"/>
<path d="M278.837 208.289C274.65 209.444 261.978 210.826 261.778 211.685C261.578 212.545 266.034 212.128 265.739 212.806C265.443 213.483 258.608 214.604 258.634 215.524C258.677 216.775 265.582 215.247 265.582 215.247C265.582 215.247 262.707 215.768 263.046 216.836C263.289 217.592 264.462 217.826 266.746 217.609C265.495 217.896 265.009 218.478 265.278 219.277C265.547 220.076 266.755 219.998 268.032 219.833C267.163 220.032 266.477 220.614 267.041 221.127C267.788 221.796 272.956 221.509 282.12 219.954" fill="#FFCBBD"/>
<path d="M322.3 173.633C324.726 174.533 327.395 174.533 329.822 173.633C331.94 172.902 333.873 171.716 335.485 170.159C335.485 170.159 344.457 169.542 355.383 180.469C366.31 191.396 374.987 222.794 374.987 222.794L329.769 237.994C329.769 237.994 322.039 210.591 318.99 198.118C315.942 185.646 322.3 173.633 322.3 173.633Z" fill="#97C4FF"/>
<path d="M354.793 177.603C363.826 188.156 374.987 222.768 374.987 222.768" stroke="#525BCE" stroke-width="0.757636" stroke-miterlimit="10"/>
<path d="M322.3 173.633C316.341 175.909 311.225 181.694 308.09 187.643C302.939 197.397 299.812 204.476 299.812 204.476L273.877 208.359L275.206 222.195C275.206 222.195 292.803 221.674 306.83 219.589C316.802 218.087 324.515 197.424 324.515 197.424" fill="#97C4FF"/>
<path d="M320.554 174.415C320.554 174.415 323.42 178.246 330.299 175.666C337.178 173.086 337.422 169.899 337.422 169.899" stroke="#525BCE" stroke-width="0.757636" stroke-miterlimit="10"/>
<path d="M321.179 204.511L323.993 198.553" stroke="#525BCE" stroke-width="0.757636" stroke-miterlimit="10"/>
<path d="M277.933 207.751L278.915 221.995" stroke="#525BCE" stroke-width="0.757636" stroke-miterlimit="10"/>
<path d="M328.944 235.033L374.101 220.111" stroke="#525BCE" stroke-width="0.757636" stroke-miterlimit="10"/>
<path d="M151.087 197.18L151.704 197.58C153.675 198.954 155.826 200.05 158.097 200.837C159.426 201.228 160.876 201.436 161.962 202.305C162.374 202.67 162.812 203.004 163.273 203.304C163.404 203.382 164.681 203.86 164.628 203.721C164.754 203.934 164.921 204.121 165.119 204.27C165.318 204.419 165.543 204.527 165.784 204.589C165.837 204.606 165.895 204.606 165.949 204.589C165.962 204.587 165.976 204.582 165.987 204.575C165.999 204.568 166.01 204.558 166.018 204.547C166.026 204.535 166.032 204.522 166.035 204.509C166.038 204.495 166.038 204.481 166.035 204.468C166.2 204.789 166.791 204.928 166.974 204.754C167.156 204.58 166.696 203.764 166.696 203.764C166.696 203.764 167.008 203.764 167.095 203.686C167.23 203.503 167.301 203.279 167.295 203.052C167.357 201.998 167.193 200.942 166.814 199.957C166.435 198.971 165.85 198.078 165.097 197.337" fill="#FFCBBD"/>
<path d="M165.523 201.506C165.52 201.6 165.535 201.695 165.567 201.784C165.567 201.871 165.628 201.957 165.662 202.044L165.871 202.557L166.088 203.078C166.166 203.26 166.27 203.425 166.357 203.599C166.444 203.773 166.661 203.599 166.635 203.477C166.606 203.291 166.56 203.108 166.496 202.93C166.418 202.739 166.349 202.557 166.262 202.374C166.175 202.192 166.088 202.036 165.992 201.871C165.947 201.788 165.895 201.709 165.836 201.636C165.78 201.562 165.713 201.498 165.636 201.445C165.625 201.439 165.613 201.436 165.6 201.437C165.587 201.437 165.575 201.44 165.564 201.446C165.553 201.452 165.543 201.46 165.536 201.471C165.529 201.481 165.525 201.493 165.523 201.506Z" fill="#F49C8E"/>
<path d="M163.352 201.584C163.734 202.01 164.133 202.453 164.533 202.826C164.721 203.025 164.898 203.233 165.063 203.451L165.297 203.807C165.375 203.929 165.488 204.025 165.566 204.146C165.645 204.268 165.818 204.146 165.784 204.059C165.752 203.913 165.705 203.771 165.645 203.634C165.574 203.516 165.495 203.403 165.41 203.295C165.227 203.058 165.026 202.834 164.811 202.626C164.394 202.209 163.942 201.853 163.499 201.436C163.48 201.417 163.453 201.406 163.425 201.406C163.398 201.406 163.371 201.417 163.352 201.436C163.332 201.456 163.321 201.482 163.321 201.51C163.321 201.538 163.332 201.564 163.352 201.584Z" fill="#F49C8E"/>
<path d="M149.35 356.771L133.916 199.256" stroke="#0065F2" stroke-width="2.02036" stroke-miterlimit="10"/>
<path d="M209.438 356.771L194.003 199.256H133.916" stroke="#0065F2" stroke-width="2.02036" stroke-miterlimit="10"/>
<path d="M178.569 356.771L194.003 199.256" stroke="#0065F2" stroke-width="2.02036" stroke-miterlimit="10"/>
<path d="M118.49 356.771L133.916 199.256H194.003" stroke="#0065F2" stroke-width="2.02036" stroke-miterlimit="10"/>
<path d="M206.962 334.458H120.67" stroke="#0065F2" stroke-width="2.02036" stroke-miterlimit="10"/>
<path d="M204.956 315.175H122.563" stroke="#0065F2" stroke-width="2.02036" stroke-miterlimit="10"/>
<path d="M203.419 295.355H124.509" stroke="#0065F2" stroke-width="2.02036" stroke-miterlimit="10"/>
<path d="M201.49 276.463H126.359" stroke="#0065F2" stroke-width="2.02036" stroke-miterlimit="10"/>
<path d="M199.632 256.729H128.209" stroke="#0065F2" stroke-width="2.02036" stroke-miterlimit="10"/>
<path d="M197.721 237.178H130.137" stroke="#0065F2" stroke-width="2.02036" stroke-miterlimit="10"/>
<path d="M195.471 218.712H132.014" stroke="#0065F2" stroke-width="2.02036" stroke-miterlimit="10"/>
<path d="M147.735 198.865C153.902 198.865 160.066 198.865 166.227 198.865C165.815 198.005 165.276 197.211 164.629 196.511C163.966 195.806 163.187 195.218 162.327 194.774C159.447 193.295 156.262 192.51 153.024 192.481" fill="#FFCBBD"/>
<path d="M126.211 156.366C126.211 156.366 134.645 178.341 136.756 180.182C138.867 182.024 158.948 192.012 158.948 192.012L152.79 205.041C152.79 205.041 128.626 195.391 125.16 192.012C121.695 188.634 110.69 175.562 109.578 162.429" fill="#637AE2"/>
<path d="M110.117 300.028L109.248 323.687L109.978 331.131H138.189C138.531 331.129 138.858 330.991 139.099 330.749C139.339 330.506 139.474 330.179 139.474 329.837C139.476 329.576 139.398 329.32 139.25 329.104C139.103 328.889 138.893 328.723 138.649 328.63L126.099 322.784L128.122 298.177" fill="#FFCBBD"/>
<path d="M140.752 330.818C140.555 329.938 140.065 329.151 139.362 328.586L126.047 322.775C118.681 325.72 109.17 323.392 109.17 323.392L108.441 333.441C108.441 333.6 108.504 333.753 108.616 333.865C108.729 333.978 108.881 334.041 109.04 334.041H140.552C141.168 334.032 140.76 330.844 140.752 330.818Z" fill="#6EA5E0"/>
<path d="M128.939 323.366C128.182 324.338 127.544 325.396 127.037 326.519" stroke="#375370" stroke-width="1.01018" stroke-miterlimit="10"/>
<path d="M130.607 324.382C129.993 325.215 129.472 326.112 129.052 327.057" stroke="#375370" stroke-width="1.01018" stroke-miterlimit="10"/>
<path d="M132.022 325.12C131.477 325.904 130.99 326.725 130.563 327.579" stroke="#375370" stroke-width="1.01018" stroke-miterlimit="10"/>
<path d="M108.571 331.869L140.882 331.861" stroke="#375370" stroke-width="1.01018" stroke-miterlimit="10"/>
<path d="M108.892 327.066C108.892 327.066 116.37 327.153 117.022 331.869" stroke="#375370" stroke-width="1.01018" stroke-miterlimit="10"/>
<path d="M136.634 327.396C135.617 328.792 134.744 330.288 134.029 331.861" stroke="#375370" stroke-width="1.01018" stroke-miterlimit="10"/>
<path d="M103.881 211.103C103.881 211.103 101.162 223.159 107.016 237.768C108.861 248.582 109.883 259.52 110.074 270.487C110.308 288.293 107.937 310.989 107.937 319.457H131.136C131.136 319.457 133.985 295.329 134.237 271.009C134.524 243.77 132.213 213.023 132.213 205.084" fill="#97C4FF"/>
<path d="M127.662 319.457C127.662 319.457 130.52 294.886 130.771 270.262C131.049 243.206 128.739 212.936 128.739 205.119" stroke="#525BCE" stroke-width="0.757636" stroke-miterlimit="10"/>
<path d="M149.35 280.78L148.482 304.431L149.211 311.875H177.422C177.763 311.875 178.09 311.739 178.331 311.498C178.572 311.257 178.708 310.93 178.708 310.589C178.707 310.323 178.623 310.063 178.468 309.846C178.312 309.63 178.092 309.467 177.839 309.382L165.288 303.537L167.312 278.93" fill="#FFCBBD"/>
<path d="M179.984 311.562C179.689 310.633 179.116 309.573 178.595 309.339L165.28 303.528C157.949 306.472 148.395 304.171 148.395 304.171L147.622 314.211C147.622 314.37 147.685 314.523 147.797 314.635C147.91 314.747 148.062 314.811 148.221 314.811H179.733C180.401 314.776 179.993 311.597 179.984 311.562Z" fill="#6EA5E0"/>
<path d="M168.172 304.118C167.417 305.088 166.778 306.144 166.27 307.263" stroke="#375370" stroke-width="1.01018" stroke-miterlimit="10"/>
<path d="M169.839 305.126C169.226 305.959 168.704 306.856 168.285 307.801" stroke="#375370" stroke-width="1.01018" stroke-miterlimit="10"/>
<path d="M171.256 305.908C170.716 306.694 170.228 307.515 169.796 308.366" stroke="#375370" stroke-width="1.01018" stroke-miterlimit="10"/>
<path d="M147.804 312.613L180.115 312.604" stroke="#375370" stroke-width="1.01018" stroke-miterlimit="10"/>
<path d="M148.125 307.81C148.125 307.81 155.604 307.905 156.255 312.613" stroke="#375370" stroke-width="1.01018" stroke-miterlimit="10"/>
<path d="M175.867 308.149C174.85 309.542 173.977 311.035 173.262 312.604" stroke="#375370" stroke-width="1.01018" stroke-miterlimit="10"/>
<path d="M142.975 212.424C142.975 212.424 165.271 233.556 170.3 247.323C173.774 256.92 168.711 300.714 168.711 300.714H146.501C146.501 300.714 149.211 260.846 147.804 256.729C146.163 251.891 127.037 235.397 127.037 235.397C124.388 234.634 121.94 233.298 119.866 231.483C117.791 229.668 116.142 227.42 115.033 224.896C111.559 217.079 113.166 207.594 113.166 207.594" fill="#97C4FF"/>
<path d="M137.763 212.424C137.763 212.424 160.876 236.856 165.089 247.323C168.285 255.27 163.499 300.714 163.499 300.714" stroke="#525BCE" stroke-width="0.757636" stroke-miterlimit="10"/>
<path d="M133.768 241.408C132.031 239.818 128.982 237.065 128.053 236.283C127.465 235.76 126.78 235.356 126.038 235.093C123.605 234.235 121.373 232.887 119.48 231.134C117.588 229.38 116.074 227.257 115.033 224.896" stroke="#525BCE" stroke-width="0.757636" stroke-miterlimit="10"/>
<path d="M121.182 220.024C121.182 220.024 127.827 220.258 130.606 220.024" stroke="#525BCE" stroke-width="0.757636" stroke-miterlimit="10"/>
<path d="M103.255 220.024H108.614" stroke="#525BCE" stroke-width="0.757636" stroke-miterlimit="10"/>
<path d="M182.825 158.902C185.161 157.834 195.767 153.196 196.019 153.839C196.27 154.481 192.909 156.696 193.274 156.801C194.898 156.507 196.482 156.02 197.99 155.35C199.328 154.69 201.586 153.856 201.942 154.403C202.628 155.437 195.237 158.946 195.237 158.946C195.237 158.946 196.548 158.347 197.208 159.154C198.173 160.318 196.14 161.404 196.14 161.404C196.14 161.404 197.304 160.813 197.686 161.812C198.068 162.811 196.349 163.706 196.349 163.706C196.349 163.706 197.721 163.046 197.903 164.305C198.129 165.955 187.098 169.846 187.098 169.846" fill="#FFCBBD"/>
<path d="M129.052 148.167C128.215 148.729 127.276 149.121 126.288 149.319C125.299 149.517 124.282 149.518 123.293 149.322C119.732 148.697 118.863 147.012 118.863 147.012C118.863 147.012 109.448 148.323 104.914 177.412C102.999 189.652 102.286 202.051 102.786 214.43H145.789C145.789 214.43 147.101 170.037 144.921 161.786" fill="#6B9BFB"/>
<path d="M132.431 169.44C132.431 169.44 145.155 183.502 157.028 183.502C168.902 183.502 191.25 170.899 191.25 170.899L185.908 156.246L159.947 165.531C159.947 165.531 146.267 152.755 139.97 150.401C136.486 149.029 132.8 148.24 129.061 148.065" fill="#6B9BFB"/>
<path d="M146.11 180.339C146.11 180.339 138.12 174.259 134.263 171.384" stroke="#375370" stroke-width="1.01018" stroke-miterlimit="10"/>
<path d="M183.433 157.209L188.323 172.556" stroke="#375370" stroke-width="1.01018" stroke-miterlimit="10"/>
<path d="M102.682 210.817H145.858" stroke="#375370" stroke-width="1.01018" stroke-miterlimit="10"/>
<path d="M138.528 174.589C138.953 186.931 138.528 214.395 138.528 214.395" stroke="#375370" stroke-width="1.01018" stroke-miterlimit="10"/>
<path d="M119.046 140.68L118.073 148.497C118.073 148.497 125.638 152.466 130.659 148.254V143.676L119.046 140.68Z" fill="#FFCBBD"/>
<path d="M129.286 128.372C129.286 128.372 138.128 139.525 134.889 143.659C133.212 145.804 127.732 145.292 125.117 143.659C123.172 142.443 117.76 135.972 118.586 134.322C121.791 128.007 129.286 128.372 129.286 128.372Z" fill="#FFCBBD"/>
<path d="M128.183 130.457C128.256 133.318 128.111 136.181 127.749 139.021L127.071 153.691C127.071 153.691 115.398 154.933 107.963 149.756C107.963 149.756 110.464 134.331 116.023 129.666C121.321 125.219 128.183 125.541 131.701 128.416C131.701 128.416 131.214 129.762 130.563 130.066C129.799 130.3 129.008 130.432 128.209 130.457" fill="#191C4B"/>
<path d="M128.948 137.492C127.862 136.128 126.993 136.346 126.516 137.093C125.873 138.1 127.15 140.185 127.749 140.567C128.948 141.288 129.929 141.21 130.016 140.228" fill="#FFCBBD"/>
<path d="M130.754 145.031C130.4 145.039 130.052 144.942 129.754 144.751C129.456 144.561 129.22 144.287 129.078 143.963" stroke="#E88872" stroke-width="0.505091" stroke-linejoin="round"/>
<path d="M131.64 134.027C132.014 134.339 132.361 134.895 132.152 135.312C132.126 135.366 132.083 135.41 132.03 135.438C131.977 135.466 131.917 135.477 131.857 135.468C131.023 135.39 130.867 133.384 131.64 134.027Z" fill="#28364C"/>
<path d="M131.536 132.507C131.161 132.539 130.804 132.68 130.509 132.913C130.215 133.147 129.995 133.461 129.877 133.818" stroke="#28364C" stroke-width="0.505091" stroke-miterlimit="10" stroke-linecap="round"/>
<path d="M132.318 139.785L134.281 139.16C134.281 139.16 135.054 141.575 134.142 141.879C133.23 142.183 132.318 139.785 132.318 139.785Z" fill="white"/>
<path d="M121.608 126.983C121.995 126.865 122.331 126.623 122.567 126.295C122.802 125.967 122.923 125.571 122.911 125.167C122.887 124.763 122.758 124.372 122.538 124.032C122.317 123.693 122.012 123.416 121.652 123.23C120.919 122.873 120.079 122.805 119.298 123.039C119.001 123.113 118.721 123.242 118.473 123.421C118.017 123.851 117.738 124.435 117.688 125.059C117.638 125.683 117.822 126.304 118.204 126.8C118.484 127.226 118.91 127.535 119.402 127.669C120.131 127.75 120.867 127.608 121.513 127.26" fill="#191C4B"/>
<path d="M132.578 133.931C132.804 134.053 135.132 135.06 135.184 135.998C135.184 136.528 133.898 137.101 133.898 137.101" fill="#FFCBBD"/>
<path d="M163.204 197.024C164.25 198.259 165.068 199.671 165.618 201.193C165.648 201.247 165.665 201.306 165.671 201.367C165.671 201.645 165.262 201.662 165.002 201.567C164.411 201.343 163.864 201.017 163.386 200.602C163.203 200.429 163.006 200.272 162.796 200.133C162.377 199.944 161.926 199.841 161.467 199.829C160.528 199.754 159.619 199.461 158.813 198.974C158.006 198.487 157.324 197.82 156.82 197.024" fill="#FFCBBD"/>
<path d="M163.204 197.024C164.137 197.938 164.876 199.031 165.375 200.238L165.784 201.106C165.784 201.219 165.879 201.306 165.853 201.454C165.838 201.525 165.804 201.592 165.755 201.646C165.707 201.701 165.645 201.743 165.575 201.766C165.378 201.831 165.165 201.831 164.967 201.766C164.333 201.536 163.745 201.195 163.23 200.759C163.024 200.54 162.78 200.36 162.509 200.229C162.229 200.131 161.937 200.07 161.641 200.047C160.982 199.975 160.336 199.814 159.721 199.569C158.473 199.115 157.443 198.206 156.837 197.024C157.561 198.08 158.615 198.865 159.834 199.256C160.435 199.454 161.055 199.588 161.684 199.656C162.025 199.67 162.361 199.734 162.683 199.847C163.007 199.984 163.301 200.182 163.551 200.429C164.017 200.842 164.552 201.168 165.132 201.393C165.243 201.423 165.36 201.423 165.471 201.393C165.471 201.393 165.471 201.323 165.471 201.271C165.332 200.976 165.21 200.672 165.097 200.403C164.649 199.183 164.01 198.043 163.204 197.024Z" fill="#E88872"/>
<path d="M50.2605 320.047L49.4701 344.836L50.2779 352.653L79.8092 352.497C80.1678 352.492 80.5103 352.346 80.7622 352.091C81.0142 351.836 81.1555 351.492 81.1555 351.133C81.1539 350.861 81.0701 350.596 80.915 350.373C80.76 350.15 80.541 349.979 80.2869 349.882L67.102 343.802L69.0998 318.006" fill="#FFCBBD"/>
<path d="M82.5191 352.149C82.2064 351.168 81.6506 350.073 81.0512 349.821L67.076 343.802C59.3718 346.92 49.3919 344.532 49.3919 344.532L48.6276 355.059C48.6276 355.142 48.644 355.224 48.676 355.3C48.708 355.377 48.7548 355.446 48.8138 355.504C48.8728 355.562 48.9428 355.608 49.0196 355.639C49.0965 355.67 49.1788 355.685 49.2616 355.684L82.2672 355.511C82.9708 355.511 82.5278 352.175 82.5191 352.149Z" fill="#427ED2"/>
<path d="M70.0986 344.402C69.3181 345.426 68.6567 346.537 68.127 347.711" stroke="#235DA9" stroke-width="0.757636" stroke-miterlimit="10"/>
<path d="M71.8619 345.453C71.218 346.321 70.6732 347.26 70.2377 348.249" stroke="#235DA9" stroke-width="0.757636" stroke-miterlimit="10"/>
<path d="M73.3471 346.226C72.7778 347.056 72.2698 347.927 71.8271 348.831" stroke="#235DA9" stroke-width="0.757636" stroke-miterlimit="10"/>
<path d="M48.8099 353.417L82.6581 353.235" stroke="#235DA9" stroke-width="0.757636" stroke-miterlimit="10"/>
<path d="M49.114 348.38C49.114 348.38 56.9311 348.432 57.6607 353.374" stroke="#235DA9" stroke-width="0.757636" stroke-miterlimit="10"/>
<path d="M77.185 348.588C77.185 348.588 74.9267 351.793 74.4838 353.278" stroke="#235DA9" stroke-width="0.757636" stroke-miterlimit="10"/>
<path d="M51.9966 231.331C51.9966 231.331 67.7438 260.767 72.6859 279.276C77.6281 297.786 71.0443 339.486 71.0443 339.486H46.6028C46.6028 339.486 51.4755 294.233 45.7342 279.276C39.993 264.32 19.3124 224.973 19.3124 224.973" fill="#97C4FF"/>
<path d="M49.9466 339.486C49.9466 339.486 53.9593 292.409 51.5187 280.779C49.078 269.149 32.1843 242.084 32.1843 242.084" stroke="#525BCE" stroke-width="0.757636" stroke-miterlimit="10"/>
<path d="M21.2579 306.254L6.81365 326.17L2.87903 332.945L26.8689 350.204C27.012 350.309 27.1747 350.385 27.3475 350.427C27.5202 350.468 27.6996 350.475 27.8751 350.447C28.0506 350.419 28.2187 350.356 28.3695 350.262C28.5204 350.168 28.651 350.045 28.7537 349.9C28.9087 349.675 28.9917 349.408 28.9917 349.135C28.9917 348.862 28.9087 348.596 28.7537 348.371L21.7096 335.707L37.726 314.862" fill="#FFCBBD"/>
<path d="M29.2313 351.515C29.5527 350.542 29.7351 349.318 29.4137 348.779L21.6574 335.681C13.5884 333.675 6.89172 325.875 6.89172 325.875L0.116885 333.944C0.0210159 334.078 -0.0181624 334.244 0.00785679 334.407C0.033876 334.57 0.122992 334.715 0.255856 334.813L27.0599 354.095C27.6158 354.503 29.2226 351.55 29.2313 351.515Z" fill="#427ED2"/>
<path d="M23.7505 337.948C22.513 338.312 21.3234 338.822 20.2068 339.468" stroke="#235DA9" stroke-width="0.757636" stroke-miterlimit="10"/>
<path d="M24.5497 339.833C23.5143 340.16 22.5204 340.606 21.5879 341.162" stroke="#235DA9" stroke-width="0.757636" stroke-miterlimit="10"/>
<path d="M25.3054 341.301C24.3668 341.64 23.4551 342.049 22.5781 342.526" stroke="#235DA9" stroke-width="0.757636" stroke-miterlimit="10"/>
<path d="M1.22864 332.719L28.7102 352.488" stroke="#235DA9" stroke-width="0.757636" stroke-miterlimit="10"/>
<path d="M4.43372 328.819C4.43372 328.819 10.7395 333.475 8.41176 337.887" stroke="#235DA9" stroke-width="0.757636" stroke-miterlimit="10"/>
<path d="M27.7894 346.095C27.7894 346.095 24.0807 347.355 22.8473 348.293" stroke="#235DA9" stroke-width="0.757636" stroke-miterlimit="10"/>
<path d="M12.8415 224.973C8.18592 238.167 12.8415 248.546 12.8415 248.546C12.8415 248.546 28.7102 277.548 28.7102 283.437C28.7102 288.848 8.35095 319.647 8.35095 319.647L26.9644 334.604C26.9644 334.604 56.2091 303.136 55.6272 281.361C54.941 254.435 40.2882 224.973 40.2882 224.973" fill="#97C4FF"/>
<path d="M16.3157 225.842C11.6602 239.035 17.2798 247.921 17.2798 247.921C17.2798 247.921 32.1844 278.416 32.1844 284.305C32.1844 289.716 11.0348 321.801 11.0348 321.801" stroke="#525BCE" stroke-width="0.757636" stroke-miterlimit="10"/>
<path d="M48.2445 305.238C52.5873 297.23 55.8358 288.735 55.6534 281.361C54.9672 254.435 40.3145 224.973 40.3145 224.973" stroke="#525BCE" stroke-width="0.757636" stroke-miterlimit="10"/>
<path d="M14.7611 236.204C14.7611 236.204 23.0733 236.699 26.3304 230.02" stroke="#525BCE" stroke-width="0.757636" stroke-miterlimit="10"/>
<path d="M46.62 240C46.62 240 48.8956 240.252 48.6785 239.131C48.4614 238.011 46.62 231.939 46.62 231.939" stroke="#525BCE" stroke-width="0.757636" stroke-miterlimit="10"/>
<path fill-rule="evenodd" clip-rule="evenodd" d="M57.1733 154.993C58.0419 160.317 57.3557 165.016 52.8305 165.72C48.3052 166.423 41.982 165.138 40.7487 157.555C39.8801 152.239 42.8853 147.349 47.4279 146.646C51.9706 145.942 56.3221 149.677 57.1733 154.993Z" fill="#FFCBBB"/>
<path d="M53.4991 155.045C53.4036 155.531 53.4991 156.209 53.9247 156.4C53.9802 156.428 54.0431 156.437 54.1042 156.426C54.1653 156.415 54.2212 156.385 54.2635 156.339C54.8801 155.731 53.6989 154.029 53.4991 155.045Z" fill="#28364C"/>
<path d="M51.9879 153.838C52.4623 153.577 52.9881 153.423 53.5282 153.387C54.0684 153.351 54.6099 153.434 55.1148 153.629" stroke="#28364C" stroke-width="0.505091" stroke-linecap="round" stroke-linejoin="round"/>
<path d="M56.4523 160.56H53.4904C53.4904 160.56 53.308 163.018 54.7846 163.27C56.0093 163.496 56.4523 160.56 56.4523 160.56Z" fill="white"/>
<path fill-rule="evenodd" clip-rule="evenodd" d="M50.3722 171.548C48.0895 171.888 45.7627 171.785 43.5191 171.244C39.5932 170.175 38.4814 168.577 38.4814 168.577L43.9187 157.234L52.3091 161.038L50.3722 171.548Z" fill="#FFCBBB"/>
<path d="M51.4579 165.85C51.4579 165.85 47.8012 165.971 45.899 164.174" stroke="#EF977F" stroke-width="1.01018" stroke-miterlimit="10"/>
<path fill-rule="evenodd" clip-rule="evenodd" d="M56.2177 154.836C56.2177 154.836 58.4846 158.163 58.3717 158.762C58.2588 159.362 56.6346 159.631 56.6346 159.631" fill="#FFCBBB"/>
<path d="M43.9969 162.376C43.4958 162.569 42.9692 162.689 42.4335 162.732C41.3609 162.865 40.2729 162.678 39.3067 162.193C38.4297 161.736 37.7189 161.014 37.2747 160.13C36.8304 159.246 36.6753 158.245 36.8313 157.269C36.8921 156.956 36.9963 156.643 37.0484 156.33C37.2829 154.845 36.4143 153.421 36.1798 151.936C35.9642 150.479 36.302 148.995 37.1266 147.775C37.9698 146.58 39.1576 145.671 40.5314 145.169C41.6171 144.752 42.807 144.605 43.7103 143.823C44.1054 143.429 44.5325 143.069 44.9871 142.746C47.2454 141.33 50.4591 142.103 52.4829 143.615C52.7078 143.811 52.9669 143.964 53.2472 144.066C53.7423 144.197 54.2634 143.988 54.7672 144.066C56.7041 144.457 57.5466 147.315 57.5292 149.026C57.5406 149.538 57.3885 150.04 57.095 150.459C56.8583 150.734 56.5687 150.959 56.2434 151.12C55.9182 151.281 55.5638 151.375 55.2015 151.397C54.1836 151.385 53.1665 151.461 52.1615 151.623C51.4753 151.831 50.876 152.274 50.2072 152.544C49.6861 152.75 49.1281 152.848 48.5678 152.83C48.0075 152.812 47.4569 152.679 46.9501 152.439C47.1897 153.139 47.2728 153.884 47.1933 154.619C46.9848 155.983 45.8296 156.661 44.5876 156.999C45.0987 158.446 45.2039 160.005 44.8916 161.507C44.8128 161.707 44.6923 161.888 44.538 162.038C44.3837 162.188 44.1993 162.303 43.9969 162.376Z" fill="#14122D"/>
<path d="M45.6733 155.827C45.5379 155.65 45.3682 155.504 45.1744 155.395C44.9806 155.286 44.7668 155.218 44.546 155.195C44.3251 155.171 44.1018 155.193 43.8894 155.258C43.6771 155.323 43.4803 155.431 43.3108 155.575C41.6692 156.947 43.8146 159.917 45.1174 160.386C46.4203 160.856 46.8111 159.422 46.8111 159.422" fill="#FFCBBB"/>
<path d="M107.385 213.743C110.919 210.782 113.704 207.03 115.515 202.79L110.017 199.854C110.779 197.942 111.276 195.934 111.493 193.887H117.73C118.12 189.306 117.427 184.697 115.706 180.433L109.739 182.24C108.925 180.352 107.862 178.581 106.577 176.976L110.92 172.555C107.96 169.032 104.206 166.261 99.9675 164.469L97.0317 169.958C95.1168 169.204 93.1102 168.708 91.0647 168.482V162.245C86.4836 161.864 81.8766 162.557 77.6105 164.269L79.3911 170.193C77.5013 171.003 75.7305 172.067 74.1276 173.354L69.7066 169.011C66.2042 171.971 63.4487 175.714 61.6636 179.938L67.1617 182.883C66.3988 184.792 65.902 186.797 65.6851 188.841H59.4401C59.041 193.43 59.7191 198.049 61.4204 202.33L67.3962 200.514C68.2082 202.411 69.2716 204.191 70.5578 205.804L66.2149 210.225C69.1754 213.748 72.9289 216.519 77.1676 218.311L80.1033 212.813C82.013 213.575 84.0176 214.071 86.0617 214.29V220.526C90.6459 220.916 95.2575 220.223 99.5245 218.503L97.7092 212.535C99.6021 211.722 101.376 210.656 102.981 209.365L107.385 213.743ZM81.9968 200.237C80.2406 198.941 78.908 197.154 78.1677 195.101C77.4274 193.048 77.3127 190.822 77.8379 188.704C78.3632 186.586 79.505 184.671 81.1187 183.202C82.7324 181.733 84.7456 180.776 86.9036 180.451C89.0616 180.126 91.2674 180.449 93.2419 181.378C95.2164 182.308 96.8708 183.802 97.996 185.672C99.1212 187.542 99.6664 189.703 99.5628 191.883C99.4592 194.063 98.7114 196.163 97.4139 197.917C95.6759 200.268 93.076 201.832 90.1853 202.267C87.2945 202.702 84.3494 201.972 81.9968 200.237Z" fill="#ADBBF9"/>
<path d="M90.2049 212.397C92.7498 212.614 104.276 213.786 104.18 214.464C104.085 215.141 100.185 215.332 100.332 215.697C100.55 216.21 103.485 216.653 105.153 216.748C106.638 216.826 109.018 217.208 109.062 217.86C109.157 219.102 100.993 218.529 100.993 218.529C100.993 218.911 109.887 217.504 110.069 218.529C110.33 220.014 100.871 220.743 100.576 221.134C100.576 221.134 108.593 218.225 108.784 219.328C108.975 220.431 101.835 223.202 99.6202 223.245C101.47 222.863 106.925 219.771 107.064 220.596C107.203 221.421 102.382 223.488 101.601 223.618C97.2881 224.256 92.9173 224.401 88.572 224.053" fill="#FFCBBD"/>
<path d="M50.5548 170.818C50.5548 170.818 48.0707 171.991 44.3272 170.366C40.2536 168.629 39.4024 166.562 39.4024 166.562C39.4024 166.562 17.306 168.516 9.2196 229.82L54.4634 235.431C54.4634 235.431 58.1027 213.517 57.5207 195.789C57.1559 184.498 52.7697 175.708 50.5722 170.818" fill="#145ABB"/>
<path d="M37.2743 195.381C37.2743 195.381 44.2228 218.694 63.0274 223.74C72.7509 226.41 82.7578 227.911 92.8367 228.213L94.652 212.492C94.652 212.492 74.1885 208.801 65.7634 203.198C59.3533 198.986 58.1026 185.401 56.4523 180.616C54.2027 173.945 50.5287 170.844 50.5287 170.844" fill="#145ABB"/>
<path d="M37.5956 167.031C37.5956 167.031 38.9766 171.313 45.4127 172.712C50.1203 173.736 51.9704 172.329 51.9704 172.329" stroke="#121649" stroke-width="0.757636" stroke-miterlimit="10"/>
<path d="M55.6531 221.073C55.6531 221.073 38.5163 213.152 37.5956 190.734" stroke="#121649" stroke-width="0.757636" stroke-miterlimit="10"/>
<path d="M90.8476 211.71L88.5459 228.005" stroke="#121649" stroke-width="0.757636" stroke-miterlimit="10"/>
<defs>
<linearGradient id="paint0_linear_428_1579" x1="116.241" y1="307.723" x2="370.462" y2="53.5016" gradientUnits="userSpaceOnUse">
<stop offset="0.27" stop-color="white" stop-opacity="0.1"/>
<stop offset="1" stop-color="white" stop-opacity="0.3"/>
</linearGradient>
<linearGradient id="paint1_linear_428_1579" x1="159.2" y1="302.416" x2="402.807" y2="58.8085" gradientUnits="userSpaceOnUse">
<stop offset="0.27" stop-color="white" stop-opacity="0.1"/>
<stop offset="1" stop-color="white" stop-opacity="0.3"/>
</linearGradient>
</defs>
</svg>
