<svg width="562" height="360" viewBox="0 0 562 360" fill="none" xmlns="http://www.w3.org/2000/svg">
<path d="M433.32 88.9947C435.967 85.9877 438.249 82.6787 440.121 79.1365C441.997 75.5915 443.455 71.8401 444.464 67.958L434.162 64.3187C434.972 60.8124 435.308 57.2134 435.161 53.6179L445.914 51.9416C445.388 43.9274 442.99 36.1481 438.913 29.2285L429.064 33.9188C427.164 30.8648 424.862 28.0806 422.219 25.6413L428.647 16.8514C422.604 11.5414 415.394 7.73224 407.601 5.7337L403.962 15.9741C400.456 15.1668 396.857 14.8338 393.261 14.984L391.585 4.20502C383.561 4.73926 375.773 7.14579 368.846 11.2317L373.545 21.0813C370.489 22.9785 367.705 25.2809 365.267 27.9256L356.451 21.4982C353.809 24.5121 351.527 27.8233 349.651 31.3652C347.769 34.9076 346.311 38.6597 345.308 42.5437L355.574 46.183C354.763 49.6859 354.43 53.2827 354.584 56.875L343.857 58.5514C344.383 66.5762 346.787 74.3652 350.875 81.2905L360.725 76.6002C362.625 79.6539 364.927 82.438 367.569 84.8777L361.142 93.6763C364.157 96.3095 367.468 98.583 371.009 100.451C374.551 102.333 378.303 103.791 382.187 104.794L385.826 94.5275C389.332 95.3379 392.932 95.671 396.527 95.5177L398.204 106.297C406.227 105.765 414.015 103.362 420.943 99.2786L416.252 89.429C419.304 87.5263 422.085 85.2213 424.521 82.576L433.32 88.9947ZM382.96 77.8683C378.491 75.5094 374.822 71.8784 372.417 67.4344C370.011 62.9903 368.977 57.9329 369.446 52.9014C369.914 47.8698 371.864 43.0902 375.048 39.1666C378.233 35.243 382.509 32.3518 387.337 30.8584C392.165 29.3649 397.326 29.3364 402.17 30.7763C407.014 32.2162 411.322 35.06 414.55 38.9481C417.778 42.8361 419.78 47.5939 420.304 52.62C420.829 57.646 419.851 62.7146 417.494 67.1849C415.93 70.1555 413.795 72.7886 411.213 74.9336C408.63 77.0785 405.649 78.6933 402.442 79.6855C399.235 80.6777 395.863 81.028 392.52 80.7162C389.177 80.4044 385.929 79.4366 382.96 77.8683ZM386.434 71.328C383.261 69.6503 380.656 67.0693 378.949 63.9112C377.242 60.7531 376.509 57.1597 376.844 53.5855C377.179 50.0112 378.566 46.6165 380.83 43.8306C383.095 41.0446 386.134 38.9925 389.564 37.9337C392.994 36.8749 396.661 36.8569 400.102 37.882C403.542 38.9072 406.601 40.9294 408.893 43.693C411.184 46.4566 412.604 49.8375 412.974 53.4083C413.344 56.9791 412.647 60.5794 410.971 63.7541C409.856 65.863 408.336 67.7314 406.497 69.2523C404.659 70.7732 402.539 71.9169 400.259 72.6179C397.978 73.3189 395.582 73.5635 393.207 73.3377C390.832 73.1119 388.525 72.4201 386.417 71.302L386.434 71.328Z" fill="#E4E9F9"/>
<path d="M200.022 113.714C201.468 111.698 202.669 109.517 203.601 107.217C204.534 104.919 205.196 102.52 205.572 100.069L199.023 98.4534C199.306 96.2464 199.288 94.0112 198.971 91.8089L205.512 90.0718C204.686 85.1611 202.723 80.5119 199.779 76.496L194.003 79.9703C192.644 78.203 191.052 76.6281 189.269 75.2887L192.691 69.478C190.674 68.0583 188.5 66.8751 186.212 65.9516C183.907 65.0109 181.499 64.3462 179.038 63.9713L177.431 70.5203C175.221 70.2376 172.983 70.2552 170.777 70.5724L169.084 64.0321C164.172 64.8516 159.521 66.8154 155.508 69.7646L158.982 75.5406C157.222 76.9014 155.651 78.4903 154.309 80.2656L148.49 76.8521C145.595 80.902 143.693 85.5764 142.94 90.4973L149.498 92.1129C149.212 94.3225 149.227 96.5605 149.541 98.7661L143.009 100.503C143.828 105.414 145.788 110.065 148.733 114.079L154.509 110.605C155.886 112.35 157.493 113.902 159.286 115.217L155.812 121.045C159.859 123.952 164.539 125.854 169.466 126.595L171.073 120.046C173.283 120.329 175.521 120.311 177.726 119.994L179.463 126.534C184.376 125.712 189.028 123.752 193.048 120.81L189.573 115.026C191.338 113.67 192.91 112.08 194.246 110.301L200.022 113.714ZM168.302 109.953C165.403 108.773 162.918 106.76 161.163 104.168C159.408 101.576 158.461 98.522 158.442 95.3917C158.423 92.2615 159.332 89.1959 161.056 86.5827C162.779 83.9695 165.239 81.926 168.123 80.7109C171.008 79.4957 174.189 79.1633 177.262 79.7559C180.336 80.3484 183.165 81.8392 185.391 84.0397C187.618 86.2402 189.142 89.0515 189.77 92.1181C190.398 95.1847 190.103 98.3688 188.922 101.268C187.338 105.153 184.277 108.251 180.41 109.879C176.543 111.508 172.188 111.535 168.302 109.953ZM170.039 105.706C167.981 104.867 166.218 103.437 164.972 101.597C163.726 99.7559 163.054 97.5872 163.041 95.3647C163.028 93.1422 163.674 90.9656 164.897 89.1102C166.121 87.2548 167.867 85.8037 169.915 84.9406C171.963 84.0774 174.221 83.8408 176.404 84.2607C178.586 84.6807 180.595 85.7382 182.177 87.2998C183.758 88.8613 184.841 90.8567 185.289 93.0337C185.737 95.2107 185.529 97.4716 184.692 99.5305C184.136 100.899 183.315 102.145 182.277 103.197C181.239 104.248 180.004 105.085 178.642 105.659C177.28 106.232 175.819 106.532 174.341 106.54C172.863 106.548 171.399 106.265 170.03 105.706H170.039Z" fill="#E4E9F9"/>
<path d="M226.027 53.479C227.172 52.1742 228.16 50.74 228.972 49.2056C229.786 47.6709 230.413 46.0437 230.839 44.359L226.392 42.7869C226.744 41.2674 226.887 39.7069 226.818 38.1487L231.491 37.4191C231.263 33.9403 230.222 30.5636 228.451 27.5609L224.177 29.602C223.357 28.2773 222.361 27.0704 221.215 26.0148L223.995 22.2018C222.692 21.0519 221.258 20.0606 219.721 19.2487C218.184 18.4382 216.557 17.8087 214.875 17.3726L213.303 21.8196C211.783 21.4717 210.223 21.3285 208.665 21.394L207.926 16.7211C204.448 16.9527 201.072 17.9937 198.068 19.7611L200.109 24.0171C198.787 24.8444 197.581 25.8433 196.522 26.9876L192.709 24.1995C190.408 26.8175 188.759 29.9425 187.897 33.3195L192.344 34.9003C191.991 36.4197 191.848 37.9802 191.919 39.5384L187.246 40.2594C187.472 43.7384 188.513 47.1154 190.286 50.1176L194.559 48.0852C195.372 49.4147 196.363 50.6273 197.503 51.6897L194.715 55.5027C197.336 57.802 200.46 59.4533 203.835 60.3233L205.416 55.8675C206.933 56.2183 208.49 56.3643 210.046 56.3018L210.775 60.966C214.266 60.7333 217.653 59.6799 220.659 57.8913L218.627 53.6266C219.948 52.7989 221.155 51.8 222.214 50.6561L226.027 53.479ZM205.642 45.8964C204.248 45.1593 203.104 44.0255 202.354 42.6383C201.605 41.2511 201.283 39.6728 201.431 38.103C201.578 36.5332 202.187 35.0422 203.182 33.8187C204.176 32.5951 205.511 31.6939 207.018 31.2289C208.525 30.764 210.135 30.7561 211.646 31.2064C213.157 31.6567 214.501 32.5448 215.507 33.7586C216.514 34.9724 217.138 36.4573 217.3 38.0257C217.463 39.594 217.157 41.1753 216.421 42.5697C215.432 44.4392 213.741 45.8395 211.72 46.4633C209.699 47.087 207.513 46.8831 205.642 45.8964Z" fill="#E4E9F9"/>
<path d="M346.167 4.20503C346.169 4.84138 345.982 5.46391 345.629 5.99373C345.277 6.52355 344.775 6.93681 344.188 7.18112C343.6 7.42543 342.953 7.48981 342.329 7.36608C341.705 7.24236 341.131 6.93611 340.681 6.48614C340.231 6.03617 339.925 5.46275 339.801 4.83854C339.678 4.21434 339.742 3.56745 339.986 2.97987C340.231 2.39229 340.644 1.89046 341.174 1.538C341.703 1.18553 342.326 0.998294 342.962 1.00001C343.812 1.00001 344.628 1.33768 345.229 1.93874C345.83 2.5398 346.167 3.35501 346.167 4.20503Z" stroke="#ADBBF9" stroke-width="1.01018" stroke-linejoin="round"/>
<path d="M557.603 262.778C557.603 263.414 557.415 264.036 557.061 264.564C556.708 265.093 556.205 265.505 555.618 265.748C555.03 265.991 554.383 266.054 553.76 265.929C553.136 265.805 552.563 265.498 552.114 265.047C551.665 264.597 551.36 264.024 551.237 263.4C551.114 262.776 551.179 262.129 551.423 261.542C551.668 260.955 552.081 260.454 552.611 260.102C553.14 259.75 553.762 259.563 554.398 259.564C554.82 259.564 555.237 259.648 555.627 259.809C556.016 259.971 556.37 260.208 556.668 260.506C556.965 260.805 557.201 261.159 557.362 261.549C557.523 261.939 557.605 262.356 557.603 262.778Z" stroke="#ADBBF9" stroke-width="1.01018" stroke-linejoin="round"/>
<path d="M404.37 129.835C404.372 130.471 404.185 131.094 403.832 131.624C403.48 132.153 402.978 132.567 402.39 132.811C401.803 133.055 401.156 133.12 400.532 132.996C399.908 132.872 399.334 132.566 398.884 132.116C398.434 131.666 398.128 131.093 398.004 130.468C397.88 129.844 397.945 129.197 398.189 128.61C398.433 128.022 398.847 127.52 399.377 127.168C399.906 126.815 400.529 126.628 401.165 126.63C402.015 126.632 402.828 126.971 403.429 127.571C404.03 128.172 404.368 128.986 404.37 129.835Z" stroke="#ADBBF9" stroke-width="1.01018" stroke-linejoin="round"/>
<path d="M7.56473 167.878C7.56645 168.514 7.37943 169.136 7.02735 169.666C6.67527 170.196 6.17396 170.609 5.58689 170.853C4.99981 171.098 4.35337 171.163 3.7294 171.04C3.10543 170.917 2.53199 170.611 2.08168 170.162C1.63137 169.713 1.32443 169.141 1.19972 168.517C1.07501 167.893 1.13815 167.247 1.38113 166.659C1.62411 166.071 2.03601 165.569 2.56469 165.215C3.09336 164.862 3.71504 164.673 4.35102 164.673C5.20185 164.673 6.01795 165.01 6.62039 165.611C7.22283 166.212 7.56243 167.027 7.56473 167.878Z" stroke="#ADBBF9" stroke-width="1.01018" stroke-linejoin="round"/>
<path d="M138.44 47.6074C138.442 48.2438 138.255 48.8663 137.902 49.3961C137.55 49.926 137.048 50.3392 136.461 50.5835C135.873 50.8278 135.226 50.8922 134.602 50.7685C133.978 50.6448 133.404 50.3385 132.954 49.8885C132.504 49.4386 132.198 48.8652 132.074 48.2409C131.951 47.6167 132.015 46.9699 132.259 46.3823C132.504 45.7947 132.917 45.2929 133.447 44.9404C133.977 44.5879 134.599 44.4007 135.235 44.4024C136.085 44.4024 136.901 44.7401 137.502 45.3411C138.103 45.9422 138.44 46.7574 138.44 47.6074Z" stroke="#ADBBF9" stroke-width="1.01018" stroke-linejoin="round"/>
<path d="M176.449 33.0154C176.451 33.449 176.324 33.8734 176.084 34.2347C175.844 34.596 175.502 34.8778 175.102 35.0446C174.702 35.2113 174.261 35.2554 173.835 35.1712C173.41 35.087 173.019 34.8784 172.713 34.5718C172.406 34.2651 172.197 33.8743 172.113 33.4489C172.029 33.0236 172.073 32.5827 172.24 32.1824C172.407 31.7821 172.688 31.4404 173.05 31.2005C173.411 30.9607 173.835 30.8336 174.269 30.8353C174.847 30.8353 175.402 31.065 175.811 31.4738C176.219 31.8827 176.449 32.4372 176.449 33.0154Z" stroke="#ADBBF9" stroke-width="1.01018" stroke-linejoin="round"/>
<path d="M531.642 187.404C531.642 187.835 531.514 188.256 531.274 188.615C531.035 188.973 530.694 189.253 530.296 189.418C529.898 189.583 529.459 189.626 529.036 189.542C528.613 189.458 528.225 189.25 527.92 188.945C527.615 188.64 527.408 188.252 527.323 187.829C527.239 187.406 527.282 186.968 527.447 186.569C527.612 186.171 527.892 185.831 528.25 185.591C528.609 185.351 529.03 185.224 529.462 185.224C530.04 185.224 530.594 185.453 531.003 185.862C531.412 186.271 531.642 186.825 531.642 187.404Z" stroke="#ADBBF9" stroke-width="1.01018" stroke-linejoin="round"/>
<path d="M373.197 117.397C374.401 117.397 375.378 116.421 375.378 115.217C375.378 114.013 374.401 113.037 373.197 113.037C371.993 113.037 371.017 114.013 371.017 115.217C371.017 116.421 371.993 117.397 373.197 117.397Z" stroke="#ADBBF9" stroke-width="1.01018" stroke-linejoin="round"/>
<path d="M461.157 60.3407C461.157 60.7704 461.03 61.1905 460.792 61.5482C460.554 61.906 460.216 62.1854 459.819 62.3513C459.423 62.5173 458.986 62.5625 458.565 62.4811C458.143 62.3998 457.754 62.1956 457.448 61.8942C457.142 61.5927 456.931 61.2075 456.843 60.7869C456.755 60.3664 456.794 59.9291 456.953 59.5302C457.113 59.1313 457.387 58.7885 457.741 58.5448C458.095 58.3011 458.513 58.1675 458.942 58.1606C459.232 58.156 459.519 58.209 459.787 58.3165C460.056 58.424 460.3 58.5838 460.507 58.7867C460.713 58.9896 460.876 59.2315 460.988 59.4983C461.1 59.7651 461.157 60.0515 461.157 60.3407Z" stroke="#ADBBF9" stroke-width="1.01018" stroke-linejoin="round"/>
<path d="M456.51 220.114C456.509 220.545 456.379 220.965 456.139 221.323C455.898 221.68 455.557 221.958 455.159 222.122C454.76 222.286 454.322 222.327 453.9 222.242C453.477 222.157 453.09 221.949 452.786 221.644C452.482 221.338 452.275 220.95 452.191 220.527C452.108 220.105 452.152 219.667 452.317 219.269C452.482 218.871 452.762 218.531 453.12 218.292C453.478 218.053 453.899 217.925 454.33 217.925C454.617 217.925 454.901 217.982 455.167 218.092C455.432 218.202 455.672 218.363 455.875 218.567C456.077 218.77 456.238 219.011 456.347 219.277C456.456 219.542 456.511 219.827 456.51 220.114Z" stroke="#ADBBF9" stroke-width="1.01018" stroke-linejoin="round"/>
<path d="M118.02 240.994C118.019 241.425 117.889 241.846 117.649 242.203C117.408 242.561 117.067 242.839 116.669 243.002C116.27 243.166 115.832 243.208 115.41 243.123C114.987 243.038 114.6 242.829 114.296 242.524C113.992 242.219 113.785 241.83 113.701 241.408C113.618 240.985 113.662 240.547 113.827 240.149C113.992 239.751 114.272 239.412 114.63 239.172C114.988 238.933 115.409 238.806 115.84 238.806C116.127 238.806 116.411 238.862 116.677 238.972C116.942 239.082 117.182 239.244 117.385 239.447C117.587 239.65 117.748 239.892 117.857 240.157C117.966 240.423 118.022 240.707 118.02 240.994Z" stroke="#ADBBF9" stroke-width="1.01018" stroke-linejoin="round"/>
<path d="M124.543 141.352C124.545 141.785 124.418 142.209 124.179 142.571C123.939 142.932 123.598 143.213 123.198 143.38C122.798 143.547 122.358 143.592 121.933 143.509C121.508 143.425 121.117 143.217 120.81 142.912C120.503 142.606 120.294 142.216 120.208 141.791C120.123 141.366 120.166 140.926 120.332 140.525C120.497 140.125 120.778 139.782 121.138 139.542C121.498 139.301 121.921 139.172 122.355 139.172C122.642 139.171 122.926 139.226 123.192 139.335C123.457 139.445 123.698 139.605 123.902 139.807C124.105 140.01 124.266 140.251 124.377 140.516C124.487 140.781 124.543 141.065 124.543 141.352Z" stroke="#ADBBF9" stroke-width="1.01018" stroke-linejoin="round"/>
<path d="M545.061 151.384H542.134C541.611 151.384 541.188 151.808 541.188 152.331V155.258C541.188 155.781 541.611 156.205 542.134 156.205H545.061C545.584 156.205 546.008 155.781 546.008 155.258V152.331C546.008 151.808 545.584 151.384 545.061 151.384Z" fill="#E4E9F9"/>
<path d="M95.8981 251.773H92.971C92.4482 251.773 92.0243 252.197 92.0243 252.72V255.647C92.0243 256.17 92.4482 256.594 92.971 256.594H95.8981C96.421 256.594 96.8449 256.17 96.8449 255.647V252.72C96.8449 252.197 96.421 251.773 95.8981 251.773Z" fill="#E4E9F9"/>
<path d="M90.8257 74.1162H87.8986C87.3758 74.1162 86.9519 74.5401 86.9519 75.0629V77.99C86.9519 78.5129 87.3758 78.9368 87.8986 78.9368H90.8257C91.3486 78.9368 91.7725 78.5129 91.7725 77.99V75.0629C91.7725 74.5401 91.3486 74.1162 90.8257 74.1162Z" fill="#E4E9F9"/>
<path d="M465.752 35.1956H460.15C459.143 35.1956 458.326 36.0122 458.326 37.0196V42.6218C458.326 43.6292 459.143 44.4458 460.15 44.4458H465.752C466.76 44.4458 467.576 43.6292 467.576 42.6218V37.0196C467.576 36.0122 466.76 35.1956 465.752 35.1956Z" fill="#E4E9F9"/>
<path d="M413.421 179.439H410.494C409.971 179.439 409.547 179.863 409.547 180.386V183.313C409.547 183.835 409.971 184.259 410.494 184.259H413.421C413.944 184.259 414.368 183.835 414.368 183.313V180.386C414.368 179.863 413.944 179.439 413.421 179.439Z" fill="#E4E9F9"/>
<path d="M354.41 44.6283H201.968C197.492 44.6283 193.864 48.2565 193.864 52.732V339.768C193.864 344.244 197.492 347.872 201.968 347.872H354.41C358.886 347.872 362.514 344.244 362.514 339.768V52.732C362.514 48.2565 358.886 44.6283 354.41 44.6283Z" fill="#7AB4FF"/>
<path d="M354.41 45.0625C356.443 45.0671 358.391 45.8766 359.829 47.3139C361.266 48.7513 362.075 50.6993 362.08 52.732V339.768C362.078 341.801 361.269 343.751 359.831 345.189C358.393 346.626 356.444 347.435 354.41 347.437H201.968C199.935 347.435 197.985 346.626 196.547 345.189C195.11 343.751 194.301 341.801 194.299 339.768V52.732C194.301 50.6986 195.11 48.7492 196.547 47.3114C197.985 45.8736 199.935 45.0648 201.968 45.0625H354.41ZM354.41 44.194H201.968C199.704 44.194 197.532 45.0935 195.931 46.6947C194.329 48.2959 193.43 50.4676 193.43 52.732V339.768C193.43 342.032 194.329 344.204 195.931 345.805C197.532 347.406 199.704 348.306 201.968 348.306H354.41C356.675 348.306 358.847 347.406 360.448 345.805C362.049 344.204 362.949 342.032 362.949 339.768V52.732C362.949 50.4676 362.049 48.2959 360.448 46.6947C358.847 45.0935 356.675 44.194 354.41 44.194Z" fill="#849CF4"/>
<path d="M285.933 334.357C285.934 335.889 285.481 337.388 284.631 338.663C283.781 339.939 282.571 340.933 281.156 341.521C279.74 342.109 278.182 342.263 276.679 341.965C275.175 341.667 273.794 340.93 272.71 339.847C271.625 338.764 270.886 337.383 270.587 335.88C270.287 334.377 270.44 332.819 271.026 331.403C271.612 329.986 272.605 328.776 273.88 327.924C275.154 327.072 276.652 326.618 278.185 326.618C280.238 326.618 282.208 327.433 283.66 328.884C285.113 330.335 285.93 332.303 285.933 334.357Z" stroke="#388BFF" stroke-width="1.01018" stroke-miterlimit="10"/>
<mask id="mask0_428_1579" style="mask-type:luminance" maskUnits="userSpaceOnUse" x="193" y="44" width="170" height="305">
<path d="M354.41 44.194H201.968C197.253 44.194 193.43 48.0166 193.43 52.732V339.768C193.43 344.483 197.253 348.306 201.968 348.306H354.41C359.126 348.306 362.949 344.483 362.949 339.768V52.732C362.949 48.0166 359.126 44.194 354.41 44.194Z" fill="white"/>
</mask>
<g mask="url(#mask0_428_1579)">
<path d="M318.339 11.2491L191.484 355.975H228.364L355.21 11.2491H318.339Z" fill="url(#paint0_linear_428_1579)"/>
<path d="M366.614 11.2491L239.759 355.975H255.394L382.248 11.2491H366.614Z" fill="url(#paint1_linear_428_1579)"/>
</g>
<path d="M361.593 72.5181H194.785V319.982H361.593V72.5181Z" fill="white"/>
<path d="M268.657 56.8143H292.108C292.357 56.8143 292.595 56.9131 292.771 57.089C292.947 57.2649 293.046 57.5035 293.046 57.7523C293.049 57.991 292.961 58.2218 292.799 58.3977C292.638 58.5736 292.415 58.6814 292.177 58.6991H268.726C268.475 58.6991 268.234 58.5993 268.057 58.4218C267.879 58.2442 267.779 58.0034 267.779 57.7523C267.779 57.5137 267.869 57.2839 268.032 57.1096C268.195 56.9353 268.418 56.8297 268.657 56.8143Z" stroke="#388BFF" stroke-width="1.01018" stroke-miterlimit="10"/>
<path d="M263.393 58.7251C263.93 58.7251 264.366 58.2896 264.366 57.7523C264.366 57.2151 263.93 56.7795 263.393 56.7795C262.856 56.7795 262.42 57.2151 262.42 57.7523C262.42 58.2896 262.856 58.7251 263.393 58.7251Z" stroke="#388BFF" stroke-width="1.01018" stroke-miterlimit="10"/>
<path d="M278.185 168.356H206.18V241.125H278.185V168.356Z" fill="#D3DBF4"/>
<path d="M257.642 196.111C258.959 187.962 253.42 180.288 245.271 178.971C237.122 177.653 229.448 183.192 228.131 191.341C226.814 199.491 232.352 207.165 240.501 208.482C248.651 209.799 256.325 204.26 257.642 196.111Z" stroke="white" stroke-width="1.01306" stroke-miterlimit="10"/>
<path d="M242.183 209.187C247.853 209.187 252.449 202.514 252.449 194.283C252.449 186.051 247.853 179.378 242.183 179.378C236.512 179.378 231.916 186.051 231.916 194.283C231.916 202.514 236.512 209.187 242.183 209.187Z" stroke="white" stroke-width="1.01018" stroke-miterlimit="10"/>
<path d="M242.182 209.187C244.394 209.187 246.186 202.514 246.186 194.283C246.186 186.051 244.394 179.378 242.182 179.378C239.971 179.378 238.178 186.051 238.178 194.283C238.178 202.514 239.971 209.187 242.182 209.187Z" stroke="white" stroke-width="1.01018" stroke-miterlimit="10"/>
<path d="M227.278 194.283H257.096" stroke="white" stroke-width="1.01018" stroke-miterlimit="10"/>
<path d="M228.841 200.927C231.69 199.972 236.598 199.346 242.183 199.346C247.767 199.346 252.675 199.972 255.532 200.927" stroke="white" stroke-width="1.01018" stroke-miterlimit="10"/>
<path d="M233.167 206.147C238.968 204.101 245.292 204.086 251.102 206.104" stroke="white" stroke-width="1.01018" stroke-miterlimit="10"/>
<path d="M228.841 187.716C231.69 188.663 236.598 189.297 242.183 189.297C247.767 189.297 252.675 188.663 255.532 187.716" stroke="white" stroke-width="1.01018" stroke-miterlimit="10"/>
<path d="M233.167 182.488C238.968 184.534 245.292 184.549 251.102 182.531" stroke="white" stroke-width="1.01018" stroke-miterlimit="10"/>
<path d="M212.304 228.105H272.061V224.257H212.304V228.105Z" fill="#E3EAFC"/>
<path d="M236.346 220.948H272.061V217.1H236.346V220.948Z" fill="#E3EAFC"/>
<path d="M232.289 217.109H212.304V220.956H232.289V217.109Z" fill="#E3EAFC"/>
<path d="M212.304 235.271H272.061V231.423H212.304V235.271Z" fill="#E3EAFC"/>
<path d="M350.12 168.356H278.115V241.125H350.12V168.356Z" fill="#F0F1FF"/>
<path d="M284.239 185.171H343.996V181.324H284.239V185.171Z" fill="#E4E9F9"/>
<path d="M284.239 192.328H343.996V188.481H284.239V192.328Z" fill="#E4E9F9"/>
<path d="M284.239 199.485H302.844V195.638H284.239V199.485Z" fill="#E4E9F9"/>
<path d="M307.829 199.485H343.918V195.638H307.829V199.485Z" fill="#E4E9F9"/>
<path d="M284.239 206.642H343.996V202.795H284.239V206.642Z" fill="#E4E9F9"/>
<path d="M284.239 213.791H343.996V209.943H284.239V213.791Z" fill="#E4E9F9"/>
<path d="M284.239 220.948H343.996V217.1H284.239V220.948Z" fill="#E4E9F9"/>
<path d="M326.738 228.105H343.996V224.257H326.738V228.105Z" fill="#E4E9F9"/>
<path d="M284.239 228.105H322.621V224.257H284.239V228.105Z" fill="#E4E9F9"/>
<path d="M284.239 235.271H343.996V231.423H284.239V235.271Z" fill="#E4E9F9"/>
<path d="M328.171 178.015H343.996V174.167H328.171V178.015Z" fill="#E4E9F9"/>
<path d="M324.115 174.167H284.239V178.014H324.115V174.167Z" fill="#E4E9F9"/>
<path d="M278.185 241.116H206.18V313.885H278.185V241.116Z" fill="#F0F1FF"/>
<path d="M272.061 297.043H212.304V300.891H272.061V297.043Z" fill="#E4E9F9"/>
<path d="M272.061 289.886H212.304V293.734H272.061V289.886Z" fill="#E4E9F9"/>
<path d="M272.061 282.729H256.696V286.577H272.061V282.729Z" fill="#E4E9F9"/>
<path d="M251.719 282.729H212.39V286.577H251.719V282.729Z" fill="#E4E9F9"/>
<path d="M272.061 275.581H212.304V279.428H272.061V275.581Z" fill="#E4E9F9"/>
<path d="M272.061 268.424H212.304V272.272H272.061V268.424Z" fill="#E4E9F9"/>
<path d="M272.061 261.267H212.304V265.114H272.061V261.267Z" fill="#E4E9F9"/>
<path d="M240.072 254.11H212.304V257.957H240.072V254.11Z" fill="#E4E9F9"/>
<path d="M272.061 254.11H244.189V257.957H272.061V254.11Z" fill="#E4E9F9"/>
<path d="M272.061 246.953H212.304V250.8H272.061V246.953Z" fill="#E4E9F9"/>
<path d="M240.15 304.2H212.304V308.048H240.15V304.2Z" fill="#E4E9F9"/>
<path d="M244.215 308.057H272.061V304.209H244.215V308.057Z" fill="#E4E9F9"/>
<path d="M350.12 241.116H278.115V313.885H350.12V241.116Z" fill="#D3DBF4"/>
<path d="M328.761 291.198L299.881 290.859L296.642 270.1L331.549 270.039L328.761 291.198Z" fill="#C2CFEF"/>
<path d="M331.549 270.039L296.642 270.1L314.074 255.717L331.549 270.039Z" fill="#C2CFEF"/>
<path d="M325.745 267.995L301.92 268.037L301.955 288.162L325.78 288.12L325.745 267.995Z" fill="white"/>
<path d="M296.642 270.1L296.685 292.796L314.117 282.217L296.642 270.1Z" fill="#E3EAFC"/>
<path d="M331.55 270.039L331.593 292.735L314.118 282.217L331.55 270.039Z" fill="#E3EAFC"/>
<path d="M331.593 292.735L296.685 292.796L314.109 278.412L331.593 292.735Z" fill="#E3EAFC"/>
<path d="M296.685 292.796L314.109 278.412L331.593 292.735" stroke="#D3DBF4" stroke-width="1.01018" stroke-miterlimit="10"/>
<path d="M316.619 280.471L331.549 270.039" stroke="#D3DBF4" stroke-width="1.01018" stroke-miterlimit="10"/>
<path d="M311.616 280.479L296.642 270.1" stroke="#D3DBF4" stroke-width="1.01018" stroke-miterlimit="10"/>
<path d="M300.194 305.321H328.041V301.473H300.194V305.321Z" fill="#E3EAFC"/>
<path d="M350.198 89.2988H206.18V161.902H350.198V89.2988Z" fill="#D3DBF4"/>
<path d="M276.161 104.759L343.996 104.759V99.739L276.161 99.739V104.759Z" fill="#E3EAFC"/>
<path d="M276.161 114.105L343.996 114.105V109.085L276.161 109.085V114.105Z" fill="#E3EAFC"/>
<path d="M276.161 123.442L343.996 123.442V118.422L276.161 118.422V123.442Z" fill="#E3EAFC"/>
<path d="M276.161 132.779H343.996V127.759L276.161 127.759V132.779Z" fill="#E3EAFC"/>
<path d="M276.161 151.462H343.996V146.442H276.161V151.462Z" fill="#E3EAFC"/>
<path d="M303.451 142.117H343.996V137.096H303.451V142.117Z" fill="#E3EAFC"/>
<path d="M298.848 137.096H276.161V142.116H298.848V137.096Z" fill="#E3EAFC"/>
<path d="M265.747 99.9388H214.432V151.254H265.747V99.9388Z" fill="#E3EAFC"/>
<path d="M244.849 115.981L260.466 142.69H229.232L244.849 115.981Z" fill="white"/>
<path d="M229.024 124.762L232.359 131.181L226.383 142.69H219.721L229.024 124.762Z" fill="white"/>
<path d="M221.033 114.435C221.033 115.007 221.202 115.566 221.52 116.042C221.838 116.518 222.29 116.888 222.818 117.107C223.347 117.326 223.928 117.383 224.489 117.272C225.05 117.16 225.566 116.885 225.97 116.48C226.375 116.076 226.65 115.56 226.762 114.999C226.873 114.438 226.816 113.857 226.597 113.328C226.378 112.8 226.008 112.348 225.532 112.03C225.056 111.712 224.497 111.543 223.925 111.543C223.158 111.543 222.422 111.848 221.88 112.39C221.337 112.932 221.033 113.668 221.033 114.435Z" fill="white"/>
<path d="M237.57 83.3578H318.808C319.42 83.3555 320.006 83.1113 320.439 82.6786C320.872 82.2458 321.116 81.6594 321.118 81.0474C321.116 80.4353 320.872 79.849 320.439 79.4162C320.006 78.9834 319.42 78.7393 318.808 78.737H237.57C237.267 78.737 236.967 78.7968 236.686 78.9129C236.406 79.029 236.151 79.1992 235.937 79.4137C235.722 79.6282 235.552 79.8829 235.436 80.1632C235.32 80.4436 235.26 80.744 235.26 81.0474C235.26 81.3508 235.32 81.6512 235.436 81.9315C235.552 82.2119 235.722 82.4665 235.937 82.6811C236.151 82.8956 236.406 83.0658 236.686 83.1819C236.967 83.298 237.267 83.3578 237.57 83.3578Z" fill="#D3DBF4"/>
<path d="M278.185 168.356V313.885" stroke="white" stroke-width="1.01018" stroke-miterlimit="10"/>
<path d="M206.18 241.116H350.198" stroke="white" stroke-width="1.01018" stroke-miterlimit="10"/>
<path d="M493.685 324.134L495.188 348.923L494.38 356.74L464.849 356.583C464.671 356.582 464.495 356.546 464.331 356.477C464.167 356.408 464.018 356.307 463.893 356.18C463.768 356.054 463.67 355.904 463.603 355.739C463.535 355.574 463.502 355.398 463.503 355.22C463.503 354.948 463.586 354.682 463.742 354.459C463.897 354.235 464.116 354.064 464.371 353.969L477.556 347.889L474.586 322.093" fill="#FFCBBD"/>
<path d="M462.104 356.236C462.417 355.255 462.973 354.16 463.563 353.908L477.547 347.889C485.251 351.007 495.223 348.619 495.223 348.619L495.987 359.146C495.988 359.229 495.973 359.311 495.941 359.388C495.909 359.465 495.863 359.535 495.803 359.594C495.744 359.652 495.674 359.698 495.596 359.728C495.519 359.759 495.436 359.773 495.353 359.771L462.347 359.597C461.652 359.597 462.095 356.262 462.104 356.236Z" fill="#4A82BD"/>
<path d="M474.525 348.488C475.305 349.513 475.967 350.623 476.497 351.798" stroke="#38628E" stroke-width="1.01018" stroke-miterlimit="10"/>
<path d="M472.761 349.539C473.404 350.414 473.946 351.358 474.377 352.354" stroke="#38628E" stroke-width="1.01018" stroke-miterlimit="10"/>
<path d="M471.276 350.312C471.842 351.145 472.35 352.016 472.796 352.918" stroke="#38628E" stroke-width="1.01018" stroke-miterlimit="10"/>
<path d="M495.814 357.504L461.957 357.322" stroke="#38628E" stroke-width="1.01018" stroke-miterlimit="10"/>
<path d="M495.509 352.466C495.509 352.466 487.692 352.519 486.963 357.461" stroke="#38628E" stroke-width="1.01018" stroke-miterlimit="10"/>
<path d="M466.429 352.675C467.49 354.142 468.398 355.714 469.139 357.365" stroke="#38628E" stroke-width="1.01018" stroke-miterlimit="10"/>
<path d="M470.417 228.869C470.417 228.869 466.169 263.751 467.811 289.087C469.452 314.423 471.78 343.807 471.78 343.807H497.472C497.472 343.807 494.146 300.3 494.511 279.932C494.919 257.35 501.815 228.852 501.815 228.852" fill="#145ABB"/>
<path d="M492.244 343.824C492.244 343.824 488.917 300.318 489.282 279.95C489.69 257.367 496.587 228.869 496.587 228.869" stroke="#121649" stroke-width="0.757636" stroke-miterlimit="10"/>
<path d="M527.395 290.928L551.219 298.598L558.411 301.725L549.317 329.849C549.263 330.022 549.175 330.183 549.058 330.321C548.94 330.459 548.796 330.572 548.634 330.653C548.472 330.734 548.295 330.782 548.114 330.793C547.932 330.804 547.751 330.778 547.58 330.717C547.32 330.633 547.092 330.472 546.926 330.254C546.76 330.037 546.664 329.775 546.651 329.501L544.931 315.101L520.186 307.066" fill="#FFCBBD"/>
<path d="M548.197 332.307C547.328 331.708 546.46 330.83 546.46 330.205L544.931 315.057C550.238 308.656 551.011 298.433 551.011 298.433L561.277 300.882C561.357 300.908 561.43 300.949 561.493 301.003C561.556 301.057 561.608 301.123 561.645 301.198C561.682 301.272 561.704 301.353 561.71 301.436C561.715 301.519 561.704 301.603 561.677 301.681L551.523 333.097C551.263 333.749 548.223 332.359 548.197 332.307Z" fill="#4A82BD"/>
<path d="M544.566 318.123C545.78 317.692 547.039 317.401 548.318 317.255" stroke="#38628E" stroke-width="1.01018" stroke-miterlimit="10"/>
<path d="M545.035 320.121C546.065 319.771 547.132 319.538 548.214 319.426" stroke="#38628E" stroke-width="1.01018" stroke-miterlimit="10"/>
<path d="M545.322 321.771C546.277 321.479 547.253 321.255 548.24 321.102" stroke="#38628E" stroke-width="1.01018" stroke-miterlimit="10"/>
<path d="M559.601 300.561L549.187 332.767" stroke="#38628E" stroke-width="1.01018" stroke-miterlimit="10"/>
<path d="M554.711 299.353C554.711 299.353 552.392 306.841 556.882 309.003" stroke="#38628E" stroke-width="1.01018" stroke-miterlimit="10"/>
<path d="M546.112 327.096C546.112 327.096 549.855 325.914 551.401 325.94" stroke="#38628E" stroke-width="1.01018" stroke-miterlimit="10"/>
<path d="M512.247 229.99C512.247 229.99 514.531 239.909 514.531 244.165C514.531 247.291 513.289 249.376 512.629 251.704C512.35 252.68 512.187 253.686 512.142 254.7C511.943 259.26 511.673 272.072 514.531 278.152C518.049 285.63 547.267 295.523 547.267 295.523L539.858 317.837C539.858 317.837 495.127 306.597 489.551 292.909C481.734 273.8 483.992 229.964 483.992 229.964" fill="#145ABB"/>
<path d="M494.962 299.353C492.356 297.312 490.463 295.167 489.568 292.961C481.751 273.852 484.009 230.016 484.009 230.016" stroke="#121649" stroke-width="0.757636" stroke-miterlimit="10"/>
<path d="M508.451 229.164C508.451 229.164 511.057 241.646 511.057 245.902C511.057 249.081 509.771 251.33 509.12 253.571C508.861 254.475 508.701 255.404 508.642 256.342C508.364 260.85 507.869 273.913 511.057 279.889C515.486 288.175 546.095 299.084 546.095 299.084" stroke="#121649" stroke-width="0.757636" stroke-miterlimit="10"/>
<path d="M480.362 232.474C480.362 232.474 479.971 241.481 481.23 242.558C482.009 243.225 482.839 243.83 483.714 244.364" stroke="#121649" stroke-width="0.757636" stroke-miterlimit="10"/>
<path d="M543.602 294.238L535.446 316.664" stroke="#121649" stroke-width="0.757636" stroke-miterlimit="10"/>
<path d="M471.415 339.403H497.133" stroke="#121649" stroke-width="0.757636" stroke-miterlimit="10"/>
<path d="M501.407 230.684C501.407 230.684 503.005 236.426 510.145 238.119" stroke="#121649" stroke-width="0.757636" stroke-miterlimit="10"/>
<path d="M469.591 237.121C469.591 237.121 476.036 235.236 478.016 230.684" stroke="#121649" stroke-width="0.757636" stroke-miterlimit="10"/>
<path d="M485.138 161.103L483.983 169.181C483.983 169.181 483.879 171.422 488.239 172.985C489.704 173.535 491.303 173.621 492.819 173.233C494.335 172.845 495.696 172 496.716 170.814L496.369 162.632" fill="#FFCBBB"/>
<path d="M484.496 150.385C484.496 150.385 478.894 159.748 482.759 163.492C486.285 166.888 494.05 164.76 494.745 163.57C495.44 162.38 499.87 151.922 497.455 150.481C493.182 147.918 486.893 146.355 484.496 150.385Z" fill="#FFCBBB"/>
<path d="M484.548 165.238C486.952 165.928 489.516 165.819 491.853 164.925" stroke="#EF977F" stroke-width="1.01018" stroke-miterlimit="10"/>
<path d="M483.558 144.297C484.296 138.764 490.992 142.907 493.72 145.434C494.588 146.19 499.322 147.597 500.104 148.396C500.911 149.176 501.473 150.176 501.719 151.271C501.854 152.245 501.783 153.236 501.511 154.181C501.054 155.877 500.473 157.538 499.774 159.149C499.044 160.886 497.733 164.447 495.205 164.074C494.707 164.06 494.229 163.869 493.859 163.535C493.723 163.332 493.628 163.104 493.58 162.864C493.533 162.624 493.533 162.377 493.581 162.137C493.671 161.345 493.907 160.577 494.276 159.87C493.755 160.009 493.216 160.322 492.712 160.122C492.547 160.061 492.469 159.896 492.374 159.748C492.035 159.21 492.443 155.631 494.111 154.224C491.705 153.086 489.82 152.982 487.371 151.949C485.94 151.394 484.708 150.423 483.835 149.161C482.802 147.806 483.332 145.973 483.558 144.297Z" fill="#191C4B"/>
<path d="M493.685 159.514C494.302 158.645 495.24 157.664 496.143 158.558C496.444 158.948 496.6 159.43 496.586 159.922C496.699 161.607 494.988 163.761 493.503 163.171C492.773 162.884 492.573 161.894 492.443 161.086" fill="#FFCBBB"/>
<path d="M485.729 154.52C485.729 154.52 483.306 156.891 483.306 157.707C483.306 158.524 485.121 159.019 485.121 159.019" stroke="#F7A794" stroke-width="0.505091" stroke-miterlimit="10"/>
<path d="M482.394 159.305L486.737 160.93C486.606 161.27 486.405 161.58 486.147 161.838C485.889 162.096 485.58 162.297 485.239 162.428C484.899 162.559 484.534 162.617 484.17 162.599C483.805 162.58 483.449 162.485 483.124 162.319C481.265 161.477 482.394 159.305 482.394 159.305Z" fill="white"/>
<path d="M483.888 153.191C483.851 153.233 483.819 153.28 483.792 153.33C483.792 153.373 483.731 153.425 483.697 153.477C483.634 153.573 483.576 153.671 483.523 153.773C483.492 153.86 483.492 153.955 483.523 154.042C483.549 154.125 483.605 154.196 483.679 154.242C483.718 154.265 483.761 154.28 483.805 154.287C483.85 154.293 483.896 154.291 483.939 154.28C483.983 154.268 484.024 154.248 484.06 154.221C484.096 154.194 484.126 154.159 484.148 154.12C484.209 154.02 484.261 153.916 484.305 153.807C484.365 153.677 484.417 153.547 484.47 153.417C484.5 153.344 484.5 153.263 484.47 153.191C484.433 153.136 484.382 153.094 484.322 153.069C484.292 153.056 484.259 153.05 484.226 153.05C484.194 153.05 484.161 153.056 484.131 153.069H484.061C484.012 153.092 483.972 153.132 483.948 153.182L483.888 153.191Z" fill="#212237"/>
<path d="M485.755 152.366C485.681 152.2 485.573 152.051 485.44 151.928C485.306 151.805 485.148 151.71 484.977 151.65C484.805 151.59 484.623 151.565 484.442 151.578C484.261 151.59 484.084 151.64 483.922 151.723" stroke="#212237" stroke-width="0.505091" stroke-linecap="round" stroke-linejoin="round"/>
<path d="M489.342 155.796L489.256 155.944C489.223 155.994 489.194 156.046 489.169 156.1L489.091 156.248C489.091 156.326 489.012 156.404 488.978 156.483C488.969 156.528 488.969 156.576 488.978 156.622C488.969 156.662 488.969 156.703 488.978 156.743C489.017 156.808 489.074 156.859 489.143 156.891C489.216 156.912 489.295 156.912 489.369 156.891C489.457 156.865 489.531 156.806 489.577 156.726C489.638 156.604 489.69 156.465 489.742 156.335C489.794 156.205 489.82 156.118 489.855 156.005C489.885 155.932 489.885 155.851 489.855 155.778C489.825 155.706 489.767 155.648 489.694 155.618C489.622 155.588 489.54 155.588 489.468 155.619C489.395 155.649 489.338 155.706 489.308 155.779L489.342 155.796Z" fill="#212237"/>
<path d="M489.49 153.799C489.49 153.799 490.81 153.651 491.766 155.388" stroke="#212237" stroke-width="0.505091" stroke-linecap="round" stroke-linejoin="round"/>
<path d="M466.351 125.709C465.995 121.01 466.629 107.712 465.804 107.365C464.979 107.018 464.64 111.517 464.015 111.109C463.39 110.7 463.45 103.726 462.53 103.595C461.288 103.422 461.661 110.544 461.661 110.544C461.661 110.544 460.914 102.727 459.785 102.901C458.994 103.013 459.29 108.981 459.116 111.291C458.986 108.772 458.248 104.09 457.431 104.229C456.615 104.368 456.771 109.067 456.693 112.194C456.563 110.24 456.172 105.967 455.407 106.053C454.643 106.14 454.408 117.249 454.391 126.612" fill="#FFCBBD"/>
<path d="M465.17 172.751C461.783 165.375 459.039 157.721 456.971 149.873C453.818 137.565 454.365 121.549 454.365 121.549L466.212 123.546C467.293 139.292 472.101 154.556 480.24 168.078" fill="#FFCBBD"/>
<path d="M456.814 112.742C457.787 114.218 459.081 115.964 459.021 118.874" stroke="#F7A794" stroke-width="1.01018" stroke-miterlimit="10"/>
<path d="M463.919 112.177C462.781 113.193 461.548 115.929 462.139 117.336" stroke="#F7A794" stroke-width="1.01018" stroke-miterlimit="10"/>
<path d="M504.482 123.442C506.251 121.37 507.77 119.096 509.007 116.667C510.245 114.238 511.195 111.673 511.838 109.024L504.82 106.644C505.336 104.254 505.526 101.806 505.385 99.3655L512.698 98.1148C512.264 92.6638 510.553 87.3914 507.704 82.7237L501.051 86.0069C499.721 83.9567 498.12 82.0956 496.291 80.4742L500.634 74.3942C496.477 70.8368 491.536 68.3156 486.216 67.0374L483.836 74.0554C481.446 73.5415 478.998 73.3487 476.557 73.4822L475.306 66.1688C469.856 66.6077 464.585 68.3182 459.915 71.1631L463.164 77.8684C461.106 79.1918 459.236 80.787 457.605 82.6108L451.525 78.3201C447.975 82.4673 445.456 87.3962 444.177 92.7036L451.195 95.0748C450.681 97.4677 450.489 99.9183 450.622 102.362L443.308 103.604C443.747 109.057 445.458 114.331 448.303 119.004L454.956 115.712C456.283 117.782 457.888 119.661 459.724 121.297L455.434 127.377C459.598 130.928 464.541 133.448 469.861 134.734L472.232 127.707C474.623 128.229 477.075 128.422 479.519 128.28L480.761 135.594C486.215 135.159 491.49 133.448 496.161 130.599L492.878 123.903C494.933 122.58 496.803 120.988 498.436 119.169L504.482 123.442ZM471.971 112.75C469.618 111.551 467.674 109.682 466.384 107.377C465.094 105.073 464.516 102.439 464.724 99.8061C464.931 97.1737 465.915 94.6619 467.55 92.5886C469.186 90.5152 471.399 88.9734 473.911 88.158C476.422 87.3427 479.119 87.2905 481.66 88.0081C484.202 88.7257 486.473 90.1808 488.187 92.1894C489.901 94.1979 490.981 96.6698 491.291 99.2922C491.6 101.915 491.124 104.57 489.924 106.922C488.316 110.075 485.521 112.46 482.154 113.553C478.788 114.646 475.125 114.357 471.971 112.75Z" fill="#ADBBF9"/>
<path d="M484.131 168.043C480.605 168.043 475.107 156.752 475.107 156.752L460.966 167.331C460.966 167.331 465.492 181.402 473.126 190.331" fill="#6B9BFB"/>
<path d="M476.305 159.019L461.878 169.85" stroke="#375370" stroke-width="1.01018" stroke-miterlimit="10"/>
<path d="M520.767 119.959C520.012 114.748 518.04 102.588 517.171 102.414C516.303 102.24 515.938 105.115 516.303 106.297C515.747 104.082 514.218 99.2439 513.298 99.2787C512.038 99.2787 513.61 106.288 513.61 106.288C513.61 106.288 511.508 98.7401 510.431 99.0963C509.667 99.3481 511.013 105.176 511.248 107.469C510.674 105.02 509.128 100.521 508.347 100.816C507.565 101.111 508.547 105.697 509.016 108.789C508.538 106.887 507.409 102.71 506.67 102.97C505.932 103.231 507.852 112.741 508.989 122.27" fill="#FFCBBD"/>
<path d="M518.318 168.556C520.373 160.706 521.748 152.695 522.426 144.609C523.399 131.928 520.081 116.259 520.081 116.259L508.79 120.281C510.459 135.976 508.375 151.843 502.71 166.575" fill="#FFCBBD"/>
<path d="M484.131 168.043C484.131 168.043 484.817 170.024 488.725 170.223C491.509 170.469 494.288 169.694 496.543 168.043C496.543 168.043 511.56 170.032 512.794 186.439C514.192 205.305 514.531 231.805 514.531 231.805H467.793C467.793 231.805 468.106 201.535 469.087 187.1C470.034 173.237 484.131 168.043 484.131 168.043Z" fill="#6B9BFB"/>
<path d="M512.742 188.481C516.023 180.099 518.58 171.451 520.385 162.632L505.367 155.362C505.367 155.362 501.798 165.325 496.569 168.043" fill="#6B9BFB"/>
<path d="M504.16 158.237L519.734 165.698" stroke="#375370" stroke-width="1.01018" stroke-miterlimit="10"/>
<path d="M467.793 229.19H514.505" stroke="#375370" stroke-width="1.01018" stroke-miterlimit="10"/>
<path d="M513.15 187.404C513.15 187.404 511.248 191.477 511.039 193.484" stroke="#375370" stroke-width="1.01018" stroke-miterlimit="10"/>
<path d="M472.562 176.633C470.766 179.862 469.588 183.396 469.087 187.056" stroke="#375370" stroke-width="1.01018" stroke-miterlimit="10"/>
<path d="M482.394 167.331C482.681 168.923 483.539 170.355 484.807 171.359C486.075 172.363 487.666 172.87 489.282 172.786C496.743 172.786 498.219 167.331 498.219 167.331" stroke="#375370" stroke-width="1.01018" stroke-miterlimit="10"/>
<path d="M516.268 106.297C516.268 106.244 516.338 106.383 516.355 106.436L516.468 106.644L516.659 107.07C516.783 107.353 516.89 107.643 516.98 107.938C517.166 108.53 517.294 109.138 517.362 109.754C517.175 109.501 517.017 109.227 516.893 108.937C516.641 108.381 516.455 107.799 516.338 107.2L516.268 106.74V106.505V106.383C516.268 106.383 516.268 106.201 516.268 106.297Z" fill="#EF977F"/>
<path d="M405.691 322.805L406.507 348.532L405.638 356.618L374.961 356.462C374.777 356.461 374.595 356.423 374.426 356.352C374.257 356.281 374.103 356.177 373.974 356.046C373.845 355.916 373.743 355.761 373.674 355.591C373.605 355.421 373.57 355.238 373.571 355.055C373.57 354.775 373.652 354.501 373.806 354.267C373.961 354.034 374.181 353.851 374.439 353.743L388.119 347.455L386.052 320.686" fill="#FFCBBD"/>
<path d="M372.216 356.106C372.537 355.09 373.137 353.943 373.736 353.682L388.241 347.437C396.24 350.677 406.594 348.202 406.594 348.202L407.384 359.128C407.384 359.214 407.367 359.299 407.334 359.378C407.3 359.458 407.251 359.529 407.19 359.589C407.128 359.649 407.055 359.696 406.975 359.727C406.895 359.759 406.81 359.773 406.724 359.771L372.459 359.597C371.747 359.589 372.207 356.132 372.216 356.106Z" fill="#3A4FC7"/>
<path d="M385.114 348.063C385.926 349.123 386.611 350.274 387.155 351.494" stroke="#121649" stroke-width="0.757636" stroke-miterlimit="10"/>
<path d="M383.273 349.157C383.943 350.063 384.509 351.042 384.958 352.076" stroke="#121649" stroke-width="0.757636" stroke-miterlimit="10"/>
<path d="M381.735 349.956C382.326 350.807 382.852 351.701 383.307 352.631" stroke="#121649" stroke-width="0.757636" stroke-miterlimit="10"/>
<path d="M407.193 357.417L372.068 357.235" stroke="#121649" stroke-width="0.757636" stroke-miterlimit="10"/>
<path d="M406.881 352.189C406.881 352.189 398.742 352.249 398.012 357.4" stroke="#121649" stroke-width="0.757636" stroke-miterlimit="10"/>
<path d="M376.707 352.406C376.707 352.406 379.052 355.732 379.512 357.27" stroke="#121649" stroke-width="0.757636" stroke-miterlimit="10"/>
<path d="M402.138 221.703C402.138 221.703 405.864 227.983 406.941 232.673C407.937 237.65 407.937 242.775 406.941 247.752L406.828 337.683H384.098C384.098 337.683 379.034 234.046 381.292 220.644" fill="#145ABB"/>
<path d="M387.572 337.683C387.572 337.683 382.508 234.046 384.767 220.644" stroke="#121649" stroke-width="0.757636" stroke-miterlimit="10"/>
<path d="M380.546 312.66L390.89 336.224L393.131 344.041L364.607 355.333C364.437 355.402 364.255 355.436 364.071 355.434C363.887 355.432 363.705 355.394 363.536 355.321C363.368 355.248 363.215 355.143 363.087 355.011C362.959 354.878 362.859 354.722 362.792 354.551C362.686 354.287 362.662 353.997 362.725 353.72C362.787 353.442 362.931 353.19 363.139 352.996L373.493 342.061L361.602 317.993" fill="#FFCBBD"/>
<path d="M361.897 356.045C361.819 354.985 361.95 353.7 362.41 353.24L373.545 342.035C382.17 342.035 390.847 335.903 390.847 335.903L395.659 345.744C395.693 345.825 395.71 345.911 395.71 345.999C395.71 346.087 395.693 346.174 395.659 346.255C395.625 346.335 395.575 346.409 395.512 346.47C395.45 346.532 395.375 346.58 395.294 346.612L363.4 359.198C362.766 359.458 361.897 356.08 361.897 356.045Z" fill="#427ED2"/>
<path d="M370.861 343.789C372.011 344.471 373.078 345.284 374.04 346.213" stroke="#121649" stroke-width="0.757636" stroke-miterlimit="10"/>
<path d="M369.575 345.483C370.531 346.077 371.419 346.773 372.225 347.559" stroke="#121649" stroke-width="0.757636" stroke-miterlimit="10"/>
<path d="M368.438 346.795C369.303 347.367 370.125 348.003 370.896 348.697" stroke="#121649" stroke-width="0.757636" stroke-miterlimit="10"/>
<path d="M394.851 344.232L362.184 357.157" stroke="#121649" stroke-width="0.757636" stroke-miterlimit="10"/>
<path d="M392.61 339.499C392.61 339.499 385.079 342.582 386.313 347.611" stroke="#121649" stroke-width="0.757636" stroke-miterlimit="10"/>
<path d="M364.685 350.946C364.685 350.946 368.107 353.161 369.106 354.421" stroke="#121649" stroke-width="0.757636" stroke-miterlimit="10"/>
<path d="M362.879 236.356C351.179 265.115 350.971 268.155 349.042 282.191C347.062 296.591 368.698 338.986 368.698 338.986L389.457 329.814C389.457 329.814 375.69 291.024 376.576 284.353C378.218 272.089 392.384 251.148 392.384 251.148C392.384 251.148 399.107 245.824 400.566 238.753C402.025 231.683 398.829 224.274 398.829 224.274" fill="#145ABB"/>
<path d="M384.246 239.744L393.539 236.816" stroke="#121649" stroke-width="0.757636" stroke-miterlimit="10"/>
<path d="M404.101 234.176L407.063 233.229" stroke="#121649" stroke-width="0.757636" stroke-miterlimit="10"/>
<path d="M369.827 235.488C369.827 235.488 355.357 266.921 353.385 281.322C351.414 295.723 372.45 336.91 372.45 336.91" stroke="#121649" stroke-width="0.757636" stroke-miterlimit="10"/>
<path d="M381.397 270.534C384.569 263.807 388.242 257.326 392.384 251.148C392.384 251.148 399.107 245.824 400.566 238.753" stroke="#121649" stroke-width="0.757636" stroke-miterlimit="10"/>
<path d="M360.907 165.194L366.874 175.556C366.874 175.556 363.313 183.278 353.663 179.613L351.197 174.141L360.907 165.194Z" fill="#FFCBBD"/>
<path d="M345.09 158.185C345.09 158.185 342.163 171.969 347.262 174.427C349.92 175.704 357.337 174.914 359.083 172.082C360.386 169.98 359.873 160.052 358.284 158.845C352.204 154.242 345.09 158.185 345.09 158.185Z" fill="#FFCBBD"/>
<path d="M358.006 154.111C355.783 150.212 351.24 150.993 343.857 155.188C342.876 155.753 340.722 155.953 340.696 157.091C340.696 158.585 341.738 161.043 343.467 161.538C344.427 161.823 345.451 161.808 346.402 161.494C347.94 161.129 349.989 161.755 349.963 163.561C349.963 164.03 349.816 164.899 350.259 165.064C350.605 165.103 350.955 165.103 351.301 165.064C351.996 165.064 352.369 165.933 352.283 166.628C352.196 167.322 352.63 167.809 352.543 168.495C352.335 170.119 354.411 171.9 356.017 172.03C357.468 172.143 361.68 171.439 363.678 168.721C365.415 166.367 365.189 162.389 362.297 156.474C361.211 154.224 358.779 153.538 358.006 154.111Z" fill="#212237"/>
<path d="M349.833 165.681C350.302 163.475 351.439 163.231 352.438 163.831C353.75 164.63 353.463 167.774 352.977 168.53C351.995 170.05 350.814 170.519 350.145 169.442" fill="#FFCBBD"/>
<path d="M351.648 175.001C353.168 173.732 352.934 171.326 352.934 171.326" stroke="#E88872" stroke-width="0.505091" stroke-linejoin="round"/>
<path d="M345.542 164.769C345.325 165.246 345.255 165.959 345.655 166.254C345.708 166.292 345.772 166.313 345.837 166.313C345.903 166.313 345.967 166.292 346.02 166.254C346.784 165.794 346.028 163.779 345.542 164.769Z" fill="#28364C"/>
<path d="M344.917 163.249C345.694 163.134 346.487 163.304 347.149 163.726" stroke="#28364C" stroke-width="0.757636" stroke-miterlimit="10"/>
<path d="M347.453 169.841L345.23 169.772C345.23 169.772 345.143 172.508 346.185 172.56C347.227 172.612 347.453 169.841 347.453 169.841Z" fill="white"/>
<path d="M365.484 173.159C365.484 173.159 370.696 171.83 378.009 173.976C384.202 175.773 392.08 180.412 397.986 186.717C408.253 197.644 403.519 224.778 403.519 224.778L390.169 224.274C390.169 224.274 392.262 206.834 385.27 199.842C378.278 192.85 368.411 191.208 368.411 191.208" fill="#97C4FF"/>
<path d="M308.837 211.289C304.65 212.444 291.978 213.826 291.778 214.685C291.578 215.545 296.034 215.128 295.739 215.806C295.443 216.483 288.608 217.604 288.634 218.524C288.677 219.775 295.582 218.247 295.582 218.247C295.582 218.247 292.707 218.768 293.046 219.836C293.289 220.592 294.462 220.826 296.746 220.609C295.495 220.896 295.009 221.478 295.278 222.277C295.547 223.076 296.755 222.998 298.032 222.833C297.163 223.032 296.477 223.614 297.041 224.127C297.788 224.796 302.956 224.509 312.12 222.954" fill="#FFCBBD"/>
<path d="M352.3 176.633C354.726 177.533 357.395 177.533 359.822 176.633C361.94 175.902 363.873 174.716 365.485 173.159C365.485 173.159 374.457 172.542 385.383 183.469C396.31 194.396 404.987 225.794 404.987 225.794L359.769 240.994C359.769 240.994 352.039 213.591 348.99 201.118C345.942 188.646 352.3 176.633 352.3 176.633Z" fill="#97C4FF"/>
<path d="M384.793 180.603C393.826 191.156 404.987 225.768 404.987 225.768" stroke="#525BCE" stroke-width="0.757636" stroke-miterlimit="10"/>
<path d="M352.3 176.633C346.341 178.909 341.225 184.694 338.09 190.643C332.939 200.397 329.812 207.476 329.812 207.476L303.877 211.359L305.206 225.195C305.206 225.195 322.803 224.674 336.83 222.589C346.802 221.087 354.515 200.424 354.515 200.424" fill="#97C4FF"/>
<path d="M350.554 177.415C350.554 177.415 353.42 181.246 360.299 178.666C367.178 176.086 367.422 172.899 367.422 172.899" stroke="#525BCE" stroke-width="0.757636" stroke-miterlimit="10"/>
<path d="M351.179 207.511L353.993 201.553" stroke="#525BCE" stroke-width="0.757636" stroke-miterlimit="10"/>
<path d="M307.933 210.751L308.915 224.995" stroke="#525BCE" stroke-width="0.757636" stroke-miterlimit="10"/>
<path d="M358.944 238.033L404.101 223.111" stroke="#525BCE" stroke-width="0.757636" stroke-miterlimit="10"/>
<path d="M181.087 200.18L181.704 200.58C183.675 201.954 185.826 203.05 188.097 203.837C189.426 204.228 190.876 204.436 191.962 205.305C192.374 205.67 192.812 206.004 193.273 206.304C193.404 206.382 194.681 206.86 194.628 206.721C194.754 206.934 194.921 207.121 195.119 207.27C195.318 207.419 195.543 207.527 195.784 207.589C195.837 207.606 195.895 207.606 195.949 207.589C195.962 207.587 195.976 207.582 195.987 207.575C195.999 207.568 196.01 207.558 196.018 207.547C196.026 207.535 196.032 207.522 196.035 207.509C196.038 207.495 196.038 207.481 196.035 207.468C196.2 207.789 196.791 207.928 196.974 207.754C197.156 207.58 196.696 206.764 196.696 206.764C196.696 206.764 197.008 206.764 197.095 206.686C197.23 206.503 197.301 206.279 197.295 206.052C197.357 204.998 197.193 203.942 196.814 202.957C196.435 201.971 195.85 201.078 195.097 200.337" fill="#FFCBBD"/>
<path d="M195.523 204.506C195.52 204.6 195.535 204.695 195.567 204.784C195.567 204.871 195.628 204.957 195.662 205.044L195.871 205.557L196.088 206.078C196.166 206.26 196.27 206.425 196.357 206.599C196.444 206.773 196.661 206.599 196.635 206.477C196.606 206.291 196.56 206.108 196.496 205.93C196.418 205.739 196.349 205.557 196.262 205.374C196.175 205.192 196.088 205.036 195.992 204.871C195.947 204.788 195.895 204.709 195.836 204.636C195.78 204.562 195.713 204.498 195.636 204.445C195.625 204.439 195.613 204.436 195.6 204.437C195.587 204.437 195.575 204.44 195.564 204.446C195.553 204.452 195.543 204.46 195.536 204.471C195.529 204.481 195.525 204.493 195.523 204.506Z" fill="#F49C8E"/>
<path d="M193.352 204.584C193.734 205.01 194.133 205.453 194.533 205.826C194.721 206.025 194.898 206.233 195.063 206.451L195.297 206.807C195.375 206.929 195.488 207.025 195.566 207.146C195.645 207.268 195.818 207.146 195.784 207.059C195.752 206.913 195.705 206.771 195.645 206.634C195.574 206.516 195.495 206.403 195.41 206.295C195.227 206.058 195.026 205.834 194.811 205.626C194.394 205.209 193.942 204.853 193.499 204.436C193.48 204.417 193.453 204.406 193.425 204.406C193.398 204.406 193.371 204.417 193.352 204.436C193.332 204.456 193.321 204.482 193.321 204.51C193.321 204.538 193.332 204.564 193.352 204.584Z" fill="#F49C8E"/>
<path d="M179.35 359.771L163.916 202.256" stroke="#0065F2" stroke-width="2.02036" stroke-miterlimit="10"/>
<path d="M239.438 359.771L224.003 202.256H163.916" stroke="#0065F2" stroke-width="2.02036" stroke-miterlimit="10"/>
<path d="M208.569 359.771L224.003 202.256" stroke="#0065F2" stroke-width="2.02036" stroke-miterlimit="10"/>
<path d="M148.49 359.771L163.916 202.256H224.003" stroke="#0065F2" stroke-width="2.02036" stroke-miterlimit="10"/>
<path d="M236.962 337.458H150.67" stroke="#0065F2" stroke-width="2.02036" stroke-miterlimit="10"/>
<path d="M234.956 318.175H152.563" stroke="#0065F2" stroke-width="2.02036" stroke-miterlimit="10"/>
<path d="M233.419 298.355H154.509" stroke="#0065F2" stroke-width="2.02036" stroke-miterlimit="10"/>
<path d="M231.49 279.463H156.359" stroke="#0065F2" stroke-width="2.02036" stroke-miterlimit="10"/>
<path d="M229.632 259.729H158.209" stroke="#0065F2" stroke-width="2.02036" stroke-miterlimit="10"/>
<path d="M227.721 240.178H160.137" stroke="#0065F2" stroke-width="2.02036" stroke-miterlimit="10"/>
<path d="M225.471 221.712H162.014" stroke="#0065F2" stroke-width="2.02036" stroke-miterlimit="10"/>
<path d="M177.735 201.865C183.902 201.865 190.066 201.865 196.227 201.865C195.815 201.005 195.276 200.211 194.629 199.511C193.966 198.806 193.187 198.218 192.327 197.774C189.447 196.295 186.262 195.51 183.024 195.481" fill="#FFCBBD"/>
<path d="M156.211 159.366C156.211 159.366 164.645 181.341 166.756 183.182C168.867 185.024 188.948 195.012 188.948 195.012L182.79 208.041C182.79 208.041 158.626 198.391 155.16 195.012C151.695 191.634 140.69 178.562 139.578 165.429" fill="#637AE2"/>
<path d="M140.117 303.028L139.248 326.687L139.978 334.131H168.189C168.531 334.129 168.858 333.991 169.099 333.749C169.339 333.506 169.474 333.179 169.474 332.837C169.476 332.576 169.398 332.32 169.25 332.104C169.103 331.889 168.893 331.723 168.649 331.63L156.099 325.784L158.122 301.177" fill="#FFCBBD"/>
<path d="M170.752 333.818C170.555 332.938 170.065 332.151 169.362 331.586L156.047 325.775C148.681 328.72 139.17 326.392 139.17 326.392L138.441 336.441C138.441 336.6 138.504 336.753 138.616 336.865C138.729 336.978 138.881 337.041 139.04 337.041H170.552C171.168 337.032 170.76 333.844 170.752 333.818Z" fill="#6EA5E0"/>
<path d="M158.939 326.366C158.182 327.338 157.544 328.396 157.037 329.519" stroke="#375370" stroke-width="1.01018" stroke-miterlimit="10"/>
<path d="M160.607 327.382C159.993 328.215 159.472 329.112 159.052 330.057" stroke="#375370" stroke-width="1.01018" stroke-miterlimit="10"/>
<path d="M162.022 328.12C161.477 328.904 160.99 329.725 160.563 330.579" stroke="#375370" stroke-width="1.01018" stroke-miterlimit="10"/>
<path d="M138.571 334.869L170.882 334.861" stroke="#375370" stroke-width="1.01018" stroke-miterlimit="10"/>
<path d="M138.892 330.066C138.892 330.066 146.37 330.153 147.022 334.869" stroke="#375370" stroke-width="1.01018" stroke-miterlimit="10"/>
<path d="M166.634 330.396C165.617 331.792 164.744 333.288 164.029 334.861" stroke="#375370" stroke-width="1.01018" stroke-miterlimit="10"/>
<path d="M133.881 214.103C133.881 214.103 131.162 226.159 137.016 240.768C138.861 251.582 139.883 262.52 140.074 273.487C140.308 291.293 137.937 313.989 137.937 322.457H161.136C161.136 322.457 163.985 298.329 164.237 274.009C164.524 246.77 162.213 216.023 162.213 208.084" fill="#97C4FF"/>
<path d="M157.662 322.457C157.662 322.457 160.52 297.886 160.771 273.262C161.049 246.206 158.739 215.936 158.739 208.119" stroke="#525BCE" stroke-width="0.757636" stroke-miterlimit="10"/>
<path d="M179.35 283.78L178.482 307.431L179.211 314.875H207.422C207.763 314.875 208.09 314.739 208.331 314.498C208.572 314.257 208.708 313.93 208.708 313.589C208.707 313.323 208.623 313.063 208.468 312.846C208.312 312.63 208.092 312.467 207.839 312.382L195.288 306.537L197.312 281.93" fill="#FFCBBD"/>
<path d="M209.984 314.562C209.689 313.633 209.116 312.573 208.595 312.339L195.28 306.528C187.949 309.472 178.395 307.171 178.395 307.171L177.622 317.211C177.622 317.37 177.685 317.523 177.797 317.635C177.91 317.747 178.062 317.811 178.221 317.811H209.733C210.401 317.776 209.993 314.597 209.984 314.562Z" fill="#6EA5E0"/>
<path d="M198.172 307.118C197.417 308.088 196.778 309.144 196.27 310.263" stroke="#375370" stroke-width="1.01018" stroke-miterlimit="10"/>
<path d="M199.839 308.126C199.226 308.959 198.704 309.856 198.285 310.801" stroke="#375370" stroke-width="1.01018" stroke-miterlimit="10"/>
<path d="M201.256 308.908C200.716 309.694 200.228 310.515 199.796 311.366" stroke="#375370" stroke-width="1.01018" stroke-miterlimit="10"/>
<path d="M177.804 315.613L210.115 315.604" stroke="#375370" stroke-width="1.01018" stroke-miterlimit="10"/>
<path d="M178.125 310.81C178.125 310.81 185.604 310.905 186.255 315.613" stroke="#375370" stroke-width="1.01018" stroke-miterlimit="10"/>
<path d="M205.867 311.149C204.85 312.542 203.977 314.035 203.262 315.604" stroke="#375370" stroke-width="1.01018" stroke-miterlimit="10"/>
<path d="M172.975 215.424C172.975 215.424 195.271 236.556 200.3 250.323C203.774 259.92 198.711 303.714 198.711 303.714H176.501C176.501 303.714 179.211 263.846 177.804 259.729C176.163 254.891 157.037 238.397 157.037 238.397C154.388 237.634 151.94 236.298 149.866 234.483C147.791 232.668 146.142 230.42 145.033 227.896C141.559 220.079 143.166 210.594 143.166 210.594" fill="#97C4FF"/>
<path d="M167.763 215.424C167.763 215.424 190.876 239.856 195.089 250.323C198.285 258.27 193.499 303.714 193.499 303.714" stroke="#525BCE" stroke-width="0.757636" stroke-miterlimit="10"/>
<path d="M163.768 244.408C162.031 242.818 158.982 240.065 158.053 239.283C157.465 238.76 156.78 238.356 156.038 238.093C153.605 237.235 151.373 235.887 149.48 234.134C147.588 232.38 146.074 230.257 145.033 227.896" stroke="#525BCE" stroke-width="0.757636" stroke-miterlimit="10"/>
<path d="M151.182 223.024C151.182 223.024 157.827 223.258 160.606 223.024" stroke="#525BCE" stroke-width="0.757636" stroke-miterlimit="10"/>
<path d="M133.255 223.024H138.614" stroke="#525BCE" stroke-width="0.757636" stroke-miterlimit="10"/>
<path d="M212.825 161.902C215.161 160.834 225.767 156.196 226.019 156.839C226.27 157.481 222.909 159.696 223.274 159.801C224.898 159.507 226.482 159.02 227.99 158.35C229.328 157.69 231.586 156.856 231.942 157.403C232.628 158.437 225.237 161.946 225.237 161.946C225.237 161.946 226.548 161.347 227.208 162.154C228.173 163.318 226.14 164.404 226.14 164.404C226.14 164.404 227.304 163.813 227.686 164.812C228.068 165.811 226.349 166.706 226.349 166.706C226.349 166.706 227.721 166.046 227.903 167.305C228.129 168.955 217.098 172.846 217.098 172.846" fill="#FFCBBD"/>
<path d="M159.052 151.167C158.215 151.729 157.276 152.121 156.288 152.319C155.299 152.517 154.282 152.518 153.293 152.322C149.732 151.697 148.863 150.012 148.863 150.012C148.863 150.012 139.448 151.323 134.914 180.412C132.999 192.652 132.286 205.051 132.786 217.43H175.789C175.789 217.43 177.101 173.037 174.921 164.786" fill="#6B9BFB"/>
<path d="M162.431 172.44C162.431 172.44 175.155 186.502 187.028 186.502C198.902 186.502 221.25 173.899 221.25 173.899L215.908 159.246L189.947 168.531C189.947 168.531 176.267 155.755 169.97 153.401C166.486 152.029 162.8 151.24 159.061 151.065" fill="#6B9BFB"/>
<path d="M176.11 183.339C176.11 183.339 168.12 177.259 164.263 174.384" stroke="#375370" stroke-width="1.01018" stroke-miterlimit="10"/>
<path d="M213.433 160.209L218.323 175.556" stroke="#375370" stroke-width="1.01018" stroke-miterlimit="10"/>
<path d="M132.682 213.817H175.858" stroke="#375370" stroke-width="1.01018" stroke-miterlimit="10"/>
<path d="M168.528 177.589C168.953 189.931 168.528 217.395 168.528 217.395" stroke="#375370" stroke-width="1.01018" stroke-miterlimit="10"/>
<path d="M149.046 143.68L148.073 151.497C148.073 151.497 155.638 155.466 160.659 151.254V146.676L149.046 143.68Z" fill="#FFCBBD"/>
<path d="M159.286 131.372C159.286 131.372 168.128 142.525 164.889 146.659C163.212 148.804 157.732 148.292 155.117 146.659C153.172 145.443 147.76 138.972 148.586 137.322C151.791 131.007 159.286 131.372 159.286 131.372Z" fill="#FFCBBD"/>
<path d="M158.183 133.457C158.256 136.318 158.111 139.181 157.749 142.021L157.071 156.691C157.071 156.691 145.398 157.933 137.963 152.756C137.963 152.756 140.464 137.331 146.023 132.666C151.321 128.219 158.183 128.541 161.701 131.416C161.701 131.416 161.214 132.762 160.563 133.066C159.799 133.3 159.008 133.432 158.209 133.457" fill="#191C4B"/>
<path d="M158.948 140.492C157.862 139.128 156.993 139.346 156.516 140.093C155.873 141.1 157.15 143.185 157.749 143.567C158.948 144.288 159.929 144.21 160.016 143.228" fill="#FFCBBD"/>
<path d="M160.754 148.031C160.4 148.039 160.052 147.942 159.754 147.751C159.456 147.561 159.22 147.287 159.078 146.963" stroke="#E88872" stroke-width="0.505091" stroke-linejoin="round"/>
<path d="M161.64 137.027C162.014 137.339 162.361 137.895 162.152 138.312C162.126 138.366 162.083 138.41 162.03 138.438C161.977 138.466 161.917 138.477 161.857 138.468C161.023 138.39 160.867 136.384 161.64 137.027Z" fill="#28364C"/>
<path d="M161.536 135.507C161.161 135.539 160.804 135.68 160.509 135.913C160.215 136.147 159.995 136.461 159.877 136.818" stroke="#28364C" stroke-width="0.505091" stroke-miterlimit="10" stroke-linecap="round"/>
<path d="M162.318 142.785L164.281 142.16C164.281 142.16 165.054 144.575 164.142 144.879C163.23 145.183 162.318 142.785 162.318 142.785Z" fill="white"/>
<path d="M151.608 129.983C151.995 129.865 152.331 129.623 152.567 129.295C152.802 128.967 152.923 128.571 152.911 128.167C152.887 127.763 152.758 127.372 152.538 127.032C152.317 126.693 152.012 126.416 151.652 126.23C150.919 125.873 150.079 125.805 149.298 126.039C149.001 126.113 148.721 126.242 148.473 126.421C148.017 126.851 147.738 127.435 147.688 128.059C147.638 128.683 147.822 129.304 148.204 129.8C148.484 130.226 148.91 130.535 149.402 130.669C150.131 130.75 150.867 130.608 151.513 130.26" fill="#191C4B"/>
<path d="M162.578 136.931C162.804 137.053 165.132 138.06 165.184 138.998C165.184 139.528 163.898 140.101 163.898 140.101" fill="#FFCBBD"/>
<path d="M193.204 200.024C194.25 201.259 195.068 202.671 195.618 204.193C195.648 204.247 195.665 204.306 195.671 204.367C195.671 204.645 195.262 204.662 195.002 204.567C194.411 204.343 193.864 204.017 193.386 203.602C193.203 203.429 193.006 203.272 192.796 203.133C192.377 202.944 191.926 202.841 191.467 202.829C190.528 202.754 189.619 202.461 188.813 201.974C188.006 201.487 187.324 200.82 186.82 200.024" fill="#FFCBBD"/>
<path d="M193.204 200.024C194.137 200.938 194.876 202.031 195.375 203.238L195.784 204.106C195.784 204.219 195.879 204.306 195.853 204.454C195.838 204.525 195.804 204.592 195.755 204.646C195.707 204.701 195.645 204.743 195.575 204.766C195.378 204.831 195.165 204.831 194.967 204.766C194.333 204.536 193.745 204.195 193.23 203.759C193.024 203.54 192.78 203.36 192.509 203.229C192.229 203.131 191.937 203.07 191.641 203.047C190.982 202.975 190.336 202.814 189.721 202.569C188.473 202.115 187.443 201.206 186.837 200.024C187.561 201.08 188.615 201.865 189.834 202.256C190.435 202.454 191.055 202.588 191.684 202.656C192.025 202.67 192.361 202.734 192.683 202.847C193.007 202.984 193.301 203.182 193.551 203.429C194.017 203.842 194.552 204.168 195.132 204.393C195.243 204.423 195.36 204.423 195.471 204.393C195.471 204.393 195.471 204.323 195.471 204.271C195.332 203.976 195.21 203.672 195.097 203.403C194.649 202.183 194.01 201.043 193.204 200.024Z" fill="#E88872"/>
<path d="M80.2605 323.047L79.4701 347.836L80.2779 355.653L109.809 355.497C110.168 355.492 110.51 355.346 110.762 355.091C111.014 354.836 111.156 354.492 111.155 354.133C111.154 353.861 111.07 353.596 110.915 353.373C110.76 353.15 110.541 352.979 110.287 352.882L97.102 346.802L99.0998 321.006" fill="#FFCBBD"/>
<path d="M112.519 355.149C112.206 354.168 111.651 353.073 111.051 352.821L97.076 346.802C89.3718 349.92 79.3919 347.532 79.3919 347.532L78.6276 358.059C78.6276 358.142 78.644 358.224 78.676 358.3C78.708 358.377 78.7548 358.446 78.8138 358.504C78.8728 358.562 78.9428 358.608 79.0196 358.639C79.0965 358.67 79.1788 358.685 79.2616 358.684L112.267 358.511C112.971 358.511 112.528 355.175 112.519 355.149Z" fill="#427ED2"/>
<path d="M100.099 347.402C99.3181 348.426 98.6567 349.537 98.127 350.711" stroke="#235DA9" stroke-width="0.757636" stroke-miterlimit="10"/>
<path d="M101.862 348.453C101.218 349.321 100.673 350.26 100.238 351.249" stroke="#235DA9" stroke-width="0.757636" stroke-miterlimit="10"/>
<path d="M103.347 349.226C102.778 350.056 102.27 350.927 101.827 351.831" stroke="#235DA9" stroke-width="0.757636" stroke-miterlimit="10"/>
<path d="M78.8099 356.417L112.658 356.235" stroke="#235DA9" stroke-width="0.757636" stroke-miterlimit="10"/>
<path d="M79.114 351.38C79.114 351.38 86.9311 351.432 87.6607 356.374" stroke="#235DA9" stroke-width="0.757636" stroke-miterlimit="10"/>
<path d="M108.185 351.588C108.185 351.588 105.927 354.793 105.484 356.278" stroke="#235DA9" stroke-width="0.757636" stroke-miterlimit="10"/>
<path d="M82.9966 234.331C82.9966 234.331 98.7438 263.767 103.686 282.276C108.628 300.786 102.044 342.486 102.044 342.486H77.6028C77.6028 342.486 82.4755 297.233 76.7342 282.276C70.993 267.32 50.3124 227.973 50.3124 227.973" fill="#97C4FF"/>
<path d="M80.9466 342.486C80.9466 342.486 84.9593 295.409 82.5187 283.779C80.078 272.149 63.1843 245.084 63.1843 245.084" stroke="#525BCE" stroke-width="0.757636" stroke-miterlimit="10"/>
<path d="M52.2579 309.254L37.8136 329.17L33.879 335.945L57.8689 353.204C58.012 353.309 58.1747 353.385 58.3475 353.427C58.5202 353.468 58.6996 353.475 58.8751 353.447C59.0506 353.419 59.2187 353.356 59.3695 353.262C59.5204 353.168 59.651 353.045 59.7537 352.9C59.9087 352.675 59.9917 352.408 59.9917 352.135C59.9917 351.862 59.9087 351.596 59.7537 351.371L52.7096 338.707L68.726 317.862" fill="#FFCBBD"/>
<path d="M60.2313 354.515C60.5527 353.542 60.7351 352.318 60.4137 351.779L52.6574 338.681C44.5884 336.675 37.8917 328.875 37.8917 328.875L31.1169 336.944C31.021 337.078 30.9818 337.244 31.0079 337.407C31.0339 337.57 31.123 337.715 31.2559 337.813L58.0599 357.095C58.6158 357.503 60.2226 354.55 60.2313 354.515Z" fill="#427ED2"/>
<path d="M54.7505 340.948C53.513 341.312 52.3234 341.822 51.2068 342.468" stroke="#235DA9" stroke-width="0.757636" stroke-miterlimit="10"/>
<path d="M55.5497 342.833C54.5143 343.16 53.5204 343.606 52.5879 344.162" stroke="#235DA9" stroke-width="0.757636" stroke-miterlimit="10"/>
<path d="M56.3054 344.301C55.3668 344.64 54.4551 345.049 53.5781 345.526" stroke="#235DA9" stroke-width="0.757636" stroke-miterlimit="10"/>
<path d="M32.2286 335.719L59.7102 355.488" stroke="#235DA9" stroke-width="0.757636" stroke-miterlimit="10"/>
<path d="M35.4337 331.819C35.4337 331.819 41.7395 336.475 39.4118 340.887" stroke="#235DA9" stroke-width="0.757636" stroke-miterlimit="10"/>
<path d="M58.7894 349.095C58.7894 349.095 55.0807 350.355 53.8473 351.293" stroke="#235DA9" stroke-width="0.757636" stroke-miterlimit="10"/>
<path d="M43.8415 227.973C39.1859 241.167 43.8415 251.546 43.8415 251.546C43.8415 251.546 59.7102 280.548 59.7102 286.437C59.7102 291.848 39.351 322.647 39.351 322.647L57.9644 337.604C57.9644 337.604 87.2091 306.136 86.6272 284.361C85.941 257.435 71.2882 227.973 71.2882 227.973" fill="#97C4FF"/>
<path d="M47.3157 228.842C42.6602 242.035 48.2798 250.921 48.2798 250.921C48.2798 250.921 63.1844 281.416 63.1844 287.305C63.1844 292.716 42.0348 324.801 42.0348 324.801" stroke="#525BCE" stroke-width="0.757636" stroke-miterlimit="10"/>
<path d="M79.2445 308.238C83.5873 300.23 86.8358 291.735 86.6534 284.361C85.9672 257.435 71.3145 227.973 71.3145 227.973" stroke="#525BCE" stroke-width="0.757636" stroke-miterlimit="10"/>
<path d="M45.7611 239.204C45.7611 239.204 54.0733 239.699 57.3304 233.02" stroke="#525BCE" stroke-width="0.757636" stroke-miterlimit="10"/>
<path d="M77.62 243C77.62 243 79.8956 243.252 79.6785 242.131C79.4614 241.011 77.62 234.939 77.62 234.939" stroke="#525BCE" stroke-width="0.757636" stroke-miterlimit="10"/>
<path fill-rule="evenodd" clip-rule="evenodd" d="M88.1733 157.993C89.0419 163.317 88.3557 168.016 83.8304 168.72C79.3052 169.423 72.982 168.138 71.7487 160.555C70.8801 155.239 73.8853 150.349 78.4279 149.646C82.9706 148.942 87.3221 152.677 88.1733 157.993Z" fill="#FFCBBB"/>
<path d="M84.4991 158.045C84.4036 158.531 84.4991 159.209 84.9247 159.4C84.9802 159.428 85.0431 159.437 85.1042 159.426C85.1653 159.415 85.2212 159.385 85.2635 159.339C85.8801 158.731 84.6989 157.029 84.4991 158.045Z" fill="#28364C"/>
<path d="M82.9879 156.838C83.4623 156.577 83.9881 156.423 84.5282 156.387C85.0684 156.351 85.6099 156.434 86.1148 156.629" stroke="#28364C" stroke-width="0.505091" stroke-linecap="round" stroke-linejoin="round"/>
<path d="M87.4523 163.56H84.4904C84.4904 163.56 84.308 166.018 85.7846 166.27C87.0093 166.496 87.4523 163.56 87.4523 163.56Z" fill="white"/>
<path fill-rule="evenodd" clip-rule="evenodd" d="M81.3722 174.548C79.0895 174.888 76.7627 174.785 74.5191 174.244C70.5932 173.175 69.4814 171.577 69.4814 171.577L74.9187 160.234L83.3091 164.038L81.3722 174.548Z" fill="#FFCBBB"/>
<path d="M82.4579 168.85C82.4579 168.85 78.8012 168.971 76.899 167.174" stroke="#EF977F" stroke-width="1.01018" stroke-miterlimit="10"/>
<path fill-rule="evenodd" clip-rule="evenodd" d="M87.2177 157.836C87.2177 157.836 89.4846 161.163 89.3717 161.762C89.2588 162.362 87.6346 162.631 87.6346 162.631" fill="#FFCBBB"/>
<path d="M74.9969 165.376C74.4958 165.569 73.9692 165.689 73.4335 165.732C72.3609 165.865 71.2729 165.678 70.3067 165.193C69.4297 164.736 68.7189 164.014 68.2747 163.13C67.8304 162.246 67.6753 161.245 67.8313 160.269C67.8921 159.956 67.9963 159.643 68.0484 159.33C68.2829 157.845 67.4143 156.421 67.1798 154.936C66.9642 153.479 67.302 151.995 68.1266 150.775C68.9698 149.58 70.1576 148.671 71.5314 148.169C72.6171 147.752 73.807 147.605 74.7103 146.823C75.1054 146.429 75.5325 146.069 75.9871 145.746C78.2454 144.33 81.4591 145.103 83.4829 146.615C83.7078 146.811 83.9669 146.964 84.2472 147.066C84.7423 147.197 85.2634 146.988 85.7672 147.066C87.7041 147.457 88.5466 150.315 88.5292 152.026C88.5406 152.538 88.3885 153.04 88.095 153.459C87.8583 153.734 87.5687 153.959 87.2434 154.12C86.9182 154.281 86.5638 154.375 86.2015 154.397C85.1836 154.385 84.1665 154.461 83.1615 154.623C82.4753 154.831 81.876 155.274 81.2072 155.544C80.6861 155.75 80.1281 155.848 79.5678 155.83C79.0075 155.812 78.4569 155.679 77.9501 155.439C78.1897 156.139 78.2728 156.884 78.1933 157.619C77.9848 158.983 76.8296 159.661 75.5876 159.999C76.0987 161.446 76.2039 163.005 75.8916 164.507C75.8128 164.707 75.6923 164.888 75.538 165.038C75.3837 165.188 75.1993 165.303 74.9969 165.376Z" fill="#14122D"/>
<path d="M76.6733 158.827C76.5379 158.65 76.3682 158.504 76.1744 158.395C75.9806 158.286 75.7668 158.218 75.546 158.195C75.3251 158.171 75.1018 158.193 74.8894 158.258C74.6771 158.323 74.4803 158.431 74.3108 158.575C72.6692 159.947 74.8146 162.917 76.1174 163.386C77.4203 163.856 77.8111 162.422 77.8111 162.422" fill="#FFCBBB"/>
<path d="M138.385 216.743C141.919 213.782 144.704 210.03 146.515 205.79L141.017 202.854C141.779 200.942 142.276 198.934 142.493 196.887H148.73C149.12 192.306 148.427 187.697 146.706 183.433L140.739 185.24C139.925 183.352 138.862 181.581 137.577 179.976L141.92 175.555C138.96 172.032 135.206 169.261 130.968 167.469L128.032 172.958C126.117 172.204 124.11 171.708 122.065 171.482V165.245C117.484 164.864 112.877 165.557 108.611 167.269L110.391 173.193C108.501 174.003 106.731 175.067 105.128 176.354L100.707 172.011C97.2042 174.971 94.4487 178.714 92.6636 182.938L98.1617 185.883C97.3988 187.792 96.902 189.797 96.6851 191.841H90.4401C90.041 196.43 90.7191 201.049 92.4204 205.33L98.3962 203.514C99.2082 205.411 100.272 207.191 101.558 208.804L97.2149 213.225C100.175 216.748 103.929 219.519 108.168 221.311L111.103 215.813C113.013 216.575 115.018 217.071 117.062 217.29V223.526C121.646 223.916 126.258 223.223 130.525 221.503L128.709 215.535C130.602 214.722 132.376 213.656 133.981 212.365L138.385 216.743ZM112.997 203.237C111.241 201.941 109.908 200.154 109.168 198.101C108.427 196.048 108.313 193.822 108.838 191.704C109.363 189.586 110.505 187.671 112.119 186.202C113.732 184.733 115.746 183.776 117.904 183.451C120.062 183.126 122.267 183.449 124.242 184.379C126.216 185.308 127.871 186.802 128.996 188.672C130.121 190.542 130.666 192.703 130.563 194.883C130.459 197.063 129.711 199.163 128.414 200.917C126.676 203.268 124.076 204.832 121.185 205.267C118.295 205.702 115.349 204.972 112.997 203.237Z" fill="#ADBBF9"/>
<path d="M121.205 215.397C123.75 215.614 135.276 216.786 135.18 217.464C135.085 218.141 131.185 218.332 131.332 218.697C131.55 219.21 134.485 219.653 136.153 219.748C137.638 219.826 140.018 220.208 140.062 220.86C140.157 222.102 131.993 221.529 131.993 221.529C131.993 221.911 140.887 220.504 141.069 221.529C141.33 223.014 131.871 223.743 131.576 224.134C131.576 224.134 139.593 221.225 139.784 222.328C139.975 223.431 132.835 226.202 130.62 226.245C132.47 225.863 137.925 222.771 138.064 223.596C138.203 224.421 133.382 226.488 132.601 226.618C128.288 227.256 123.917 227.401 119.572 227.053" fill="#FFCBBD"/>
<path d="M81.5548 173.818C81.5548 173.818 79.0707 174.991 75.3272 173.366C71.2536 171.629 70.4024 169.562 70.4024 169.562C70.4024 169.562 48.306 171.516 40.2196 232.82L85.4634 238.431C85.4634 238.431 89.1027 216.517 88.5207 198.789C88.1559 187.498 83.7697 178.708 81.5722 173.818" fill="#145ABB"/>
<path d="M68.2743 198.381C68.2743 198.381 75.2228 221.694 94.0274 226.74C103.751 229.41 113.758 230.911 123.837 231.213L125.652 215.492C125.652 215.492 105.188 211.801 96.7634 206.198C90.3533 201.986 89.1026 188.401 87.4523 183.616C85.2027 176.945 81.5287 173.844 81.5287 173.844" fill="#145ABB"/>
<path d="M68.5956 170.031C68.5956 170.031 69.9766 174.313 76.4127 175.712C81.1203 176.736 82.9704 175.329 82.9704 175.329" stroke="#121649" stroke-width="0.757636" stroke-miterlimit="10"/>
<path d="M86.6531 224.073C86.6531 224.073 69.5163 216.152 68.5956 193.734" stroke="#121649" stroke-width="0.757636" stroke-miterlimit="10"/>
<path d="M121.848 214.71L119.546 231.005" stroke="#121649" stroke-width="0.757636" stroke-miterlimit="10"/>
<defs>
<linearGradient id="paint0_linear_428_1579" x1="146.241" y1="310.723" x2="400.462" y2="56.5016" gradientUnits="userSpaceOnUse">
<stop offset="0.27" stop-color="white" stop-opacity="0.1"/>
<stop offset="1" stop-color="white" stop-opacity="0.3"/>
</linearGradient>
<linearGradient id="paint1_linear_428_1579" x1="189.2" y1="305.416" x2="432.807" y2="61.8085" gradientUnits="userSpaceOnUse">
<stop offset="0.27" stop-color="white" stop-opacity="0.1"/>
<stop offset="1" stop-color="white" stop-opacity="0.3"/>
</linearGradient>
</defs>
</svg>
