<svg width="619" height="438" viewBox="0 0 619 438" fill="none" xmlns="http://www.w3.org/2000/svg">
<g clip-path="url(#clip0_167_30)">
<path d="M601.596 90.7553H520.702V141.328H601.596V90.7553Z" fill="#4A3333"/>
<path d="M601.596 302.778H520.702V353.351H601.596V302.778Z" fill="#4A3333"/>
<path d="M523.894 91.9225H517.588V430.072H523.894V91.9225Z" fill="#30373F"/>
<path d="M604.8 93.7525V87.4451H517.588V93.7525H604.8Z" fill="#4A3333"/>
<path d="M261.892 386.226V433.927H604.764V386.226H261.892ZM598.731 428.97H267.921V393.037H598.731V428.97Z" fill="#586069"/>
<path d="M262.104 353.595C262.104 353.595 603.776 351.191 604.975 354.197C606.174 357.202 606.776 384.827 605.577 386.323C604.378 387.82 262.404 388.727 260.9 386.624C259.396 384.522 260.002 354.506 262.104 353.595Z" fill="#FAFBFC"/>
<path d="M342.802 355.181C342.802 354.071 341.083 354.071 341.079 355.181C340.993 372.375 340.904 366.633 341.119 383.912C341.119 384.127 341.205 384.334 341.357 384.487C341.51 384.639 341.717 384.725 341.932 384.725C342.148 384.725 342.355 384.639 342.507 384.487C342.66 384.334 342.745 384.127 342.745 383.912C342.9 372.712 342.875 366.417 342.802 355.181Z" fill="#D89B39"/>
<path d="M345.006 353.351C345.006 353.351 347.592 354.164 348.116 356.462C348.929 360.024 356.422 384.863 364.451 384.863C371.842 384.863 410.935 382.875 426.974 382.529C433.352 382.391 457.956 385.014 465.477 384.863C509.547 383.973 549.632 381.683 554.149 381.362C570.484 380.195 601.597 379.804 601.597 379.804L345.006 353.351Z" fill="#38424C"/>
<path d="M604.763 175.614V169.307L261.908 169.307V175.614L604.763 175.614Z" fill="#586069"/>
<path d="M262.104 136.452C262.104 136.452 603.776 134.049 604.975 137.054C606.174 140.059 606.776 167.684 605.577 169.181C604.378 170.677 262.404 171.584 260.9 169.482C259.396 167.379 260.002 137.347 262.104 136.452Z" fill="#FAFBFC"/>
<path d="M346.173 135.879C346.173 135.879 348.896 137.436 348.896 147.55C348.896 163.52 350.449 167.391 353.564 167.782C354.531 167.904 406.666 167.993 432.702 167.916C446.5 167.879 462.009 165.988 478.312 165.838C491.264 165.716 504.839 167.351 517.592 167.135C555.807 166.484 589.612 165.366 597.71 163.504C618.322 158.754 355.759 133.902 346.173 135.879Z" fill="#38424C"/>
<path d="M342.802 140.372C342.802 139.262 341.083 139.262 341.079 140.372C340.993 157.566 340.904 151.824 341.119 169.103C341.119 169.319 341.205 169.526 341.357 169.678C341.51 169.831 341.717 169.917 341.932 169.917C342.148 169.917 342.355 169.831 342.507 169.678C342.66 169.526 342.745 169.319 342.745 169.103C342.9 157.904 342.875 151.609 342.802 140.372Z" fill="#D89B39"/>
<path d="M604.764 87.254H598.458V433.883H604.764V87.254Z" fill="#30373F"/>
<path d="M604.764 129.657C604.764 129.657 383.51 130.434 353.564 129.25C353.564 129.25 264.043 126.948 258.632 130.824C253.22 134.7 252.432 150.075 253.798 156.586C255.164 163.097 260.119 162.28 260.119 162.28C259.859 152.719 260.595 137.066 262.103 136.416C262.103 136.416 298.253 136.131 346.1 135.883C347.045 135.882 347.954 136.248 348.636 136.903C349.319 137.558 349.721 138.451 349.759 139.396C350.019 146.176 350.848 160.494 353.19 162.243C357.43 165.411 612.293 162.243 612.293 162.243C612.293 162.243 618.712 129.657 604.764 129.657Z" fill="#739AD1"/>
<path d="M260.12 379.784C260.12 379.784 261.388 357.629 263.331 356.852C265.275 356.075 290.57 353.351 298.725 353.351C306.88 353.351 265.746 349.849 260.067 353.351C254.387 356.852 260.12 379.784 260.12 379.784Z" fill="#38424C"/>
<path d="M604.764 347.125C604.764 347.125 383.51 347.902 353.564 346.718C353.564 346.718 264.043 344.416 258.632 348.292C253.22 352.167 252.432 367.543 253.798 374.054C255.164 380.565 260.119 379.768 260.119 379.768C259.859 370.207 260.595 354.555 262.103 353.904C262.103 353.904 298.253 353.623 346.1 353.371C348.075 353.371 349.376 354.957 349.759 356.885C351.21 363.839 360.146 378.438 362.487 380.179C366.728 383.346 612.293 379.731 612.293 379.731C612.293 379.731 618.712 347.125 604.764 347.125Z" fill="#739AD1"/>
<path d="M601.597 128.49C601.597 128.356 599.67 127.27 599.544 125.513C599.235 121.308 606.695 117.823 607.821 112.927C609.13 107.233 604.304 100.1 606.691 94.5739C612.382 81.3614 614.797 78.958 611.793 76.5546C608.788 74.1512 579.371 78.6571 572.464 77.7746C565.556 76.8921 548.599 76.7213 545.294 78.5229C543.489 79.511 535.59 91.3775 532.561 102.142C529.532 112.906 522.487 125.94 523.987 127.762C525.268 129.299 579.647 132.528 595.376 130.861C598.06 130.539 601.597 129.014 601.597 128.49Z" fill="#EDF2FA"/>
<path d="M608.491 77.6282C604.584 78.0349 601.072 80.6009 598.942 83.8299C597.31 86.3982 596.521 89.412 596.684 92.4506C596.847 95.4892 597.955 98.401 599.852 100.78C595.669 103.053 594.218 108.002 592.941 112.329C592.213 114.769 591.343 117.099 589.9 119.21C588.631 121.068 587.047 122.69 585.221 124.004C583.143 125.493 580.808 126.583 578.334 127.221C577.468 127.445 577.838 128.734 578.7 128.551C583.205 127.525 587.228 125 590.111 121.389C591.62 119.508 592.799 117.385 593.6 115.111C594.522 112.532 595.059 109.799 596.189 107.294C597.23 105.001 598.807 102.707 601.222 101.719C601.344 101.683 601.454 101.616 601.542 101.525C601.63 101.434 601.693 101.321 601.725 101.199C601.757 101.076 601.757 100.947 601.724 100.824C601.692 100.702 601.628 100.59 601.539 100.499C600.248 99.1203 599.259 97.4875 598.634 95.7048C598.009 93.9222 597.762 92.0287 597.909 90.1454C598.076 88.3336 598.621 86.577 599.509 84.9891C600.397 83.4011 601.608 82.0171 603.064 80.9263C604.717 79.709 606.582 78.8111 608.565 78.2789C608.926 78.1813 608.873 77.5916 608.491 77.6282Z" fill="#C7D7ED"/>
<path d="M590.746 130.161C587.595 129.559 581.773 127.432 581.395 119.929C580.842 109.604 582.139 86.3227 582.139 86.3227C582.139 86.3227 567.825 91.4385 556.332 106.465C548.864 116.225 541.599 123.093 541.696 129.425C557.035 130.222 578.623 130.722 590.746 130.161Z" fill="#C7D7ED"/>
<path d="M549.758 347.365C549.758 347.365 527.317 330.399 533.151 322.229C538.985 314.059 560.499 285.47 570.097 282.933C579.696 280.395 612.752 305.625 617.663 318.012C622.574 330.399 601.584 347.365 601.584 347.365H549.758Z" fill="#EDF2FA"/>
<path d="M586.107 316.483C582.505 310.346 568.219 306.165 555.523 298.451C545.611 307.861 536.106 318.089 533.163 322.229C527.329 330.399 549.77 347.365 549.77 347.365H569.321C570.655 346.307 568.26 343.997 572.821 337.011C576.883 330.793 588.173 320 586.107 316.483Z" fill="#C7D7ED"/>
<path d="M614.293 319.325C612.895 318.435 611.224 319.24 610.085 320.171C608.764 321.328 607.583 322.636 606.565 324.067C605.473 325.515 604.52 327.063 603.719 328.691C603.312 329.504 602.987 330.317 602.633 331.131C602.356 331.898 601.91 332.593 601.329 333.164C600.145 334.201 598.393 334.384 597.027 335.116C594.714 336.336 593.096 338.52 591.506 340.541C590.656 341.677 589.711 342.738 588.681 343.713C587.643 344.569 586.459 345.229 585.185 345.661C585.062 345.696 584.955 345.774 584.885 345.881C584.815 345.988 584.785 346.116 584.802 346.243C584.819 346.37 584.881 346.487 584.976 346.572C585.072 346.657 585.195 346.704 585.323 346.706C587.713 346.734 589.754 344.709 591.197 343.046C592.799 341.175 594.157 339.073 596.027 337.446C597.002 336.633 598.12 336.01 599.324 335.608C600.865 335.055 602.28 334.421 603.154 332.965C603.528 332.286 603.849 331.579 604.113 330.85C604.439 330.037 604.799 329.253 605.195 328.5C605.986 326.965 606.901 325.498 607.931 324.112C608.499 323.343 609.108 322.606 609.756 321.904C610.341 321.203 611.051 320.617 611.85 320.175C612.614 319.805 613.476 319.728 614.155 320.277C614.724 320.724 615.066 321.468 614.614 322.115C614.358 322.481 614.948 322.806 615.208 322.461C616.021 321.387 615.293 319.96 614.293 319.325Z" fill="#C7D7ED"/>
<path d="M500.481 347.365C500.481 347.365 494.505 336.95 489.98 328.064C485.455 319.179 503.591 298.496 513.702 291.103C523.812 283.71 527.931 274.255 541.814 287.154C555.698 300.053 572.561 308.496 577.184 316.332C581.806 324.169 552.161 347.365 552.161 347.365H500.481Z" fill="#EDF2FA"/>
<path d="M604.975 355.653H357.877C357.671 355.653 357.474 355.571 357.328 355.425C357.182 355.279 357.101 355.082 357.101 354.876C357.101 354.67 357.182 354.472 357.328 354.327C357.474 354.181 357.671 354.099 357.877 354.099H604.975C605.181 354.099 605.378 354.181 605.524 354.327C605.67 354.472 605.751 354.67 605.751 354.876C605.751 355.082 605.67 355.279 605.524 355.425C605.378 355.571 605.181 355.653 604.975 355.653Z" fill="#C7D7ED"/>
<path d="M570.041 315.466C568.583 314.413 566.808 313.889 565.012 313.982C563.17 314.052 561.369 314.549 559.751 315.433C558.115 316.34 556.621 317.485 555.32 318.829C553.949 320.163 552.754 321.666 551.763 323.302C550.84 324.884 550.165 326.739 550.319 328.589C550.359 329.061 550.442 329.527 550.567 329.984C550.731 330.396 550.805 330.838 550.783 331.281C550.722 331.519 550.608 331.74 550.449 331.927C550.29 332.114 550.089 332.262 549.864 332.359C548.616 333.046 547.116 333.099 545.766 333.465C544.052 333.945 542.453 334.769 541.069 335.888C539.684 337.007 538.542 338.396 537.712 339.972C537.25 340.93 536.869 341.926 536.574 342.948C536.224 344.063 535.83 345.14 535.399 346.226C535.098 346.991 536.269 347.397 536.676 346.763C537.716 345.136 537.973 343.139 538.708 341.387C539.34 339.944 540.261 338.646 541.413 337.572C542.565 336.499 543.925 335.673 545.408 335.144C546.791 334.669 548.254 334.579 549.64 334.087C550.913 333.628 552.12 332.814 552.287 331.367C552.397 330.468 551.978 329.663 551.856 328.788C551.758 327.941 551.837 327.082 552.088 326.267C552.662 324.551 553.584 322.971 554.795 321.627C555.915 320.247 557.187 318.999 558.588 317.906C560.158 316.685 561.992 315.849 563.943 315.466C565.866 315.116 567.85 315.355 569.634 316.153C569.723 316.185 569.82 316.185 569.909 316.153C569.998 316.121 570.073 316.059 570.121 315.977C570.169 315.896 570.187 315.801 570.173 315.707C570.158 315.614 570.112 315.529 570.041 315.466Z" fill="#C7D7ED"/>
<path d="M569.996 133.28C569.996 132.678 571.041 112.443 576.744 99.2302C582.448 86.0177 584.847 83.6143 581.847 81.2109C578.846 78.8076 549.425 83.3134 542.517 82.4309C535.61 81.5485 518.653 81.3777 515.348 83.1792C513.543 84.1674 505.64 96.0339 502.615 106.798C499.59 117.563 492.541 130.596 494.041 132.418C495.541 134.24 569.996 136.896 569.996 133.28Z" fill="#EDF2FA"/>
<path d="M580.16 84.8059C579.107 82.984 576.647 83.0409 575.094 84.1633C573.244 85.4931 572.016 87.7623 571.09 89.7956C569.11 94.151 568.451 98.9822 568.349 103.736C568.284 106.53 568.614 109.372 567.703 112.073C567.593 112.394 568.069 112.569 568.236 112.296C569.455 110.353 569.419 107.913 569.406 105.7C569.377 103.456 569.489 101.212 569.744 98.9822C570.268 94.6187 571.537 90.1576 574.171 86.5789C574.842 85.668 575.72 84.7367 576.842 84.4277C577.765 84.1674 578.985 84.3219 579.599 85.1353C579.847 85.4606 580.379 85.18 580.16 84.8059Z" fill="#C7D7ED"/>
<path d="M577.098 100.088C577.045 100.09 576.992 100.079 576.944 100.056C576.896 100.036 576.854 100.008 576.818 99.9712C576.782 99.9349 576.754 99.8918 576.735 99.8444C576.716 99.7971 576.707 99.7464 576.708 99.6954C576.709 99.6444 576.72 99.594 576.74 99.5474C577.659 97.4165 578.48 95.558 579.208 93.9192C583.07 85.2003 583.81 83.293 581.603 81.5281C579.976 80.239 568.219 81.1214 558.755 81.8412C551.087 82.4187 543.843 82.9677 540.867 82.5814C540.787 82.5456 540.721 82.485 540.678 82.4086C540.635 82.3321 540.619 82.244 540.63 82.1572C540.641 82.0704 540.68 81.9896 540.741 81.9268C540.802 81.864 540.882 81.8226 540.968 81.8087C543.855 82.1828 551.063 81.642 558.69 81.0645C571.699 80.0844 580.359 79.5436 582.082 80.9222C584.835 83.1222 583.709 85.7005 579.911 94.2364C579.184 95.863 578.362 97.7256 577.444 99.8565C577.415 99.9247 577.367 99.983 577.306 100.024C577.244 100.065 577.172 100.088 577.098 100.088Z" fill="#C7D7ED"/>
<path d="M522.361 28.2835C522.243 28.2835 519.682 28.9464 519.568 28.9627C515.649 29.4791 506.941 26.783 503.404 26.295C501.556 26.0166 499.681 25.9511 497.818 26.0998C496.882 26.1784 495.954 26.3389 495.046 26.5796C494.342 26.7707 493.395 27.3685 492.688 27.3319C492.573 26.1231 492.039 24.9924 491.179 24.1356C489.553 22.4886 486.87 24.1356 485.789 22.1022C485.333 22.4357 484.292 22.9156 484.122 23.4808C484.101 23.5494 484.093 23.6209 484.097 23.6923C484.158 24.0501 484.282 24.3943 484.463 24.709C484.748 25.3759 485.028 23.8102 485.313 24.4772L487.565 29.7841L489.537 34.4282L525.459 66.7906L525.719 66.7174C526.532 66.3351 526.532 66.3473 527.345 65.9448C526.484 60.9875 522.703 29.2595 522.361 28.2835Z" fill="#F1E6DC"/>
<path d="M507.421 65.7739C507.421 65.7739 524.833 68.4538 525.264 67.7463C525.695 67.0387 522.154 31.2156 521.414 31.1464C514.503 30.5649 486.76 28.9626 491.822 29.3856C490.712 29.2961 484.39 22.4154 482.878 22.6594C481.365 22.9034 491.968 56.628 493.696 58.2628C495.424 59.8976 507.421 65.7739 507.421 65.7739Z" fill="#5F7AB3"/>
<path d="M502.985 59.7553C500.001 50.4427 497.294 40.9552 494.81 31.5003C494.61 30.752 493.866 31.2319 494.074 32.0005C496.667 41.5408 498.952 50.9063 502.241 60.1254C502.501 60.8533 503.225 60.4873 502.985 59.7553Z" fill="#464C7B"/>
<path d="M499.997 60.1498C497.558 52.2889 495.627 45.9938 493.118 38.1533C492.996 37.7751 492.383 37.8808 492.504 38.2671C494.976 46.1198 496.818 52.4353 499.347 60.2718C499.473 60.6703 500.127 60.5605 499.997 60.1498Z" fill="#464C7B"/>
<path d="M514.47 80.6497C514.47 80.6497 514.987 76.4733 515.096 75.2248C515.206 73.9764 519.483 63.2689 520.198 59.9709C520.914 56.6728 522.174 55.7619 520.694 55.7781C517.889 55.8025 516.702 62.4678 514.938 62.6467C514.938 62.6467 513.153 64.0741 513.242 59.8814C513.332 55.6887 514.808 50.6257 512.665 50.4346C510.523 50.2434 509.23 61.5731 508.872 61.752C508.514 61.931 509.14 57.0266 508.872 54.1718C508.604 51.317 510.092 48.5517 508.116 48.019C506.14 47.4862 505.12 54.3507 505.12 54.3507C505.12 54.3507 505.087 48.446 503.034 48.6574C500.981 48.8689 501.201 54.3507 501.201 57.7179C501.201 59.4137 501.286 62.5369 501.286 62.5369L499.351 61.6382C499.351 61.6382 501.266 64.6963 501.197 64.615C500.969 64.375 514.47 80.6497 514.47 80.6497Z" fill="#E7926B"/>
<path d="M505.973 61.8578C505.916 61.4348 505.855 61.0119 505.79 60.589C505.663 59.6372 505.6 58.6781 505.599 57.7179C505.577 56.8206 505.577 55.9205 505.599 55.0177C505.67 54.1295 505.662 53.2367 505.575 52.35C505.53 52.0856 505.136 52.1141 505.071 52.35C504.9 53.2611 504.838 54.1895 504.888 55.1153C504.888 56.014 504.888 56.9168 504.888 57.8155C504.888 58.7143 504.973 59.6171 504.949 60.5117C504.949 60.959 504.928 61.4064 504.949 61.8578C504.902 62.3318 504.974 62.81 505.16 63.2486C505.209 63.3258 505.278 63.3875 505.361 63.4263C505.443 63.4651 505.535 63.4793 505.626 63.4673C505.716 63.4553 505.801 63.4176 505.871 63.3586C505.94 63.2997 505.991 63.2219 506.018 63.1347C506.103 62.7114 506.087 62.2741 505.973 61.8578Z" fill="#DE835C"/>
<path d="M518.54 80.9792L513.93 86.3227L520.532 98.0753L527.935 85.2613C527.935 85.2613 522.199 80.6172 518.54 80.9792Z" fill="#DE835C"/>
<path d="M556.991 110.292L555.698 112.532C555.698 112.532 557.222 114.83 556.991 120.393C556.759 125.956 555.434 131.251 551.197 134.695H457.871C457.871 134.695 421.745 118.502 427.844 92.687C432.69 72.2318 457.188 85.973 457.188 85.973C457.188 85.973 458.001 84.4195 462.473 65.5625C466.522 48.694 477.442 48.9421 483.947 49.67C492.891 50.6745 521.284 89.9298 521.284 89.9298L523.666 92.8456L523.601 91.833C523.601 91.833 539.237 88.8034 556.991 110.292Z" fill="#3554A5"/>
<path d="M555.698 112.923C555.594 112.92 555.495 112.878 555.421 112.805C537.346 94.2689 525.516 94.5048 525.398 94.5048C525.338 94.526 525.274 94.5329 525.211 94.5248C525.148 94.5167 525.087 94.494 525.035 94.4583C524.982 94.4227 524.938 94.3752 524.907 94.3196C524.876 94.2641 524.859 94.202 524.856 94.1384C524.853 94.0749 524.866 94.0115 524.892 93.9536C524.918 93.8956 524.958 93.8446 525.007 93.8047C525.057 93.7648 525.115 93.7371 525.177 93.7238C525.239 93.7104 525.304 93.7119 525.365 93.7281C525.853 93.7037 537.619 93.4312 555.978 112.264C556.047 112.339 556.085 112.437 556.085 112.538C556.085 112.64 556.047 112.738 555.978 112.813C555.902 112.884 555.802 112.923 555.698 112.923Z" fill="#283F7C"/>
<path d="M465.782 109.084C471.937 112.138 473.535 117.864 478.71 122.361C483.565 126.582 492.069 129.584 496.147 134.561L505.542 134.447L503.672 131.548L494.033 113.602L484.914 98.0834C484.914 98.0834 482.617 101.264 481.028 103.447C479.438 105.631 470.014 100.109 470.014 100.109L459.92 106.575C461.92 107.298 463.878 108.136 465.782 109.084Z" fill="#283F7C"/>
<path d="M588.286 51.3861C588.674 51.5553 588.983 51.8645 589.153 52.252C589.323 52.6395 589.34 53.0768 589.201 53.4764C589.071 53.9359 588.262 54.9526 588.083 55.5504C587.803 56.4898 588.559 56.8883 588.136 58.1612C587.059 61.4145 585.152 63.3665 582.908 68.6978C579.391 77.0467 569.492 84.8994 566.748 94.5007C560.182 117.335 556.263 111.556 556.263 111.556C556.263 111.556 556.743 110.743 556.991 110.291C554.206 107.217 537.883 90.0233 522.731 91.9184L526.902 85.5622C526.902 85.5622 522.085 81.28 518.54 80.9791C518.54 80.9791 525.943 69.4705 531.191 64.1066C536.44 58.7427 553.828 59.6333 553.828 59.6333H560.999C560.999 59.6333 565.792 56.9086 569.167 56.2092C569.167 56.2092 567.573 54.6191 569.167 54.2653C570.76 53.9115 569.878 52.8501 569.878 52.8501C569.878 52.8501 568.988 52.1507 570.232 51.5203C571.476 50.89 571.22 47.0755 573.175 47.1284C586.335 47.5106 588.689 51.4065 588.286 51.3861Z" fill="#AFD1FF"/>
<path d="M577.765 76.3065C575.732 79.0068 571.26 81.703 568.366 83.3174C565.634 84.8424 562.711 86.5707 561.312 89.5028C560.751 90.674 561.788 90.9952 562.28 90.1006C563.906 87.1889 566.487 85.3019 569.35 83.781C572.147 82.2967 576.854 79.5802 578.485 76.7294C578.757 76.2496 578.078 75.8876 577.765 76.3065Z" fill="#88B9FF"/>
<path d="M560.784 58.0961L553.824 59.6374C550.978 59.5266 548.127 59.5782 545.287 59.7919C544.918 60.8083 544.625 61.8509 544.412 62.911C543.03 69.6047 547.144 71.8576 548.714 71.8576C551.84 71.9918 554.763 70.2554 557.316 68.5677C565.008 63.4885 567.655 57.1486 567.708 56.6118C565.441 57.282 563.126 57.7782 560.784 58.0961Z" fill="white"/>
<path d="M592.47 19.0075C592.47 19.0075 593.47 4.55872 586.88 4.70512C580.29 4.85151 565.402 34.4648 561.56 39.0723C557.718 43.6798 560.999 56.2092 560.999 56.2092C560.999 56.2092 575.692 38.3159 576.769 37.5392C576.769 37.5392 573.671 45.7864 572.874 47.9539C572.874 47.9539 586.843 55.9611 587.872 54.1027C590.644 49.1007 592.523 33.4319 592.47 19.0075Z" fill="#E7926B"/>
<path d="M578.046 26.9212C577.086 29.2636 567.069 37.6937 560.434 41.1301C558.483 46.616 560.999 56.2133 560.999 56.2133C560.999 56.2133 575.692 38.32 576.769 37.5433L574.871 42.5941C578.241 37.3074 578.046 26.9212 578.046 26.9212Z" fill="#DE835C"/>
<path d="M578.672 24.2942C578.348 25.4795 578.093 26.6825 577.908 27.8972C577.741 29.1172 577.643 30.3128 577.562 31.5287C577.481 32.7447 577.042 34.0785 576.887 35.2619C576.806 35.8556 575.525 39.8775 575.387 40.4631C575.249 41.0487 575.009 41.6343 574.891 42.2362C574.872 42.321 574.882 42.4099 574.922 42.4874C574.961 42.565 575.027 42.6261 575.107 42.66C575.187 42.694 575.277 42.6987 575.36 42.6732C575.443 42.6478 575.515 42.5938 575.562 42.5209C575.851 42.0369 577.001 39.7515 577.237 39.2676C577.683 38.0713 577.986 36.8264 578.139 35.5588C578.176 34.3713 578.4 33.1757 578.469 31.9923C578.588 29.4759 578.869 26.9697 579.31 24.4894C579.371 24.042 578.761 23.859 578.672 24.2942Z" fill="#DE835C"/>
<path d="M571.329 19.04C571.329 19.04 576.115 16.1202 575.635 10.3252C575.306 6.28298 571.126 5.64858 568.626 5.63232C568.142 5.63074 567.669 5.49197 567.261 5.23212C566.853 4.97226 566.527 4.60199 566.321 4.16426C565.544 2.50914 563.443 0.117954 557.783 2.15081e-05C549.096 -0.178911 552.498 12.6636 552.498 12.6676C551.445 12.3335 550.35 12.15 549.246 12.1227C544.091 12.021 542.335 15.01 541.928 16.8969C541.383 16.6529 534.545 13.912 534.354 21.2686C533.922 22.3509 533.67 23.4965 533.606 24.6602C533.403 27.0408 533.823 29.4333 534.826 31.6019C535.378 32.7445 536.203 33.7333 537.229 34.4811C537.546 34.7129 537.944 34.1964 537.635 33.9402C535.623 32.1916 534.846 29.4669 534.724 26.8887C534.692 26.2696 534.692 25.6493 534.724 25.0302C536.098 31.1831 540.692 33.4888 540.692 33.4888C540.692 33.4888 561.755 47.3602 563.556 45.6115C563.924 45.2533 564.265 44.8686 564.577 44.4607C564.654 44.7106 564.75 44.954 564.865 45.1886C564.993 45.478 565.192 45.7301 565.444 45.9215C565.695 46.1128 565.992 46.2371 566.305 46.2825C566.599 46.3117 566.895 46.2659 567.167 46.1493C567.439 46.0326 567.676 45.849 567.858 45.6156C568.089 45.3268 567.695 44.9121 567.451 45.2089C567.303 45.3576 567.116 45.4605 566.911 45.5052C566.706 45.5499 566.493 45.5346 566.296 45.461C566.093 45.3668 565.914 45.2272 565.773 45.0531C565.633 44.879 565.533 44.675 565.483 44.4566C565.402 44.2085 565.333 43.9523 565.272 43.6961C567.004 42.5615 570.094 39.5319 572.338 31.7036C574.285 24.9774 573.317 19.585 571.329 19.04Z" fill="#0E2340"/>
<path d="M563.564 58.5068C560.576 61.9553 555.698 66.7865 550.644 67.5063C550.644 67.5063 546.242 67.5063 547.583 61.3616C547.921 59.8244 548.449 57.5268 548.461 57.482C548.697 56.6077 548.839 56.0546 549.238 54.2531C549.417 53.4398 549.51 52.7241 549.591 52.1954C549.657 51.7887 565.04 37.4823 565.04 37.4823C565.04 37.4823 562.093 53.6431 563.564 58.5068Z" fill="#E7926B"/>
<path d="M561.475 46.5224C561.65 45.4448 561.446 44.7738 561.068 44.4281C560.834 44.2362 560.538 44.1364 560.235 44.1475C559.158 44.1475 557.499 45.0381 555.645 46.2906C552.433 49.3243 549.632 52.0205 549.604 52.1954C549.523 52.724 549.429 53.4439 549.25 54.2531C548.844 56.0546 548.709 56.6077 548.474 57.482C548.518 57.482 550.006 57.4129 549.958 57.4454C553.137 57.0916 559.93 56.014 561.475 46.5224Z" fill="#1A1A1A"/>
<path d="M540.099 35.6442C540.505 37.2708 541.831 50.219 545.79 53.3137C547.876 54.9404 552.58 54.2857 554.734 53.6025C561.402 51.5 564.016 46.0954 563.906 40.7641C563.906 40.7641 569.191 36.6649 565.41 32.4193C562.833 29.5279 559.991 34.5624 559.991 34.5624C559.991 34.5624 558.267 32.826 556.332 28.3689C552.49 29.6906 543.562 29.7109 540.534 26.8399C540.526 26.8399 539.444 32.9602 540.099 35.6442Z" fill="#E7926B"/>
<path d="M551.698 35.88C551.762 35.7773 551.849 35.6904 551.952 35.6256C552.055 35.5609 552.171 35.52 552.291 35.5059H552.373H552.401H552.429C553.275 35.4327 553.714 36.5225 553.438 37.2301C553.422 37.3904 553.354 37.5408 553.242 37.6571C553.122 37.7685 552.97 37.8396 552.807 37.8605C552.807 37.8605 552.783 37.8808 552.767 37.8849C552.604 37.9489 552.423 37.9511 552.258 37.8912C552.094 37.8313 551.956 37.7134 551.872 37.5595C551.649 37.3457 551.509 37.0594 551.477 36.7519C551.445 36.4443 551.523 36.1353 551.698 35.88Z" fill="#1A1A1A"/>
<path d="M541.269 37.5636C541.331 37.4415 541.418 37.3335 541.523 37.2462C541.629 37.1589 541.751 37.0942 541.882 37.056C542.014 37.0179 542.152 37.0072 542.288 37.0245C542.423 37.0419 542.554 37.087 542.672 37.1569C542.715 37.1848 542.756 37.2161 542.794 37.2505C542.93 37.3602 543.02 37.5169 543.046 37.6897C543.046 37.71 543.046 37.7303 543.046 37.7507V37.771C543.081 38.0881 543.039 38.4089 542.924 38.7063C542.858 38.8312 542.765 38.9392 542.65 39.0218C542.536 39.1043 542.404 39.1592 542.265 39.182C542.126 39.2049 541.983 39.1951 541.849 39.1535C541.714 39.1119 541.591 39.0396 541.489 38.9422C541.307 38.7678 541.187 38.5387 541.147 38.2898C541.108 38.0409 541.15 37.7859 541.269 37.5636Z" fill="#1A1A1A"/>
<path d="M546.791 43.814C546.788 43.6718 546.841 43.5343 546.938 43.4304C547.035 43.3265 547.169 43.2643 547.311 43.2569L548.173 43.2366C548.243 43.2342 548.314 43.2457 548.38 43.2704C548.446 43.2952 548.506 43.3327 548.558 43.3809C548.609 43.429 548.651 43.4868 548.68 43.551C548.709 43.6153 548.725 43.6846 548.728 43.7551C548.73 43.8256 548.719 43.8958 548.694 43.9619C548.669 44.0279 548.632 44.0885 548.584 44.14C548.535 44.1916 548.478 44.2331 548.413 44.2623C548.349 44.2915 548.28 44.3078 548.209 44.3102H547.348C547.209 44.3129 547.075 44.2633 546.972 44.1713C546.869 44.0793 546.804 43.9517 546.791 43.814Z" fill="#D25C48"/>
<path d="M550.246 31.6954C550.994 31.7808 551.746 31.7442 552.49 31.8662C553.234 31.9882 553.982 32.2119 554.73 32.3624C555.405 32.5006 555.246 33.5824 554.563 33.4278C553.815 33.2733 553.08 33.0537 552.327 32.9317C551.575 32.8097 550.831 32.8422 550.083 32.7609C549.335 32.6796 549.559 31.6141 550.246 31.6954Z" fill="#4A3333"/>
<path d="M539.448 34.1761C539.725 33.6144 540.16 33.1464 540.7 32.83C541.261 32.4234 541.948 33.2652 541.379 33.6637C540.996 33.8661 540.678 34.1718 540.46 34.5462C540.188 35.1806 539.176 34.8146 539.448 34.1761Z" fill="#4A3333"/>
<path d="M547.774 48.2874C547.774 48.2874 550.913 47.6489 552.815 47.1853C554.718 46.7217 551.88 50.2637 550.108 50.2637C548.335 50.2637 549.177 49.3366 547.774 48.2874Z" fill="white"/>
<path d="M566.748 48.5842C566.748 48.5842 565.171 52.9965 565.256 53.9684C565.341 54.9404 564.825 56.6687 564.825 56.6687C564.825 56.6687 563.13 57.3682 562.792 54.0498C562.455 50.7314 564.699 47.1934 566.748 48.5842Z" fill="#DE835C"/>
<path d="M537.253 111.967C537.112 111.968 536.973 111.93 536.852 111.859C536.73 111.787 536.63 111.684 536.562 111.56C529.366 97.8923 496.07 60.2433 495.737 59.861C495.666 59.7852 495.611 59.696 495.575 59.5985C495.539 59.501 495.523 59.3974 495.528 59.2936C495.533 59.1898 495.558 59.0881 495.603 58.9944C495.648 58.9008 495.711 58.817 495.789 58.7482C495.867 58.6794 495.957 58.6269 496.056 58.5938C496.154 58.5607 496.258 58.5476 496.362 58.5555C496.465 58.5633 496.566 58.5918 496.659 58.6393C496.751 58.6869 496.833 58.7524 496.899 58.8322C498.278 60.3816 530.643 97.0017 537.96 110.832C538.024 110.951 538.055 111.084 538.052 111.218C538.048 111.352 538.01 111.484 537.941 111.599C537.872 111.714 537.774 111.809 537.657 111.875C537.54 111.941 537.408 111.975 537.273 111.975L537.253 111.967Z" fill="#283F7C"/>
<path d="M484.914 95.798C484.726 95.7953 484.545 95.7278 484.402 95.6069C484.325 95.5397 484.262 95.458 484.216 95.3664C484.171 95.2747 484.144 95.1751 484.137 95.0731C484.13 94.9711 484.144 94.8687 484.177 94.7719C484.21 94.6751 484.261 94.5857 484.329 94.5089C493.134 84.3992 493.273 71.9675 493.273 71.8455C493.274 71.6391 493.356 71.4415 493.503 71.296C493.649 71.1504 493.847 71.0687 494.053 71.0687C494.259 71.0687 494.457 71.1506 494.602 71.2962C494.748 71.4419 494.83 71.6395 494.83 71.8455C494.83 72.3741 494.724 84.9685 485.52 95.5296C485.445 95.6167 485.352 95.686 485.247 95.7325C485.142 95.7789 485.029 95.8013 484.914 95.798Z" fill="#283F7C"/>
<path d="M491.305 84.8059H491.265C491.167 84.792 491.077 84.7432 491.013 84.6684C490.949 84.5935 490.914 84.4979 490.915 84.3992C491.903 74.017 485.955 59.6496 485.898 59.5032C485.857 59.4543 485.828 59.3964 485.813 59.3341C485.798 59.2719 485.798 59.207 485.813 59.1448C485.829 59.0826 485.858 59.0248 485.9 58.9762C485.941 58.9276 485.994 58.8895 486.053 58.865C486.112 58.8404 486.176 58.8302 486.24 58.8351C486.304 58.84 486.365 58.8599 486.42 58.8932C486.475 58.9265 486.521 58.9721 486.554 59.0266C486.588 59.081 486.608 59.1426 486.614 59.2063C486.675 59.3487 492.712 73.8951 491.687 84.4724C491.671 84.5631 491.624 84.6455 491.555 84.706C491.485 84.7666 491.397 84.8018 491.305 84.8059Z" fill="#283F7C"/>
<path d="M503.806 134.114C503.666 134.115 503.528 134.077 503.407 134.006C503.286 133.934 503.186 133.831 503.119 133.707C498.241 124.407 484.374 99.6572 484.235 99.4092C484.135 99.2291 484.109 99.0163 484.165 98.8176C484.222 98.6189 484.354 98.4507 484.534 98.3498C484.714 98.249 484.927 98.2238 485.126 98.2799C485.324 98.3359 485.492 98.4686 485.593 98.6487C485.732 98.8968 499.615 123.663 504.498 132.983C504.593 133.167 504.613 133.381 504.551 133.578C504.489 133.776 504.351 133.941 504.168 134.037C504.056 134.091 503.932 134.118 503.806 134.114Z" fill="#283F7C"/>
<path d="M548.559 119.482C548.482 119.48 548.407 119.456 548.343 119.413C548.278 119.37 548.228 119.309 548.197 119.238C545.705 113.138 541.989 109.962 539.306 108.376C537.691 107.366 535.897 106.676 534.021 106.343C533.92 106.328 533.828 106.275 533.764 106.195C533.7 106.115 533.668 106.014 533.675 105.912C533.68 105.861 533.696 105.811 533.72 105.766C533.745 105.721 533.778 105.681 533.818 105.649C533.859 105.618 533.905 105.594 533.954 105.58C534.004 105.567 534.055 105.563 534.106 105.57C534.204 105.57 543.961 106.81 548.909 118.925C548.943 119.021 548.941 119.126 548.902 119.22C548.863 119.315 548.79 119.391 548.697 119.433C548.655 119.459 548.608 119.475 548.559 119.482Z" fill="#283F7C"/>
<path d="M533.378 72.6872C532.447 75.9405 530.573 78.7587 528.435 81.341C527.88 81.9242 527.372 82.5496 526.914 83.2117C526.553 83.9545 526.39 84.7784 526.443 85.6029C526.433 86.4263 526.536 87.2471 526.748 88.0429C526.935 88.7708 527.179 89.6695 527.695 90.2511C528 90.5927 528.508 90.2307 528.427 89.8241C528.293 89.428 528.134 89.0408 527.951 88.6651C527.813 88.2988 527.699 87.9239 527.609 87.5427C527.418 86.744 527.329 85.924 527.345 85.1027C527.332 84.6555 527.414 84.2107 527.585 83.7973C527.78 83.4492 528.018 83.1268 528.292 82.8376C528.797 82.2479 529.297 81.6542 529.776 81.0442C531.691 78.6042 533.435 75.9487 534.041 72.8743C534.057 72.7893 534.041 72.7013 533.996 72.6277C533.95 72.5541 533.879 72.5003 533.795 72.4768C533.712 72.4533 533.623 72.4618 533.546 72.5008C533.469 72.5398 533.409 72.6063 533.378 72.6872Z" fill="#88B9FF"/>
<path d="M577.537 55.6643C576.931 55.3064 576.289 55.0217 575.675 54.6801C575.061 54.3385 574.411 53.9807 573.793 53.574C573.219 53.236 572.675 52.8496 572.167 52.4191C571.906 52.1907 571.673 51.9327 571.471 51.6505C571.28 51.378 571.158 51.0649 570.975 50.7883C570.792 50.5118 570.423 50.7436 570.418 51.0161C570.418 51.683 570.923 52.3337 571.366 52.7891C571.895 53.3053 572.483 53.7571 573.118 54.1352C573.747 54.5482 574.4 54.9243 575.073 55.2616C575.764 55.6309 576.485 55.9397 577.228 56.1848C577.529 56.2905 577.858 55.8635 577.537 55.6643Z" fill="#88B9FF"/>
<path d="M473.572 97.022C473.572 97.022 472.267 98.6731 470.514 101.28C472.498 102.276 479.458 105.619 480.373 104.24C481.467 102.626 473.572 97.022 473.572 97.022Z" fill="#1A1A1A"/>
<path d="M463.066 107.075C463.001 107.074 462.937 107.057 462.879 107.026C451.342 100.78 446.154 98.4535 446.101 98.4332C446.009 98.3881 445.937 98.3099 445.9 98.2141C445.863 98.1183 445.864 98.0121 445.902 97.9167C445.948 97.8252 446.026 97.7542 446.122 97.718C446.218 97.6819 446.324 97.6831 446.418 97.7215C446.467 97.7418 451.703 100.076 463.253 106.343C463.319 106.391 463.369 106.457 463.397 106.534C463.424 106.61 463.428 106.693 463.408 106.772C463.388 106.851 463.345 106.922 463.284 106.976C463.223 107.03 463.147 107.064 463.066 107.075Z" fill="#283F7C"/>
<path d="M494.362 127.754C494.362 127.754 489.338 127.095 483.63 123.244C476.279 118.287 473.572 112.54 463.62 107.66C456.664 104.257 457.115 122.817 457.115 122.817C457.115 122.817 465.351 134.24 477.897 132.369C490.443 130.499 494.358 128.624 494.358 128.624" fill="#DE835C"/>
<path d="M516.064 67.3477C515.373 68.4091 513.958 68.0838 513.108 67.4372C512.738 67.1525 512.368 66.8272 511.888 67.0875C511.482 67.3071 511.283 67.8235 510.815 67.9455C510.547 67.988 510.273 67.9575 510.021 67.8573C509.77 67.7572 509.549 67.591 509.384 67.3762C509.043 67.0061 508.868 66.4449 508.465 66.1562C508.277 66.0211 508.051 65.9485 507.819 65.9485C507.587 65.9485 507.361 66.0211 507.173 66.1562C507.051 66.2335 506.189 67.2339 506.067 67.059C505.733 66.5751 504.941 67.0346 505.254 67.5226C505.392 67.7271 505.597 67.8769 505.834 67.946C506.071 68.0151 506.324 67.9991 506.55 67.9008C506.828 67.7713 507.069 67.5759 507.254 67.3315C507.34 67.2169 507.435 67.1095 507.538 67.0102C507.729 66.8516 507.799 66.8069 507.977 66.9817C508.168 67.2258 508.339 67.4841 508.49 67.7544C508.674 67.9925 508.889 68.2057 509.128 68.3888C509.598 68.7557 510.194 68.9236 510.787 68.8565C511.042 68.826 511.289 68.7429 511.51 68.6125C511.685 68.5067 511.982 68.0553 512.153 68.0147C512.206 68.0147 512.559 68.3522 512.693 68.4457C512.991 68.6533 513.317 68.8164 513.661 68.9297C514.824 69.316 516.206 68.9093 516.73 67.7422C516.75 67.6581 516.742 67.5701 516.708 67.4909C516.674 67.4116 516.615 67.3452 516.541 67.3013C516.467 67.2574 516.381 67.2382 516.295 67.2466C516.209 67.2549 516.128 67.2904 516.064 67.3477Z" fill="#DE835C"/>
<path d="M473.572 97.0221C473.572 97.0221 461.558 112.207 461.485 123.341C461.502 126 462.055 128.628 463.111 131.068C463.969 134.321 460.009 135.094 456.631 135.094C453.253 135.094 452.086 133.061 448.122 133.996C440.296 135.838 419.111 135.094 419.111 135.094C418.086 135.094 415.859 134.83 414.993 134.313C413.537 133.463 411.74 132.024 412.931 130.539C414.797 128.209 413.643 129.852 419.233 129.852C424.823 129.852 437.971 121.572 441.699 117.725C445.427 113.878 457.2 85.9771 457.2 85.9771C457.2 85.9771 471.344 93.8745 473.572 97.0221Z" fill="#E7926B"/>
<path d="M494.257 134.439H453.236C451.813 134.338 450.232 134.415 447.191 132.097C444.959 130.401 444.044 129.535 445.443 127.323C446.841 125.11 442.414 123.858 443.817 121.28C445.219 118.701 452.354 119.149 457.371 120.198C462.388 121.247 475.974 126.92 480.869 126.774C485.764 126.627 488.85 124.358 493.126 126.774C497.403 129.189 494.257 134.439 494.257 134.439Z" fill="#E7926B"/>
<path d="M492.732 126.68C491.358 125.175 488.939 125.281 487.09 125.578C485.87 125.777 484.703 126.107 483.496 126.294C482.223 126.466 480.93 126.418 479.674 126.151C475.202 125.338 470.629 124.48 466.461 122.609C464.429 121.698 455.517 118.876 454.424 119.136C453.204 119.425 451.984 118.901 450.81 118.754C449.591 118.604 448.358 118.641 447.151 118.864C445.305 119.202 443.008 120.491 443.492 122.74C443.695 123.659 444.39 124.338 444.882 125.102C445.026 125.284 445.132 125.493 445.195 125.716C445.257 125.94 445.275 126.173 445.248 126.404C445.13 126.993 444.715 127.477 444.602 128.079C444.134 130.519 446.394 132.243 448.26 133.297C448.557 133.463 448.789 133.04 448.525 132.845C447.029 131.747 444.646 130.059 445.52 127.859C445.858 127.014 446.333 126.351 445.984 125.419C445.724 124.692 445.171 124.118 444.764 123.48C444.236 122.666 444.114 121.808 444.764 121.003C445.415 120.198 446.557 119.885 447.565 119.73C448.78 119.546 450.016 119.565 451.224 119.787C452.33 119.99 453.367 120.348 454.501 120.129C455.546 119.925 464.823 123.122 465.795 123.565C469.356 125.192 473.174 126.038 476.999 126.745C478.559 127.189 480.167 127.439 481.788 127.489C483.442 127.493 485.087 127.246 486.667 126.757C487.06 126.646 487.459 126.557 487.862 126.489C488.285 126.437 488.712 126.414 489.139 126.42C490.24 126.461 491.32 126.738 492.306 127.233C492.379 127.285 492.47 127.306 492.559 127.293C492.648 127.279 492.728 127.232 492.783 127.16C492.838 127.089 492.863 127 492.854 126.91C492.844 126.821 492.801 126.738 492.732 126.68Z" fill="#DE835C"/>
<path d="M598.458 135.846H357.105C356.899 135.846 356.701 135.764 356.556 135.619C356.41 135.473 356.328 135.276 356.328 135.07C356.328 134.864 356.41 134.666 356.556 134.52C356.701 134.375 356.899 134.293 357.105 134.293H598.466C598.672 134.293 598.87 134.375 599.015 134.52C599.161 134.666 599.243 134.864 599.243 135.07C599.243 135.276 599.161 135.473 599.015 135.619C598.87 135.764 598.672 135.846 598.466 135.846H598.458Z" fill="#C7D7ED"/>
<path d="M503.587 122.796V116.489L331.777 116.489V122.796L503.587 122.796Z" fill="#586069"/>
<path d="M275.385 122.801V116.493H263.717V122.801H275.385Z" fill="#586069"/>
<path d="M344.408 116.493H338.103V430.072H344.408V116.493Z" fill="#586069"/>
<path d="M335.281 116.493H328.976V154.557H335.281V116.493Z" fill="#586069"/>
<path d="M277.414 116.493H271.108V154.557H277.414V116.493Z" fill="#586069"/>
<path d="M335.282 159.758V153.451H271.109V159.758H335.282Z" fill="#586069"/>
<path d="M344.226 214.613V208.306H262.262V214.613H344.226Z" fill="#586069"/>
<path d="M344.226 269.468V263.161H262.262V269.468H344.226Z" fill="#586069"/>
<path d="M344.229 324.319V318.012H262.266V324.319H344.229Z" fill="#586069"/>
<path d="M344.226 379.174V372.867H262.262V379.174H344.226Z" fill="#586069"/>
<path d="M268.567 116.493H262.262V433.883H268.567V116.493Z" fill="#586069"/>
<path d="M503.77 116.493H497.464V172.45H503.77V116.493Z" fill="#586069"/>
<path d="M124.699 228.846C123.996 227.744 114.91 225.378 107.1 236.252L107.938 244.67L104.027 239.591C104.027 239.591 101.88 241.246 102.807 245.39C103.734 249.533 104.344 253.246 104.344 253.246C104.344 253.246 100.88 243.287 99.8718 244.068C98.8636 244.849 88.3747 259.399 86.4558 262.811C84.5369 266.223 80.2641 283.856 83.423 286.28C86.5819 288.703 93.6395 290.659 101.502 287.813C109.365 284.966 116.951 270.733 116.951 270.733L107.242 263.332L119.439 267.842C119.439 267.842 134.119 243.592 124.699 228.846Z" fill="#2991FF"/>
<path opacity="0.1" d="M124.7 228.846C108.771 255.048 88.2772 274.104 83.4312 286.304C86.59 288.744 93.6395 290.651 101.502 287.833C109.365 285.015 116.951 270.753 116.951 270.753L107.242 263.332L119.439 267.842C119.439 267.842 134.119 243.592 124.7 228.846Z" fill="white"/>
<path d="M114.873 243.336C114.648 243.729 114.384 244.098 114.084 244.438C113.422 245.308 112.739 246.166 112.052 247.024C110.019 249.573 107.97 252.108 105.905 254.629C102.081 259.319 98.2428 263.996 94.3915 268.659C81.2845 284.539 75.4628 304.372 72.4381 324.421C70.4053 338.052 69.4418 351.822 68.2141 365.543C68.1734 365.998 68.8849 365.998 68.9255 365.543C71.0599 341.736 72.0356 317.04 80.4877 294.417C83.8376 285.47 88.4681 276.93 94.5704 269.541C98.1778 265.176 101.77 260.805 105.348 256.426C107.722 253.515 110.096 250.603 112.438 247.663C113.194 246.715 113.95 245.764 114.686 244.816C114.934 244.491 115.499 243.974 115.548 243.543C115.597 243.112 114.926 242.901 114.861 243.356L114.873 243.336Z" fill="#1A2E35"/>
<path d="M0.565135 291.595C0.853782 290.525 7.59023 286.308 16.6562 293.116L18.1116 300.127L19.9817 295.035C19.9817 295.035 22.1323 295.824 22.421 299.407C22.7096 302.99 23.1771 306.161 23.1771 306.161C23.1771 306.161 23.4495 297.239 24.4659 297.622C25.4822 298.004 37.6379 307.093 40.0406 309.362C42.4433 311.631 52.0093 322.318 48.4317 327.548C46.5291 330.33 41.2887 333.648 34.227 333.363C27.1653 333.079 17.4245 323.485 17.4245 323.485L23.3845 315.035L14.6641 321.777C14.6641 321.777 -3.32143 305.901 0.565135 291.595Z" fill="#007CFF"/>
<path opacity="0.3" d="M0.565135 291.595C0.853782 290.525 7.59023 286.308 16.6562 293.116L18.1116 300.127L19.9817 295.035C19.9817 295.035 22.1323 295.824 22.421 299.407C22.7096 302.99 23.1771 306.161 23.1771 306.161C23.1771 306.161 23.4495 297.239 24.4659 297.622C25.4822 298.004 37.6379 307.093 40.0406 309.362C42.4433 311.631 52.0093 322.318 48.4317 327.548C46.5291 330.33 41.2887 333.648 34.227 333.363C27.1653 333.079 17.4245 323.485 17.4245 323.485L23.3845 315.035L14.6641 321.777C14.6641 321.777 -3.32143 305.901 0.565135 291.595Z" fill="black"/>
<path d="M0.735946 261.676C0.735946 261.676 -0.890232 250.627 18.6239 254.853V267.199L23.1691 256.154C23.1691 256.154 34.5523 256.487 38.1137 260.546V273.376L44.9355 263.616C44.9355 263.616 58.258 275.41 57.6075 285.474C56.957 295.539 51.6923 303.107 51.6923 303.107C53.0095 296.499 11.2573 258.419 0.735946 261.676Z" fill="#007CFF"/>
<path d="M139.242 284.812C139.242 284.812 140.868 273.767 121.378 277.988V290.338L116.837 279.273C116.837 279.273 105.454 279.61 101.892 283.665V296.495L95.0704 286.735C95.0704 286.735 81.748 298.528 82.3984 308.597C83.0489 318.666 88.3137 326.23 88.3137 326.23C101.762 302.595 122.358 288.219 139.242 284.812Z" fill="#007CFF"/>
<path opacity="0.3" d="M139.242 284.812C139.242 284.812 140.868 273.767 121.378 277.988V290.338L116.837 279.273C116.837 279.273 105.454 279.61 101.892 283.665V296.495L95.0704 286.735C95.0704 286.735 81.748 298.528 82.3984 308.597C83.0489 318.666 88.3137 326.23 88.3137 326.23C101.762 302.595 122.358 288.219 139.242 284.812Z" fill="#CFE5FF"/>
<path d="M40.4065 176.537C38.7559 176.395 29.3607 183.686 34.2352 199.937L43.3296 205.601H35.1987C35.1987 205.601 35.1987 209.034 40.0772 211.295C44.9557 213.556 49.1716 215.845 49.1716 215.845C49.1716 215.845 36.5037 211.62 36.5037 213.247C36.5037 214.873 43.0084 236.642 44.9517 241.193C46.895 245.743 61.2826 263.677 66.153 262.376C71.0234 261.075 78.4103 255.491 81.6586 245.418C84.9069 235.345 76.463 216.708 76.463 216.708L61.5184 220.721L75.4872 211.945C75.4872 211.945 62.4819 178.489 40.4065 176.537Z" fill="#007CFF"/>
<path opacity="0.06" d="M40.4065 176.537C38.7559 176.395 29.3607 183.686 34.2352 199.937L43.3296 205.601H35.1987C35.1987 205.601 35.1987 209.034 40.0772 211.295C44.9557 213.556 49.1716 215.845 49.1716 215.845C49.1716 215.845 36.5037 211.62 36.5037 213.247C36.5037 214.873 43.0084 236.642 44.9517 241.193C46.895 245.743 61.2826 263.677 66.153 262.376C71.0234 261.075 78.4103 255.491 81.6586 245.418C84.9069 235.345 76.463 216.708 76.463 216.708L61.5184 220.721L75.4872 211.945C75.4872 211.945 62.4819 178.489 40.4065 176.537Z" fill="white"/>
<path d="M77.2311 366.433C77.1949 343.762 75.6698 321.118 72.6656 298.646C69.6997 276.442 65.297 254.454 59.4854 232.82C56.1707 220.503 52.4048 208.318 48.1876 196.264C48.0372 195.833 47.3501 196.02 47.5005 196.456C54.9468 217.71 60.9969 239.429 65.6121 261.473C70.2412 283.632 73.4109 306.071 75.1008 328.646C76.044 341.22 76.5224 353.816 76.5359 366.433C76.5359 366.528 76.5736 366.619 76.6407 366.686C76.7078 366.753 76.7988 366.791 76.8937 366.791C76.9886 366.791 77.0796 366.753 77.1467 366.686C77.2138 366.619 77.2514 366.528 77.2514 366.433H77.2311Z" fill="#1A2E35"/>
<path d="M0.735935 262.034C3.19553 262.034 5.61449 262.848 7.86674 263.775C10.9546 265.092 13.9203 266.678 16.7294 268.517C23.5247 272.913 29.85 277.998 35.6053 283.689C41.3335 289.269 46.7324 295.381 50.8954 302.237C53.3347 306.243 55.2089 310.594 56.9692 314.925C59.0381 319.99 60.779 325.183 62.1811 330.472C65.3481 342.485 66.5474 355.006 65.0025 367.36C64.9456 367.816 65.6611 367.812 65.718 367.36C67.1084 356.238 66.2791 344.953 63.7951 334.042C62.5207 328.512 60.8648 323.077 58.8393 317.776C57.0546 313.063 55.1032 308.321 52.672 303.904C48.8586 296.991 43.6223 290.806 38.0974 285.198C32.2947 279.24 25.9068 273.881 19.0304 269.204C15.7951 266.967 12.3617 265.031 8.77333 263.421C6.24462 262.331 3.52077 261.388 0.735935 261.351C0.641051 261.351 0.550054 261.389 0.482961 261.456C0.415868 261.523 0.378174 261.614 0.378174 261.709C0.378174 261.804 0.415868 261.895 0.482961 261.962C0.550054 262.029 0.641051 262.067 0.735935 262.067V262.034Z" fill="#1A2E35"/>
<path d="M82.0041 365.543C82.7115 357.816 83.4188 350.089 84.8011 342.432C86.0817 335.344 87.9071 328.605 91.6107 322.375C95.0054 316.657 99.3595 311.55 103.905 306.723C108.454 301.822 113.547 297.456 119.085 293.709C125.236 289.643 132.046 286.499 139.339 285.169C139.786 285.088 139.599 284.401 139.148 284.482C125.935 286.922 114.446 295.023 105.157 304.409C100.429 309.187 95.9282 314.348 92.2571 319.996C90.4229 322.789 88.8627 325.752 87.5981 328.845C86.2403 332.225 85.4068 335.759 84.6751 339.333C82.9025 347.975 82.0935 356.775 81.2885 365.551C81.2479 366.006 81.9593 366.006 82.0041 365.551V365.543Z" fill="#1A2E35"/>
<path opacity="0.01" d="M0.593646 291.656C20.0427 308.736 41.366 318.931 48.3464 327.536C46.4112 330.285 41.2156 333.636 34.1702 333.331C27.1247 333.026 17.4165 323.469 17.4165 323.469L23.3683 315.059L14.6642 321.777C14.6642 321.777 -3.27259 305.926 0.593646 291.656Z" fill="white"/>
<path d="M11.5947 301.155C11.741 301.448 12.1842 301.672 12.4362 301.851C13.1314 302.355 13.8429 302.835 14.5503 303.319C16.831 304.864 19.1279 306.385 21.429 307.902C25.8305 310.811 30.2456 313.701 34.6742 316.572C49.2244 326.035 58.8921 340.48 66.3847 355.848C71.4746 366.299 75.7352 377.141 80.1665 387.877C80.3414 388.283 81.0284 388.108 80.8536 387.685C73.2553 369.386 66.344 350.13 54.2981 334.152C49.1512 327.324 43.0246 321.204 35.8654 316.495C32.1455 314.055 28.3971 311.615 24.6732 309.175C21.8762 307.342 19.0859 305.495 16.3025 303.632C15.3308 302.981 14.3632 302.327 13.4038 301.656C12.9812 301.407 12.5836 301.119 12.2167 300.793C12.0134 300.387 11.4036 300.745 11.6028 301.151L11.5947 301.155Z" fill="#1A2E35"/>
<path d="M99.506 358.832L74.3449 359.678L49.1798 358.832C49.1798 358.832 40.1179 399.844 45.2526 410.421C49.5335 419.234 62.486 420.909 71.8121 421.226V421.296C72.5927 421.296 73.4383 421.296 74.3449 421.296C75.2515 421.296 76.0931 421.296 76.8736 421.296V421.226C86.1998 420.909 99.1563 419.234 103.433 410.421C108.568 399.844 99.506 358.832 99.506 358.832Z" fill="#60A2FF"/>
<path d="M73.9466 360.41C87.8202 360.41 99.067 359.525 99.067 358.433C99.067 357.342 87.8202 356.457 73.9466 356.457C60.073 356.457 48.8262 357.342 48.8262 358.433C48.8262 359.525 60.073 360.41 73.9466 360.41Z" fill="#1A2E35"/>
<path opacity="0.3" d="M50.6433 363.268C50.6433 363.268 45.8298 394.582 47.8463 403.492C50.7612 416.359 73.0032 418.449 73.9464 416.83C74.8896 415.212 65.8968 406.318 66.0473 396.818C66.1977 387.319 68.5841 364.692 68.5841 364.692L50.6433 363.268Z" fill="white"/>
<path opacity="0.1" d="M39.7926 176.387C54.0786 212.726 62.3599 242.628 66.0838 262.238C70.9624 260.9 78.5079 255.491 81.7033 245.345C84.8987 235.199 76.2922 216.529 76.2922 216.529L61.3029 220.644L75.2799 211.734C75.2799 211.734 62.0021 178.184 39.7926 176.387Z" fill="white"/>
<path d="M157.776 316.901H117.654C113.844 316.901 110.755 319.991 110.755 323.803V420.052C110.755 423.863 113.844 426.953 117.654 426.953H157.776C161.586 426.953 164.675 423.863 164.675 420.052V323.803C164.675 319.991 161.586 316.901 157.776 316.901Z" fill="#859CC7"/>
<path d="M122.016 425.892C121.928 425.891 121.842 425.861 121.772 425.806C120.951 425.153 120.289 424.322 119.834 423.376C119.379 422.431 119.144 421.394 119.146 420.345V323.502C119.147 322.517 119.356 321.543 119.758 320.644C120.161 319.745 120.749 318.941 121.484 318.284C121.517 318.231 121.562 318.185 121.616 318.152C121.67 318.119 121.731 318.099 121.793 318.094C121.856 318.088 121.92 318.097 121.978 318.12C122.037 318.144 122.09 318.18 122.132 318.227C122.174 318.274 122.205 318.331 122.221 318.392C122.238 318.453 122.24 318.517 122.228 318.579C122.215 318.641 122.188 318.699 122.15 318.749C122.111 318.798 122.061 318.839 122.004 318.866C121.35 319.448 120.828 320.163 120.47 320.961C120.112 321.76 119.926 322.626 119.926 323.502V420.345C119.924 421.277 120.133 422.198 120.536 423.039C120.939 423.88 121.527 424.619 122.256 425.2C122.296 425.232 122.33 425.271 122.355 425.315C122.38 425.36 122.396 425.409 122.402 425.46C122.407 425.511 122.403 425.562 122.388 425.611C122.374 425.66 122.349 425.706 122.317 425.745C122.281 425.791 122.236 425.828 122.184 425.854C122.131 425.879 122.074 425.892 122.016 425.892Z" fill="#434E64"/>
<path d="M176.245 316.901H136.123C132.313 316.901 129.224 319.991 129.224 323.803V420.052C129.224 423.863 132.313 426.953 136.123 426.953H176.245C180.055 426.953 183.144 423.863 183.144 420.052V323.803C183.144 319.991 180.055 316.901 176.245 316.901Z" fill="#104186"/>
<path d="M129.554 420.459C128.121 420.462 126.748 421.034 125.735 422.048C124.723 423.063 124.155 424.438 124.155 425.871C124.156 426.233 124.193 426.594 124.265 426.949H134.867C134.941 426.595 134.978 426.233 134.977 425.871C134.977 425.159 134.837 424.455 134.564 423.797C134.291 423.14 133.892 422.542 133.388 422.04C132.884 421.537 132.286 421.138 131.628 420.867C130.97 420.596 130.265 420.457 129.554 420.459Z" fill="black"/>
<path d="M183.104 421.199C182.282 420.718 181.347 420.463 180.395 420.459C179.442 420.456 178.506 420.704 177.681 421.18C176.855 421.655 176.17 422.34 175.695 423.165C175.219 423.99 174.97 424.927 174.973 425.879C174.973 426.241 175.008 426.602 175.078 426.957H176.55C178.156 426.96 179.708 426.377 180.915 425.317C182.121 424.256 182.9 422.792 183.104 421.199Z" fill="black"/>
<path d="M113.288 420.459C112.421 420.459 111.568 420.668 110.8 421.069C110.977 422.685 111.744 424.178 112.954 425.263C114.164 426.348 115.732 426.949 117.357 426.949H118.577C118.651 426.595 118.687 426.233 118.687 425.871C118.687 424.438 118.118 423.063 117.106 422.048C116.094 421.034 114.721 420.462 113.288 420.459Z" fill="black"/>
<path d="M134.596 433.9C135.207 431.185 133.503 428.489 130.789 427.877C128.075 427.265 125.38 428.97 124.768 431.685C124.156 434.399 125.861 437.096 128.575 437.708C131.288 438.319 133.984 436.615 134.596 433.9Z" fill="black"/>
<path d="M129.46 431.227C129.36 431.226 129.261 431.207 129.167 431.17C129.073 431.132 128.987 431.075 128.914 431.003C128.842 430.932 128.784 430.846 128.744 430.752C128.704 430.658 128.684 430.557 128.683 430.455C128.682 430.353 128.702 430.252 128.74 430.158L130.928 424.741C131.005 424.55 131.156 424.398 131.345 424.318C131.535 424.238 131.749 424.236 131.94 424.314C132.131 424.392 132.283 424.542 132.363 424.732C132.443 424.922 132.444 425.136 132.367 425.326L130.18 430.739C130.123 430.883 130.023 431.007 129.895 431.094C129.767 431.181 129.615 431.227 129.46 431.227Z" fill="black"/>
<path d="M182.946 433.917C183.582 431.208 181.902 428.496 179.194 427.86C176.485 427.224 173.774 428.905 173.139 431.614C172.503 434.323 174.183 437.035 176.891 437.671C179.6 438.306 182.311 436.626 182.946 433.917Z" fill="black"/>
<path d="M177.819 431.227C177.718 431.226 177.619 431.207 177.526 431.17C177.339 431.089 177.191 430.937 177.115 430.747C177.039 430.558 177.041 430.346 177.119 430.158L179.307 424.741C179.384 424.55 179.535 424.398 179.724 424.318C179.914 424.238 180.128 424.236 180.319 424.314C180.51 424.392 180.662 424.542 180.742 424.732C180.822 424.922 180.823 425.136 180.746 425.326L178.559 430.739C178.5 430.887 178.398 431.013 178.266 431.1C178.133 431.187 177.977 431.232 177.819 431.227Z" fill="black"/>
<path d="M173.314 331.794H142.331V339.044H173.314V331.794Z" fill="black"/>
<path d="M147.092 269.916H145.901V335.759H147.092V269.916Z" fill="black"/>
<path d="M169.745 269.916H168.553V335.759H169.745V269.916Z" fill="black"/>
<path d="M169.891 270.961H145.754C145.303 270.96 144.87 270.78 144.551 270.46C144.232 270.141 144.052 269.708 144.051 269.257C144.052 268.805 144.232 268.372 144.551 268.053C144.87 267.734 145.303 267.554 145.754 267.553H169.891C170.343 267.553 170.776 267.732 171.095 268.052C171.415 268.371 171.594 268.805 171.594 269.257C171.594 269.709 171.415 270.142 171.095 270.462C170.776 270.781 170.343 270.961 169.891 270.961Z" fill="black"/>
<path d="M163.874 252.543C163.874 252.543 162.748 257.801 163.874 259.68C165 261.558 168.005 264.938 168.005 266.817C168.005 268.695 166.878 270.948 166.878 270.948C166.545 272.543 165.183 278.586 162.707 277.142C162.02 276.735 161.662 275.857 160.906 275.625C160.394 275.466 159.845 275.658 159.313 275.666C158.997 275.67 158.683 275.611 158.39 275.493C158.097 275.375 157.83 275.2 157.605 274.978C157.007 274.377 156.703 273.437 155.922 273.12C155.141 272.803 154.223 273.246 153.458 272.921C152.576 272.547 152.288 271.331 151.401 270.965C151.153 270.863 150.881 270.839 150.629 270.753C150.111 270.546 149.696 270.145 149.47 269.635C149.247 269.13 149.102 268.593 149.039 268.045C148.732 265.845 148.679 263.616 148.881 261.404C149.104 258.232 149.385 255.068 149.543 251.896C149.668 249.865 149.69 247.829 149.608 245.796C149.23 238.647 163.874 252.543 163.874 252.543Z" fill="#E7926B"/>
<path d="M169.891 267.553H164.748C164.704 267.65 164.663 267.744 164.618 267.837C164.716 267.63 164.618 267.874 164.594 267.902C164.513 268.102 164.443 268.309 164.378 268.508C164.26 268.889 164.167 269.278 164.102 269.671L164.078 269.814C164.078 269.915 164.057 270.013 164.049 270.115C164.049 270.322 164.025 270.521 164.021 270.733C164.02 270.81 164.01 270.886 163.992 270.961H169.891C170.343 270.961 170.776 270.781 171.096 270.462C171.415 270.142 171.595 269.709 171.595 269.257C171.595 268.805 171.415 268.371 171.096 268.052C170.776 267.732 170.343 267.553 169.891 267.553Z" fill="black"/>
<path d="M132.086 409.479C136.591 415.514 143.274 419.499 150.141 422.337C152.397 423.273 154.682 424.106 156.987 424.891C156.025 422.254 155.376 419.514 155.052 416.725C154.69 413.342 154.69 408.999 156.792 406.042C158.528 403.602 160.878 401.626 162.927 399.446C159.809 397.576 156.349 396.221 153.198 394.44C150.511 392.919 149.747 392.997 147.031 391.537C138.428 401.646 136.786 401.663 134.57 403.871C133.28 405.126 132.071 406.461 130.948 407.868C131.314 408.41 131.693 408.947 132.086 409.479Z" fill="#E7926B"/>
<path d="M127.301 409.405C129.395 407.681 131.367 405.107 134.583 403.879C136.331 407.799 139.636 411.366 144.023 412.464C146.531 413.09 148.779 412.203 151.251 411.939C153.141 411.74 154.577 411.658 155.686 416.006C156.524 419.259 156.727 422.606 158.162 425.505C160.951 431.146 165.114 428.1 164.976 434.346C164.947 435.603 164.342 436.973 163.951 437.343C163.338 437.921 154.402 439.324 147.921 433.96C138.359 426.042 126.606 415.863 125.728 413.464C125.244 412.122 125.826 410.625 127.301 409.405Z" fill="#B6ABC4"/>
<path d="M240.175 406.437C243.179 405.737 243.699 405.176 246.724 404.546C250.265 403.802 253.761 402.537 257.335 401.882C257.233 404.875 256.766 407.897 257.079 410.886C257.485 414.513 260.331 417.762 262.823 420.06C265.915 422.862 269.466 425.11 273.32 426.705C279.138 429.1 283.927 430.129 285.293 433.212C286.602 436.16 285.634 436.632 284.61 436.973C283.585 437.315 245.988 438.006 242.216 435.953C239.154 434.281 238.479 431.073 238.963 423.932C239.162 420.792 240.382 419.71 240.175 406.437Z" fill="#E7926B"/>
<path d="M237.129 432.886C237.564 430.206 237.365 426.961 238.95 423.94C242.853 425.729 244.784 427.026 248.805 424.952C251.102 423.769 252.208 421.622 253.891 419.792C255.176 418.393 256.643 418.165 258.241 418.214C259.916 418.253 261.524 418.878 262.786 419.979C265.939 422.741 269.492 425.008 273.324 426.705C279.142 429.1 283.931 430.129 285.297 433.212C285.809 434.358 285.971 435.135 285.919 435.652C285.841 436.489 285.24 436.746 284.614 436.953C283.585 437.295 242.39 438.986 238.625 436.953C237.385 436.298 236.824 434.781 237.129 432.886Z" fill="#B6ABC4"/>
<path d="M284.61 436.969C285.236 436.762 285.829 436.506 285.915 435.668C285.967 435.131 285.805 434.358 285.293 433.228C284.236 430.849 281.138 429.694 277.109 428.189C275.722 428.063 272.177 428.421 270.917 428.848C264.071 431.162 266.526 434.415 261.485 434.615C257.53 434.769 242.935 433.033 237.259 431.943C237.223 432.272 237.182 432.594 237.129 432.907C236.824 434.802 237.385 436.319 238.621 436.973C242.386 439.023 283.581 437.311 284.61 436.969Z" fill="white"/>
<path d="M142.043 396.929C141.307 398.999 154.869 407.726 162.195 411.663C164.325 412.805 166.33 413.419 167.48 411.301C174.042 399.337 204.825 354.404 209.399 335.759C212.976 321.163 216.335 305.995 218.16 287.935C226.498 340.874 227.665 415.693 228.937 418.234C230.377 421.109 257.599 407.372 257.599 407.372C257.599 407.372 258.77 342.017 256.973 312.896C255.176 283.775 245.004 218.033 245.004 218.033L182.778 218.814C182.778 218.814 182.563 222.039 182.181 227.659C181.941 231.177 181.644 235.634 181.294 240.823C179.969 260.489 183.051 298.024 174.469 324.315C166.358 349.158 142.478 395.668 142.043 396.929Z" fill="#5F7AB3"/>
<path d="M218.156 291.546H218.066C217.878 291.519 217.708 291.418 217.593 291.265C217.479 291.113 217.43 290.921 217.457 290.733L223.555 247.59C223.591 247.409 223.694 247.25 223.844 247.143C223.994 247.037 224.178 246.992 224.36 247.017C224.542 247.043 224.707 247.137 224.822 247.28C224.937 247.424 224.993 247.606 224.978 247.789L218.879 290.932C218.855 291.105 218.767 291.263 218.634 291.376C218.501 291.489 218.331 291.55 218.156 291.546Z" fill="#464C7B"/>
<path d="M222.36 256.618C223.47 255.255 224.905 254.153 226.051 252.799C227.279 251.332 228.368 249.754 229.304 248.086C229.384 247.947 229.517 247.845 229.673 247.804C229.828 247.763 229.994 247.785 230.133 247.866C230.272 247.947 230.373 248.08 230.414 248.235C230.456 248.391 230.433 248.557 230.352 248.696C228.633 251.803 226.157 255.666 223.01 257.48C222.453 257.805 221.982 257.081 222.36 256.618Z" fill="#464C7B"/>
<path d="M188.389 249.314C192.454 246.365 195.251 242.356 197.979 238.212C198.435 237.525 199.544 238.163 199.093 238.863C196.308 243.145 193.401 247.606 189.064 250.473C188.328 250.957 187.694 249.81 188.389 249.314Z" fill="#464C7B"/>
<path d="M225.384 273.128C228.095 289.153 230.249 305.261 231.848 321.452C232.29 325.936 232.687 330.426 233.039 334.921C233.076 335.368 232.377 335.327 232.34 334.888C231.037 318.774 229.207 302.714 226.852 286.711C226.185 282.227 225.479 277.753 224.734 273.291C224.665 272.86 225.295 272.717 225.384 273.128Z" fill="#586199"/>
<path d="M232.93 341.029C232.901 340.622 233.556 340.622 233.584 341.029C234.731 357.946 235.331 374.89 235.385 391.862C235.385 396.682 235.347 401.501 235.272 406.319C235.262 406.4 235.224 406.476 235.163 406.531C235.101 406.585 235.022 406.616 234.94 406.616C234.858 406.616 234.779 406.585 234.718 406.531C234.657 406.476 234.618 406.4 234.609 406.319C234.816 389.361 234.609 372.407 233.767 355.486C233.532 350.655 233.252 345.836 232.93 341.029Z" fill="#586199"/>
<path d="M163.951 437.323C164.358 436.953 164.947 435.582 164.976 434.326C165.045 431.251 163.882 430.564 162.354 429.991C160.691 429.665 158.817 430.349 156.804 429.637C150.052 427.254 149.023 425.501 146.95 426.494C145.023 427.413 137.424 420.109 128.432 408.389C128.054 408.739 127.68 409.076 127.301 409.389C125.826 410.609 125.244 412.122 125.728 413.456C126.606 415.855 138.359 426.034 147.921 433.952C154.402 439.303 163.338 437.9 163.951 437.323Z" fill="white"/>
<path d="M249.565 142.788C249.565 142.788 251.919 142.983 259.07 158.091C266.221 173.198 293.131 191.657 293.131 191.657C293.131 191.657 297.387 206.061 287.309 212.616C277.231 219.172 245.683 201.193 245.683 201.193C245.683 201.193 249.386 222.527 245.589 224.235C241.792 225.943 186.831 229.554 182.168 227.651C177.505 225.748 180.091 201.799 180.091 201.799L249.565 142.788Z" fill="#60A2FF"/>
<path d="M292.175 198.273C292.175 198.273 292.627 203.967 289.135 208.302C285.642 212.637 281.569 206.403 283.036 198.273C284.504 190.144 292.175 198.273 292.175 198.273Z" fill="#1A1A1A"/>
<path d="M282.784 224.243C282.784 224.243 283.675 224.682 282.784 228.127C281.894 231.571 282.276 235.544 277.186 232.628C272.096 229.713 247.435 217.224 244.638 212.873C241.841 208.521 246.931 178.074 247.443 166.814C247.956 155.553 249.354 159.986 250.696 160.6C251.509 160.966 251.602 160.791 252.224 157.867C252.562 156.285 254.432 157.461 254.432 157.461L282.658 173.878L282.784 224.243Z" fill="#006A33"/>
<path d="M284.39 224.109C286.228 220.811 287.098 216.382 287.362 214.284C290.021 193.381 290.578 168.066 290.11 167.111C289.383 165.582 265.897 149.506 260.729 147.131C260.246 146.912 259.945 146.814 259.863 146.863C258.892 147.428 256.017 193.288 256.562 194.296C257.107 195.305 284.797 213.226 285.427 215.15C285.59 215.817 285.6 216.512 285.455 217.183C285.295 218.141 285.062 219.086 284.76 220.01C284.317 221.441 251.737 200.286 251.525 201.775C251.029 205.166 283.297 226.081 284.39 224.109Z" fill="#B0C1D3"/>
<path d="M285.671 213.393C284.406 212.429 283.178 211.413 281.906 210.457C280.634 209.501 279.243 208.497 277.902 207.533C275.226 205.618 272.539 203.727 269.929 201.714C267.555 199.888 265.181 198.054 262.676 196.427C260.746 195.12 258.671 194.04 256.493 193.21C256.493 193.593 255.745 169.193 256.086 157.424C256.249 151.645 253.241 155.175 253.241 155.212C252.066 172.938 250.22 196.403 250.834 201.165C251.383 205.398 283.317 226.089 284.41 224.117C286.142 221.006 287.016 216.878 287.329 214.67C286.772 214.207 286.207 213.8 285.671 213.393Z" fill="#93AABC"/>
<path d="M287.337 173.398C287.049 173.551 286.822 173.798 286.692 174.098C286.563 174.398 286.54 174.734 286.626 175.049C286.721 175.309 286.753 175.587 286.719 175.862C286.549 176.476 285.699 176.342 285.093 176.448C284.864 176.508 284.651 176.617 284.466 176.765C284.282 176.914 284.131 177.1 284.023 177.311C283.916 177.522 283.853 177.753 283.841 177.99C283.828 178.227 283.866 178.463 283.951 178.684C284.164 179.061 284.413 179.417 284.695 179.746C284.833 179.913 284.928 180.112 284.971 180.325C285.014 180.538 285.005 180.758 284.943 180.966C284.805 181.279 284.496 181.462 284.264 181.706C284.026 181.971 283.872 182.302 283.821 182.655C283.77 183.008 283.825 183.368 283.979 183.69C284.272 184.272 284.89 184.679 285.02 185.317C285.15 185.955 284.691 186.643 284.614 187.35C284.516 188.509 285.528 189.384 286.394 190.132C287.329 190.921 288.386 191.685 288.907 192.816C289.313 193.662 288.87 195.699 288.968 197.387C289.004 198.05 288.057 203.487 288.403 204.707C289.622 201.498 292.623 197.151 292.944 193.727C292.982 192.745 293.146 191.772 293.432 190.831C293.706 190.266 293.911 189.669 294.041 189.054C294.139 188.119 293.635 187.224 293.635 186.289C293.635 184.967 294.606 183.755 294.448 182.446C294.387 182.007 294.2 181.596 294.131 181.157C293.997 180.274 294.358 179.359 294.184 178.485C294.009 177.611 293.415 177.021 292.838 176.452C291.736 175.329 290.594 174.158 289.179 173.442C288.896 173.293 288.583 173.211 288.264 173.204C287.944 173.196 287.627 173.262 287.337 173.398Z" fill="#E7926B"/>
<path d="M289.972 194.382C288.592 192.785 287.08 191.307 285.451 189.965C284.735 189.396 285.658 188.339 286.37 188.879C288.116 190.178 289.686 191.698 291.041 193.402C291.545 194.056 290.529 195.004 289.972 194.382Z" fill="#AD6E50"/>
<path d="M252.696 202.007C259.006 207.7 283.41 224.084 283.801 222.82C284.089 221.897 285.301 218.135 285.427 217.175C285.572 216.504 285.562 215.809 285.398 215.142C285.124 214.705 284.768 214.325 284.35 214.024L284.199 213.902C278.792 209.339 257.022 195.195 256.554 194.288C256.087 193.381 258.339 155.505 259.473 148.64L254.05 155.984C253.546 159.238 251.562 201.124 251.562 201.124C251.562 201.124 251.96 201.445 252.696 202.007Z" fill="white"/>
<path d="M249.464 203.633C254.389 208.302 259.781 212.451 265.555 216.016C275.186 221.974 281.41 225.166 281.41 225.166C281.41 225.166 281.695 225.658 281.17 228.318C280.646 230.977 280.886 233.031 276.15 230.449C247.155 214.638 245.691 211.71 245.691 211.71C245.691 211.71 247 178.831 249.35 160.47C249.35 160.47 248.895 160.433 252.228 157.859C252.216 157.867 247.626 201.738 249.464 203.633Z" fill="white"/>
<path d="M145.015 253.722C145.791 256.056 165.626 262.262 166.407 261.502C167.187 260.741 167.728 248.96 169.151 235.369C170.964 218.033 179.136 211.567 179.315 210.05C179.294 210.347 179.364 211.307 180.876 211.909C182.823 212.69 185.933 213.857 205.378 211.502C220.233 209.713 234.158 208.387 236.105 208.001C238.491 207.521 243.87 203.361 243.488 198.802C243.081 194.134 241.935 188.298 241.935 185.964C241.967 181.002 242.375 176.049 243.154 171.149C243.967 165.968 246.029 161.348 247.956 156.509C248.736 154.537 249.521 152.56 250.11 150.519C250.648 148.877 250.892 147.154 250.83 145.427C250.762 144.448 250.569 143.482 250.257 142.552C249.93 141.925 249.57 141.316 249.179 140.726C245.179 134.732 238.463 131.202 232.714 127.16C232.551 127.044 232.403 126.907 232.275 126.753L231.153 125.997L231.039 125.92C229.482 120.084 227.149 117.75 225.205 116.566C223.526 115.562 209.261 107.62 199.927 108.026C190.592 108.433 189.425 116.196 190.202 119.698C190.978 123.199 190.609 125.533 188.649 128.238C186.689 130.942 187.287 134.659 187.287 134.659C187.287 134.659 177.506 142.93 171.607 148.79L171.147 149.246L170.952 149.449C167.846 152.747 157.821 161.129 154.174 172.43C153.361 174.971 144.039 188.696 144.039 211.429C144.051 227.447 144.238 251.388 145.015 253.722Z" fill="#60A2FF"/>
<path d="M201.492 122.821C200.005 121.443 198.447 120.144 196.825 118.929C193.324 116.208 193.324 112.707 196.418 110.759C199.512 108.811 209.249 111.926 209.249 111.926L207.305 121.654L201.492 122.821Z" fill="#1557B2"/>
<path d="M226.384 129.043C226.384 129.043 227.937 120.503 223.856 118.734C218.888 116.607 218.022 117.957 218.022 117.957L223.648 138.111L226.384 129.043Z" fill="#1557B2"/>
<path d="M178.766 211.069C178.964 211.069 179.154 211.006 179.297 210.895C179.44 210.784 179.524 210.633 179.532 210.474C179.532 210.331 180.334 195.999 189.915 180.975C189.961 180.902 189.989 180.824 189.997 180.743C190.006 180.662 189.994 180.58 189.963 180.503C189.933 180.425 189.883 180.353 189.818 180.291C189.753 180.229 189.674 180.178 189.584 180.141C189.495 180.104 189.397 180.081 189.297 180.075C189.196 180.068 189.096 180.077 189 180.102C188.904 180.127 188.815 180.167 188.738 180.219C188.661 180.272 188.598 180.336 188.552 180.408C178.819 195.685 178.005 210.279 178.001 210.425C177.992 210.589 178.064 210.75 178.202 210.871C178.339 210.993 178.531 211.065 178.734 211.072L178.766 211.069Z" fill="#1557B2" fill-opacity="0.59"/>
<path d="M211.797 139.161C211.922 139.162 212.044 139.123 212.144 139.049C212.245 138.976 212.32 138.872 212.357 138.753C212.394 138.635 212.393 138.507 212.352 138.389C212.311 138.271 212.234 138.17 212.131 138.099C212.029 138.026 201.691 130.828 193.954 127.347C193.885 127.316 193.809 127.298 193.733 127.296C193.656 127.293 193.58 127.306 193.509 127.333C193.437 127.36 193.372 127.401 193.316 127.453C193.26 127.505 193.215 127.568 193.184 127.638C193.152 127.707 193.135 127.783 193.132 127.859C193.13 127.936 193.143 128.012 193.17 128.083C193.197 128.155 193.237 128.22 193.29 128.276C193.342 128.332 193.405 128.377 193.474 128.408C201.113 131.849 211.362 138.982 211.464 139.055C211.562 139.123 211.678 139.159 211.797 139.161Z" fill="#1557B2"/>
<path d="M189.633 133.325C189.751 133.326 189.866 133.289 189.962 133.219L195.527 129.352C195.654 129.263 195.741 129.128 195.768 128.976C195.795 128.824 195.76 128.667 195.672 128.541C195.583 128.414 195.448 128.327 195.296 128.3C195.144 128.273 194.987 128.308 194.861 128.396L189.299 132.26C189.197 132.331 189.121 132.433 189.081 132.55C189.041 132.668 189.039 132.796 189.076 132.914C189.113 133.033 189.187 133.137 189.287 133.211C189.387 133.284 189.508 133.325 189.633 133.325Z" fill="#1557B2"/>
<path d="M228.791 135.562C228.82 135.517 231.332 131.052 231.166 126.009C231.344 126.131 231.739 126.416 232.292 126.765L232.341 126.822C232.211 130.081 231.345 133.267 229.808 136.143C229.731 136.278 229.603 136.377 229.453 136.417C229.304 136.458 229.144 136.438 229.009 136.361C228.874 136.284 228.775 136.156 228.735 136.006C228.694 135.856 228.714 135.696 228.791 135.562Z" fill="#1557B2"/>
<path d="M170.964 149.478C182.969 151.812 188.421 174.24 188.474 174.463C188.498 174.546 188.548 174.618 188.616 174.671C188.684 174.724 188.766 174.753 188.852 174.756H188.946C189.043 174.727 189.126 174.664 189.178 174.577C189.231 174.491 189.25 174.388 189.23 174.288C188.174 170.335 186.73 166.495 184.921 162.824C181.193 155.37 176.603 150.039 171.619 148.831L171.159 149.287L170.964 149.478Z" fill="#1557B2"/>
<path d="M240.304 84.0413C240.304 84.0413 245.411 85.0539 245.752 83.167C246.094 81.2801 244.411 79.4135 238.499 79.2142C238.499 79.2142 244.057 78.2748 242.378 75.9609C241.565 74.8263 237.625 75.1801 232.735 76.1602C233.194 75.785 233.604 75.3532 233.954 74.8751C236.877 70.7353 229.076 72.7279 221.607 75.4444C223.64 72.0895 219.168 72.9719 213.212 76.9898C214.257 72.8092 211.899 72.183 209.362 76.0707C208.31 77.7721 207.592 79.659 207.248 81.6298C205.919 80.8815 203.935 80.052 201.886 80.2146C198.264 80.5033 204.138 85.0499 204.138 85.0499C204.138 85.0499 198.853 86.0665 198.593 87.9494C198.333 89.8322 204.138 89.6818 204.138 89.6818C203.325 99.9135 206.48 106.851 210.379 110.625C211.863 112.061 228.405 89.2466 234.584 95.6435C239.914 101.158 238.756 95.3832 238.756 95.3832C238.756 95.3832 242.284 97.5589 243.878 96.5015C245.472 95.4442 242.626 92.4023 240.455 89.4988C240.455 89.4988 243.906 92.3251 245.59 91.0319C247.273 89.7387 243.784 86.3593 240.304 84.0413Z" fill="#05162D"/>
<path d="M201.491 122.821C203.191 125.086 223.648 138.111 223.648 138.111C223.648 138.111 222.347 131.223 221.55 126.351C221.418 125.134 221.418 123.907 221.55 122.691C221.64 121.784 221.758 120.922 221.843 120.34C221.912 119.893 210.687 100.007 210.687 100.007C210.687 100.007 204.618 118.205 201.491 122.821Z" fill="#E7926B"/>
<path d="M214.111 131.654C213.94 131.625 213.765 131.589 213.594 131.552C218.778 134.992 223.648 138.095 223.648 138.095C223.648 138.095 224.677 135.249 225.726 131.206C222.985 131.735 216.875 132.17 214.111 131.654Z" fill="white"/>
<path d="M221.55 126.367C221.859 124.407 222.12 119.226 222.201 118.64C222.201 118.64 220.981 117.656 221.115 116.973C221.112 116.961 221.112 116.948 221.115 116.936C218.428 113.191 215.525 109.149 213.562 108.563C213.246 108.455 212.903 108.465 212.594 108.592C212.07 108.823 211.643 109.462 211.476 110.625C210.017 121.08 221.542 126.399 221.55 126.367Z" fill="#1A1A1A"/>
<path d="M236.133 99.6938C235.698 101.491 234.234 115.68 229.901 119.075C227.612 120.869 222.449 120.145 220.074 119.393C212.757 117.087 209.911 111.158 210.012 105.31C210.012 105.31 204.215 100.812 208.386 96.1559C211.212 92.9839 214.33 98.5104 214.33 98.5104C214.33 98.5104 216.261 92.3169 218.395 87.4288C220.079 88.0104 227.339 93.2767 227.226 90.9465C227.193 90.1535 226.055 87.7908 226.055 87.7908C233.974 92.2071 236.011 92.2153 235.686 90.0356C235.665 90.0356 236.853 96.7496 236.133 99.6938Z" fill="#E7926B"/>
<path d="M223.408 99.9541C223.339 99.8404 223.244 99.7445 223.131 99.674C223.018 99.6034 222.891 99.56 222.758 99.5474H222.668H222.636C222.636 99.5474 222.636 99.5474 222.608 99.5474C221.681 99.4661 221.197 100.662 221.502 101.438C221.517 101.615 221.593 101.78 221.717 101.906C221.849 102.03 222.017 102.108 222.197 102.13L222.238 102.158C222.417 102.224 222.615 102.224 222.795 102.159C222.975 102.093 223.126 101.966 223.221 101.8C223.467 101.565 223.62 101.25 223.655 100.912C223.689 100.573 223.602 100.234 223.408 99.9541Z" fill="#1A1A1A"/>
<path d="M234.869 101.8C234.802 101.665 234.709 101.544 234.593 101.447C234.478 101.349 234.344 101.276 234.199 101.232C234.055 101.189 233.903 101.176 233.753 101.194C233.603 101.212 233.458 101.26 233.328 101.337C233.28 101.366 233.235 101.4 233.194 101.438C233.046 101.559 232.949 101.73 232.921 101.918V101.987V102.008C232.884 102.355 232.93 102.707 233.056 103.033C233.127 103.17 233.229 103.289 233.355 103.38C233.48 103.471 233.624 103.531 233.777 103.557C233.93 103.582 234.086 103.571 234.234 103.525C234.382 103.48 234.517 103.4 234.629 103.293C234.825 103.103 234.954 102.856 234.997 102.587C235.041 102.317 234.995 102.042 234.869 101.8Z" fill="#1A1A1A"/>
<path d="M228.791 108.657C228.796 108.501 228.738 108.349 228.632 108.235C228.525 108.121 228.378 108.053 228.222 108.047L227.279 108.026C227.123 108.021 226.97 108.078 226.856 108.185C226.742 108.292 226.674 108.439 226.669 108.596C226.664 108.752 226.721 108.904 226.827 109.019C226.934 109.133 227.082 109.2 227.238 109.206L228.181 109.23C228.338 109.232 228.488 109.174 228.602 109.067C228.716 108.96 228.784 108.813 228.791 108.657Z" fill="#AD6E50"/>
<path d="M224.571 94.1632C223.758 94.3258 222.945 94.3584 222.132 94.5698C221.319 94.7813 220.534 95.0863 219.733 95.3303C219.01 95.5458 219.282 96.6926 220.014 96.4771C220.827 96.2372 221.599 95.92 222.412 95.7166C223.226 95.5133 224.039 95.4767 224.852 95.31C225.608 95.1595 225.327 94.0127 224.571 94.1632Z" fill="#AD6E50"/>
<path d="M237.515 96.9163C237.212 96.3003 236.734 95.7871 236.141 95.4401C235.527 95.005 234.775 95.9159 235.397 96.3551C235.819 96.5748 236.169 96.9106 236.405 97.323C236.706 98.0184 237.816 97.6158 237.515 96.9163Z" fill="#AD6E50"/>
<path d="M231.226 113.5C231.226 113.5 226.982 113.036 223.315 112.235C222.172 111.987 223.347 115.35 225.726 116.469C227.73 117.42 231.226 113.5 231.226 113.5Z" fill="white"/>
<path d="M245.683 179.949C245.683 179.949 247.602 203.576 249.561 212.011C251.521 220.445 247.273 218.806 247.122 220.668C246.675 226.484 243.008 226.476 239.857 215.317C236.707 204.158 243.793 203.251 243.793 203.251C243.793 203.251 244.004 180.616 245.683 179.949Z" fill="#60A2FF"/>
<path d="M194.239 223.84C193.722 223.848 193.207 223.779 192.71 223.637C192.514 223.573 192.351 223.434 192.257 223.251C192.164 223.067 192.147 222.853 192.21 222.657C192.274 222.461 192.413 222.298 192.597 222.204C192.78 222.11 192.994 222.093 193.19 222.157C193.279 222.185 195.288 222.779 197.447 221.169C200.028 219.245 203.069 213.987 202.915 199.859C202.912 199.657 202.989 199.462 203.127 199.315C203.266 199.167 203.457 199.08 203.659 199.07L241.439 197.497C241.55 197.494 241.66 197.515 241.763 197.557C241.866 197.599 241.959 197.661 242.036 197.741C242.113 197.821 242.171 197.918 242.207 198.023C242.243 198.128 242.255 198.24 242.244 198.351C241.977 201.586 241.991 204.837 242.284 208.07C242.727 212.478 244.016 218.001 247.663 219.249C247.76 219.282 247.849 219.334 247.925 219.402C248.002 219.469 248.065 219.551 248.109 219.643C248.154 219.735 248.181 219.834 248.187 219.936C248.194 220.038 248.18 220.141 248.147 220.237C248.114 220.334 248.062 220.423 247.994 220.5C247.927 220.576 247.845 220.639 247.753 220.684C247.661 220.729 247.562 220.755 247.46 220.762C247.358 220.768 247.256 220.754 247.159 220.721C239.776 218.192 240.349 202.999 240.626 199.091L204.476 200.595C204.512 212.076 202.443 219.428 198.333 222.45C197.154 223.343 195.718 223.831 194.239 223.84Z" fill="#1557B2"/>
</g>
<defs>
<clipPath id="clip0_167_30">
<rect width="618.424" height="437.836" fill="white"/>
</clipPath>
</defs>
</svg>
