<svg width="178" height="28" viewBox="0 0 178 28" fill="none" xmlns="http://www.w3.org/2000/svg">
<path d="M175.146 12.3033C175.295 12.8596 175.416 13.4483 175.508 14.0696L162.053 17.6746C162.469 18.855 163.1 19.6796 163.946 20.1484C164.809 20.5879 165.739 20.6741 166.735 20.4071C168.219 20.0096 169.082 19.1075 169.326 17.7007L175.654 16.0053C175.671 17.3669 175.387 18.6726 174.803 19.9221C174.242 21.1655 173.401 22.2477 172.282 23.1686C171.163 24.0896 169.815 24.7613 168.239 25.1836C166.338 25.6928 164.538 25.7406 162.837 25.3268C161.136 24.9131 159.667 24.0647 158.429 22.7818C157.191 21.4989 156.302 19.8492 155.761 17.8328C155.221 15.8164 155.155 13.9463 155.562 12.2224C155.993 10.4924 156.841 9.02301 158.107 7.81436C159.373 6.60571 160.968 5.74366 162.892 5.22821C164.769 4.72518 166.543 4.67206 168.215 5.06883C169.886 5.4656 171.323 6.28538 172.525 7.52817C173.751 8.76475 174.625 10.3565 175.146 12.3033ZM168.643 12.3691C168.37 11.3493 167.805 10.6312 166.948 10.215C166.091 9.79866 165.141 9.73025 164.098 10.0097C163.102 10.2768 162.333 10.7931 161.793 11.5589C161.277 12.3184 161.08 13.253 161.203 14.3626L168.643 12.3691Z" fill="white"/>
<path d="M146.542 25.5542C144.79 25.5542 143.231 25.2542 141.863 24.6544C140.495 24.0545 139.415 23.2387 138.624 22.2069C137.832 21.1512 137.388 19.9754 137.292 18.6797H143.374C143.446 19.3756 143.77 19.9394 144.346 20.3713C144.922 20.8033 145.63 21.0192 146.47 21.0192C147.238 21.0192 147.825 20.8752 148.233 20.5873C148.665 20.2754 148.881 19.8795 148.881 19.3996C148.881 18.8237 148.581 18.4038 147.981 18.1399C147.382 17.8519 146.41 17.54 145.066 17.2041C143.626 16.8681 142.427 16.5202 141.467 16.1603C140.507 15.7764 139.679 15.1885 138.983 14.3967C138.288 13.5809 137.94 12.4891 137.94 11.1215C137.94 9.96971 138.252 8.92595 138.876 7.99016C139.523 7.03038 140.459 6.27455 141.683 5.72268C142.931 5.1708 144.406 4.89487 146.11 4.89487C148.629 4.89487 150.609 5.51873 152.049 6.76644C153.512 8.01416 154.352 9.66978 154.568 11.7333H148.881C148.785 11.0375 148.473 10.4856 147.945 10.0777C147.442 9.66978 146.77 9.46583 145.93 9.46583C145.21 9.46583 144.658 9.6098 144.274 9.89773C143.89 10.1617 143.698 10.5336 143.698 11.0135C143.698 11.5893 143.998 12.0212 144.598 12.3092C145.222 12.5971 146.182 12.885 147.478 13.173C148.965 13.5569 150.177 13.9408 151.113 14.3247C152.049 14.6846 152.864 15.2845 153.56 16.1243C154.28 16.9401 154.652 18.0439 154.676 19.4356C154.676 20.6113 154.34 21.6671 153.668 22.6028C153.02 23.5146 152.073 24.2345 150.825 24.7623C149.601 25.2902 148.173 25.5542 146.542 25.5542Z" fill="white"/>
<path d="M114.519 15.1885C114.519 13.125 114.903 11.3134 115.671 9.75376C116.463 8.19412 117.531 6.99439 118.874 6.15458C120.218 5.31477 121.718 4.89487 123.373 4.89487C124.789 4.89487 126.025 5.1828 127.081 5.75867C128.16 6.33454 128.988 7.09037 129.564 8.02615V5.1828H135.719V25.2662H129.564V22.4229C128.964 23.3587 128.124 24.1145 127.045 24.6904C125.989 25.2662 124.753 25.5542 123.337 25.5542C121.706 25.5542 120.218 25.1343 118.874 24.2945C117.531 23.4307 116.463 22.2189 115.671 20.6593C114.903 19.0756 114.519 17.2521 114.519 15.1885ZM129.564 15.2245C129.564 13.6889 129.132 12.4771 128.268 11.5893C127.428 10.7015 126.397 10.2576 125.173 10.2576C123.949 10.2576 122.905 10.7015 122.042 11.5893C121.202 12.4531 120.782 13.6529 120.782 15.1885C120.782 16.7242 121.202 17.9479 122.042 18.8597C122.905 19.7475 123.949 20.1914 125.173 20.1914C126.397 20.1914 127.428 19.7475 128.268 18.8597C129.132 17.9719 129.564 16.7602 129.564 15.2245Z" fill="white"/>
<path d="M113.869 12.3033C114.018 12.8596 114.138 13.4483 114.23 14.0696L100.776 17.6746C101.192 18.855 101.822 19.6796 102.668 20.1484C103.531 20.5879 104.461 20.6741 105.458 20.4071C106.941 20.0096 107.805 19.1075 108.049 17.7007L114.376 16.0053C114.393 17.3669 114.11 18.6726 113.525 19.9221C112.964 21.1655 112.124 22.2477 111.004 23.1686C109.885 24.0896 108.537 24.7613 106.961 25.1836C105.061 25.6928 103.26 25.7406 101.559 25.3268C99.8587 24.9131 98.3893 24.0648 97.1513 22.7818C95.9133 21.4989 95.0241 19.8492 94.4838 17.8328C93.9435 15.8164 93.8771 13.9463 94.2847 12.2224C94.7154 10.4924 95.5637 9.02301 96.8297 7.81436C98.0956 6.60571 99.6905 5.74367 101.614 5.22822C103.491 4.72519 105.266 4.67206 106.937 5.06883C108.608 5.4656 110.045 6.28538 111.248 7.52817C112.473 8.76475 113.347 10.3565 113.869 12.3033ZM107.365 12.3691C107.092 11.3493 106.527 10.6313 105.67 10.215C104.814 9.79867 103.864 9.73025 102.821 10.0097C101.824 10.2768 101.056 10.7931 100.516 11.5589C99.999 12.3184 99.8022 13.253 99.9257 14.3626L107.365 12.3691Z" fill="white"/>
<path d="M84.6893 4.96689C87.1847 4.96689 89.1643 5.72272 90.6279 7.23437C92.1156 8.74603 92.8594 10.8456 92.8594 13.5329V25.2663H86.7408V14.3608C86.7408 13.065 86.3929 12.0693 85.6971 11.3734C85.0252 10.6536 84.0894 10.2937 82.8897 10.2937C81.69 10.2937 80.7422 10.6536 80.0463 11.3734C79.3745 12.0693 79.0386 13.065 79.0386 14.3608V25.2663H72.92V14.3608C72.92 13.065 72.572 12.0693 71.8762 11.3734C71.2043 10.6536 70.2686 10.2937 69.0688 10.2937C67.8691 10.2937 66.9213 10.6536 66.2255 11.3734C65.5536 12.0693 65.2177 13.065 65.2177 14.3608V25.2663H59.0631V5.18284H65.2177V7.70227C65.8416 6.86246 66.6574 6.20261 67.6652 5.72272C68.6729 5.21883 69.8127 4.96689 71.0844 4.96689C72.596 4.96689 73.9397 5.29082 75.1155 5.93867C76.3152 6.58652 77.251 7.51031 77.9228 8.71004C78.6187 7.60629 79.5664 6.70649 80.7662 6.01065C81.9659 5.31481 83.2736 4.96689 84.6893 4.96689Z" fill="white"/>
<path d="M51.6225 8.53008C52.3423 7.42633 53.2421 6.56253 54.3219 5.93867C55.4016 5.29082 56.6014 4.96689 57.9211 4.96689V11.4814H56.2295C54.6938 11.4814 53.5421 11.8173 52.7742 12.4892C52.0064 13.137 51.6225 14.2888 51.6225 15.9444V25.2663H45.4679V5.18284H51.6225V8.53008Z" fill="white"/>
<path d="M33.4926 25.5542C31.525 25.5542 29.7494 25.1343 28.1658 24.2945C26.6062 23.4546 25.3704 22.2549 24.4587 20.6953C23.5709 19.1356 23.127 17.312 23.127 15.2245C23.127 13.161 23.5828 11.3494 24.4946 9.78975C25.4064 8.20611 26.6542 6.99439 28.2378 6.15458C29.8214 5.31477 31.597 4.89487 33.5646 4.89487C35.5321 4.89487 37.3077 5.31477 38.8914 6.15458C40.475 6.99439 41.7227 8.20611 42.6345 9.78975C43.5463 11.3494 44.0022 13.161 44.0022 15.2245C44.0022 17.288 43.5343 19.1116 42.5985 20.6953C41.6867 22.2549 40.427 23.4546 38.8194 24.2945C37.2357 25.1343 35.4602 25.5542 33.4926 25.5542ZM33.4926 20.2274C34.6683 20.2274 35.6641 19.7955 36.4799 18.9317C37.3197 18.0679 37.7396 16.8322 37.7396 15.2245C37.7396 13.6169 37.3317 12.3812 36.5159 11.5174C35.7241 10.6536 34.7403 10.2217 33.5646 10.2217C32.3649 10.2217 31.3691 10.6536 30.5773 11.5174C29.7854 12.3572 29.3895 13.5929 29.3895 15.2245C29.3895 16.8322 29.7734 18.0679 30.5413 18.9317C31.3331 19.7955 32.3169 20.2274 33.4926 20.2274Z" fill="white"/>
<path d="M9.46585 0C12.1292 0 14.4567 0.52788 16.4483 1.58364C18.4398 2.6394 19.9755 4.12706 21.0552 6.04662C22.159 7.94219 22.7108 10.1377 22.7108 12.6331C22.7108 15.1046 22.159 17.3001 21.0552 19.2196C19.9755 21.1392 18.4278 22.6269 16.4123 23.6826C14.4207 24.7384 12.1052 25.2663 9.46585 25.2663H0V0H9.46585ZM9.06994 19.9395C11.3974 19.9395 13.209 19.3036 14.5047 18.0319C15.8004 16.7602 16.4483 14.9606 16.4483 12.6331C16.4483 10.3057 15.8004 8.49407 14.5047 7.19836C13.209 5.90266 11.3974 5.2548 9.06994 5.2548H6.1546V19.9395H9.06994Z" fill="white"/>
</svg>
